<?xml version="1.0" standalone="no"?><!DOCTYPE svg PUBLIC "-//W3C//DTD SVG 1.1//EN" "http://www.w3.org/Graphics/SVG/1.1/DTD/svg11.dtd"><svg t="1533266011373" class="icon" style="" viewBox="0 0 1024 1024" version="1.1" xmlns="http://www.w3.org/2000/svg" p-id="2345" xmlns:xlink="http://www.w3.org/1999/xlink" width="128" height="128"><defs><style type="text/css"></style></defs><path d="M271.188 195.392c-80.283 96.464-78.869 347.054 129.457 454.045 66.458 34.094 156.638 64.886 266.614 42.578-31.734-12.725-33.935-31.734-37.235-67.243 7.698 10.526 25.452 84.838 109.347 35.349-26.237-9.586-21.051-57.345-5.342-86.882 15.868-29.694 54.045-114.218 56.087-184.131 68.342-124.9-482.011-238.335-518.931-193.716z" fill="#181818" p-id="2346"></path><path d="M456.103 678.659l68.657 265.828 20.11 11.312 6.913-233.778z" fill="#F9DFB7" p-id="2347"></path><path d="M523.659 943.7l-22.781 17.91 43.99-5.813z" fill="#231815" p-id="2348"></path><path d="M531.986 792.405l-45.562 5.028 2.356 9.269c1.1 0.785 9.741 2.986 24.037 18.067 14.297 15.241 23.251 125.686 23.251 125.686l6.128 3.613-10.211-161.663z" fill="#F8CC98" p-id="2349"></path><path d="M591.217 706.309l-31.579 254.988-15.553 1.727-26.395-266.771z" fill="#F9DFB7" p-id="2350"></path><path d="M542.513 964.596l32.992 20.896-15.553-29.066z" fill="#231815" p-id="2351"></path><path d="M527.117 795.548l1.885 27.809c3.457-11.94 22.781-15.553 27.023-13.982 7.698 2.829 14.297 3.929 20.896 12.725l4.87-38.649-54.675 12.098z" fill="#F8CC98" p-id="2352"></path><path d="M479.67 796.334c6.284-14.297-29.379-68.342-20.738-106.519 8.797-38.177 135.744-47.604 141.398 0 5.498 47.604-27.023 93.793-15.868 104.948 10.997 11.155-111.233 16.025-104.791 1.571z" fill="#231815" p-id="2353"></path><path d="M463.644 514.008c3.298 18.853-19.010 61.745-19.010 61.745s10.526 29.851 20.266 43.833c-7.383 24.037-11.94 72.113-11.94 72.113s40.534 21.051 47.446 11.94c7.069-9.113 16.181-44.305 16.181-44.305s17.281 38.649 26.395 45.248c9.113 6.442 52.159-24.822 52.159-24.822s-23.724-41.319-33.621-63.629c12.412-13.197 25.923-36.293 25.923-36.293s-28.751-50.432-26.395-65.043c-10.839-12.412-85.94-13.356-97.407-0.785z" fill="#1FA2D6" p-id="2354"></path><path d="M480.926 531.134s10.526 43.676 32.051 54.517c18.067-6.128 31.421-46.19 31.421-46.19l-63.472-8.326z" fill="#FFFFFF" p-id="2355"></path><path d="M256.415 519.506c1.414-1.727 10.684-0.785 14.768-0.944-2.356-9.113-5.813-13.827-13.669-20.582-5.342-4.714-12.255-10.684-19.167-11.47-10.526-0.944-9.741 5.813-8.326 14.141 1.727 8.641 6.913 11.155 10.839 18.067l15.553 0.785z" fill="#F8CC98" p-id="2356"></path><path d="M523.346 605.132c0 5.813-4.556 10.37-10.211 10.37-5.813 0-10.37-4.556-10.37-10.37 0-5.655 4.556-10.37 10.37-10.37 5.655 0 10.211 4.714 10.211 10.37z" fill="#FFFFFF" p-id="2357"></path><path d="M563.095 619.898l-36.763 16.339 30.795 66.143c15.868-6.756 37.865-22.781 37.865-22.781s-21.051-36.763-31.893-59.699z" fill="#2386A5" p-id="2358"></path><path d="M529.473 629.012l49.803 106.835 51.532-39.591-43.205-92.853z" fill="#FCE09D" p-id="2359"></path><path d="M317.848 533.804c1.258-0.627 2.043-1.1 2.043-1.1 2.356-3.929 9.426-5.342 10.839-9.899 2.043-6.284-4.242-10.684-8.955-12.883-12.725-5.813-35.191-1.571-48.388-0.158-17.439 1.727-31.108 5.028-48.388 1.727-14.768-2.829-28.751-5.342-44.778-4.242-8.955 0.627-27.809 3.298-32.992 12.255-6.284 10.997 5.813 10.526 12.567 10.684 10.054 0.471 21.367 0.158 31.264 1.571 7.698 1.1 13.356 5.655 19.953 8.171 19.795 7.698 50.903 6.756 72.428 6.756 1.414 0 2.986-0.313 4.87-0.785 6.601 14.453 19.167 28.123 33.465 39.748l19.483-25.139c-10.211-8.171-19.010-17.597-23.41-26.707z" fill="#F9DFB7" p-id="2360"></path><path d="M584.933 647.395l-24.98 7.227 3.929 4.87h-0.313c-6.442 0-12.412 2.672-16.811 6.756l19.953 42.891c10.997-1.414 19.795-10.054 21.367-20.896l16.025-15.241-0.158-0.158c3.929-2.672 9.899-1.258 13.827-4.556l-15.868-34.72c-4.242 4.4-10.37 9.269-16.967 13.827z" fill="#F0B254" p-id="2361"></path><path d="M581.947 522.963c-25.139-20.582-110.29-11.94-129.616-1.727-10.526 5.655-21.21 19.795-37.706 42.733-6.756 9.269-18.067 25.765-23.724 31.579-10.997-4.556-25.923-26.707-43.676-41.319l-30.637 35.506c34.72 18.067 64.73 32.992 73.999 35.191 16.497 3.613 28.278-12.725 49.803-42.42 8.171-11.312 21.839-30.163 26.866-33.149 13.827-7.227 83.111-10.054 94.579-1.727 13.827 11.312 42.578 60.801 44.933 74.155-2.986 5.342-16.967 16.655-30.48 24.98l16.655 27.023c15.712-9.586 42.42-28.278 45.562-46.818 4.242-24.822-39.748-90.181-56.56-104.005z" fill="#1FA2D6" p-id="2362"></path><path d="M588.546 678.030c0 13.827-11.155 24.98-24.98 24.98-13.669 0-24.822-11.155-24.822-24.98 0-13.669 11.155-24.822 24.822-24.822 13.827 0 24.98 11.155 24.98 24.822z" fill="#F9DFB7" p-id="2363"></path><path d="M512.189 563.027l-59.858-23.881 29.379-38.335z" fill="#2386A5" p-id="2364"></path><path d="M559.952 648.335l27.651 34.094 16.655-15.712-19.483-25.765z" fill="#FFFFFF" p-id="2365"></path><path d="M512.189 564.441l-34.25-57.187 65.986 2.513z" fill="#F1CB97" p-id="2366"></path><path d="M512.189 563.027l-61.745-31.893 31.264-30.323z" fill="#FFFFFF" p-id="2367"></path><path d="M542.671 500.811l-30.637 63.316 53.731-20.582z" fill="#2386A5" p-id="2368"></path><path d="M542.671 500.811l-30.637 63.316 53.889-26.395z" fill="#FFFFFF" p-id="2369"></path><path d="M152.569 309.611c-2.672 45.562 34.094 75.569 57.815 76.825 23.724 1.414 44.462-23.251 46.19-54.989 1.727-31.893-21.839-69.126-45.562-70.542-23.724-1.414-56.087 3.142-58.444 48.703z" fill="#F9DFB7" p-id="2370"></path><path d="M181.476 315.893c-1.414 25.765 16.181 42.578 27.651 43.205 11.47 0.785 21.522-13.356 22.466-31.421 1.1-17.91-10.054-39.121-21.522-39.591-11.626-0.785-27.023 2.043-28.592 27.809z" fill="#E29A77" p-id="2371"></path><path d="M843.534 309.611c2.513 45.562-34.094 75.569-57.815 76.825-23.724 1.414-44.462-23.251-46.19-54.989-1.727-31.893 21.839-69.126 45.562-70.542 23.724-1.414 55.93 3.142 58.444 48.703z" fill="#F9DFB7" p-id="2372"></path><path d="M814.469 315.893c1.571 25.765-16.025 42.578-27.493 43.205-11.47 0.785-21.522-13.356-22.624-31.421-0.944-17.91 10.211-39.121 21.681-39.591 11.626-0.785 27.023 2.043 28.436 27.809z" fill="#E29A77" p-id="2373"></path><path d="M660.187 132.391c-73.214-62.058-242.261 33.621-328.671 4.714-8.326 1.727-54.989 47.763-85.152 89.238-18.067 24.822-23.724 54.517-23.724 54.517-22.781 110.133 50.275 235.821 275.099 243.677 56.087 2.043 147.998-13.827 201.413-54.989 27.493-21.21 70.542-53.889 74.627-139.984 10.054-78.239-25.139-153.966-113.59-197.171z" fill="#F9DFB7" p-id="2374"></path><path d="M364.352 374.496c-1.258 9.899-25.452 14.927-54.202 11.312-28.751-3.771-50.903-14.768-49.647-24.508 1.258-9.899 25.452-14.927 54.202-11.155 28.751 3.457 50.903 14.453 49.647 24.352M741.413 348.415c1.258 9.899-20.896 20.896-49.647 24.508s-52.945-1.414-54.202-11.312c-1.258-9.899 20.896-20.896 49.647-24.508 28.751-3.613 52.945 1.414 54.202 11.312M489.882 349.673s5.813 7.698 15.241 8.171c9.586 0.471 15.241-6.601 15.241-6.601l-16.181-29.694-14.297 28.123z" fill="#F8CC98" p-id="2375"></path><path d="M489.882 349.673l30.323 1.727-16.025-29.851z" fill="#F39E4F" p-id="2376"></path><path d="M298.523 277.716l-39.121-12.412 20.738 36.921z" fill="#A8562B" p-id="2377"></path><path d="M751.467 253.207c-31.421-86.882-118.773-93.166-145.169-129.929-70.857 68.183-360.094 137.785-360.094 137.785s-54.045 93.951 21.21 236.764c-142.027-210.527-6.913-396.7 190.259-424.036 85.152-11.782 220.267 9.586 273.526-6.756 1.571 9.113-7.069 22.937-40.534 42.42 22.466 11.47 66.3 55.616 87.353 131.501 19.010 67.557 21.367 160.88-47.29 271.955 40.848-77.14 43.205-197.799 20.738-259.701z" fill="#3E3E3F" p-id="2378"></path><path d="M358.539 306.939c-1.258 22.781-20.896 40.062-43.52 38.806-22.781-1.1-40.22-20.738-38.963-43.363 1.258-22.781 20.738-40.22 43.52-38.963 22.937 1.258 40.377 20.738 38.963 43.52z" fill="#A8562B" p-id="2379"></path><path d="M356.968 310.395s-12.567-12.098-20.425-13.356c-13.356-1.885-19.325-2.513-22.624 2.513-3.457 5.185-4.556 14.768 1.258 18.539 0 0 5.342 1.1 11.312 4.87 5.813 3.771 12.725 11.312 12.725 11.312 1.727 1.258 3.613 1.414 5.655 1.258 6.756-6.128 11.47-14.61 13.197-24.195-0.313-0.313-0.627-0.627-1.1-0.944z" fill="#FFFFFF" p-id="2380"></path><path d="M706.377 260.747l40.22-8.484-24.352 34.564z" fill="#A8562B" p-id="2381"></path><path d="M725.545 296.256c-1.258 22.624-20.738 40.22-43.52 38.963s-40.22-20.896-38.963-43.52c1.258-22.781 20.896-40.22 43.52-38.963 22.937 1.258 40.377 20.582 38.963 43.52z" fill="#A8562B" p-id="2382"></path><path d="M723.974 299.713s-12.567-12.098-20.266-13.356c-13.356-1.885-19.325-2.513-22.624 2.513-3.457 5.185-4.4 14.768 1.258 18.539 0 0 5.498 1.1 11.312 4.87 5.813 3.613 12.725 11.155 12.725 11.155 1.727 1.1 3.613 1.414 5.655 1.1 6.756-6.284 11.47-14.453 13.197-24.195-0.471 0-0.785-0.313-1.258-0.627M283.284 209.219l36.45-62.843-6.601 34.879 80.125-61.429-34.72 42.42 119.559-63.316-56.873 50.589 114.062-44.778-121.602 78.239 6.601-21.21-62.215 32.051 33.149-35.664-89.552 54.675 34.406-38.335z" fill="#FFFFFF" p-id="2383"></path><path d="M494.124 388.793l15.084-3.929 2.356 1.571 2.829-1.727 18.067 4.242-19.953 32.522z" fill="#E87391" p-id="2384"></path><path d="M495.537 389.578l35.191 0.158-17.439 23.881z" fill="#FFFFFF" p-id="2385"></path><path d="M659.087 207.331c-2.513 2.199 45.248 1.571 52.159 1.571 1.727-8.641-31.264-20.582-52.159-1.571z" fill="#F8CC98" p-id="2386"></path><path d="M659.56 202.933c-2.513 2.043 45.248 1.571 52.317 1.414 1.571-8.797-31.421-20.582-52.317-1.414z" fill="#A8562B" p-id="2387"></path><path d="M337.328 533.646l9.899 20.582-30.637 35.506-31.264-9.113z" fill="#FFFFFF" p-id="2388"></path></svg>