<?xml version="1.0" encoding="utf-8"?>
<!-- Generator: Adobe Illustrator 16.2.0, SVG Export Plug-In . SVG Version: 6.00 Build 0)  -->
<!DOCTYPE svg PUBLIC "-//W3C//DTD SVG 1.1//EN" "http://www.w3.org/Graphics/SVG/1.1/DTD/svg11.dtd">
<svg version="1.1" id="图层_1" xmlns="http://www.w3.org/2000/svg" xmlns:xlink="http://www.w3.org/1999/xlink" x="0px" y="0px"
	 width="64px" height="64px" viewBox="-4.5 -4.5 64 64" enable-background="new -4.5 -4.5 64 64" xml:space="preserve">
<g>
	<g>
		<g>
			<g>
				<polygon fill="#B4B4B4" points="5.528,6.27 5.032,6.27 5.032,5.031 6.271,5.031 6.271,5.527 5.528,5.527 				"/>
			</g>
			<g>
				<path fill="#B4B4B4" d="M51.697,5.527h-2.064V5.031h2.064V5.527z M47.568,5.527h-2.065V5.031h2.065V5.527z M43.438,5.527h-2.063
					V5.031h2.063V5.527z M39.309,5.527h-2.064V5.031h2.064V5.527z M35.18,5.527h-2.064V5.031h2.064V5.527z M31.049,5.527h-2.064
					V5.031h2.064V5.527z M26.92,5.527h-2.065V5.031h2.065V5.527z M22.79,5.527h-2.065V5.031h2.065V5.527z M18.661,5.527h-2.065
					V5.031h2.065V5.527z M14.531,5.527h-2.065V5.031h2.065V5.527z M10.401,5.527H8.336V5.031H10.4L10.401,5.527L10.401,5.527z"/>
			</g>
			<g>
				<polygon fill="#B4B4B4" points="55,5.527 53.762,5.527 53.762,5.031 54.505,5.031 54.505,4.288 55,4.288 				"/>
			</g>
			<g>
				<rect x="54.505" y="2.254" fill="#B4B4B4" width="0.495" height="1.017"/>
			</g>
			<g>
				<polygon fill="#B4B4B4" points="55,1.239 54.505,1.239 54.505,0.496 53.762,0.496 53.762,0 55,0 				"/>
			</g>
			<g>
				<path fill="#B4B4B4" d="M51.816,0.496h-1.945V0h1.945V0.496z M47.926,0.496H45.98V0h1.944L47.926,0.496L47.926,0.496z
					 M44.035,0.496h-1.946V0h1.946V0.496z M40.145,0.496h-1.945V0h1.945V0.496z M36.254,0.496h-1.945V0h1.945V0.496z M32.363,0.496
					h-1.945V0h1.945V0.496z M28.473,0.496h-1.946V0h1.946V0.496z M24.582,0.496h-1.945V0h1.945V0.496z M20.691,0.496h-1.945V0h1.945
					V0.496z M16.8,0.496h-1.945V0H16.8V0.496z M12.91,0.496h-1.946V0h1.946V0.496z M9.019,0.496H7.074V0h1.945V0.496z M5.129,0.496
					H3.183V0h1.946V0.496z"/>
			</g>
			<g>
				<polygon fill="#B4B4B4" points="0.496,1.239 0,1.239 0,0 1.239,0 1.239,0.496 0.496,0.496 				"/>
			</g>
			<g>
				<path fill="#B4B4B4" d="M0.496,51.816H0v-1.944h0.496V51.816z M0.496,47.927H0V45.98h0.496V47.927z M0.496,44.035H0V42.09h0.496
					V44.035z M0.496,40.145H0V38.2h0.496V40.145z M0.496,36.255H0v-1.944h0.496V36.255z M0.496,32.364H0v-1.945h0.496V32.364z
					 M0.496,28.473H0v-1.945h0.496V28.473z M0.496,24.582H0v-1.945h0.496V24.582z M0.496,20.692H0v-1.945h0.496V20.692z
					 M0.496,16.801H0v-1.946h0.496V16.801z M0.496,12.911H0v-1.945h0.496V12.911z M0.496,9.02H0V7.074h0.496V9.02z M0.496,5.129H0
					V3.184h0.496V5.129z"/>
			</g>
			<g>
				<polygon fill="#B4B4B4" points="1.239,55 0,55 0,53.762 0.496,53.762 0.496,54.505 1.239,54.505 				"/>
			</g>
			<g>
				<path fill="#B4B4B4" d="M51.816,55h-1.944v-0.495h1.944V55z M47.928,55H45.98v-0.495h1.945V55H47.928z M44.035,55H42.09v-0.495
					h1.945V55z M40.145,55H38.2v-0.495h1.944V55z M36.255,55h-1.944v-0.495h1.944V55z M32.363,55h-1.945v-0.495h1.945V55z
					 M28.473,55h-1.945v-0.495h1.945V55z M24.582,55h-1.945v-0.495h1.945V55z M20.692,55h-1.945v-0.495h1.945V55z M16.801,55h-1.946
					v-0.495h1.946V55z M12.911,55h-1.945v-0.495h1.945V55z M9.02,55H7.074v-0.495H9.02V55z M5.129,55H3.184v-0.495h1.945V55z"/>
			</g>
			<g>
				<polygon fill="#B4B4B4" points="55,55 53.762,55 53.762,54.505 54.505,54.505 54.505,53.762 55,53.762 				"/>
			</g>
			<g>
				<path fill="#B4B4B4" d="M55,51.714h-0.495v-2.048H55V51.714z M55,47.617h-0.495v-2.049H55V47.617z M55,43.521h-0.495v-2.049H55
					V43.521z M55,39.425h-0.495v-2.048H55V39.425z M55,35.329h-0.495v-2.05H55V35.329z M55,31.232h-0.495v-2.049H55V31.232z
					 M55,27.137h-0.495v-2.048H55V27.137z"/>
			</g>
			<g>
				<polygon fill="#B4B4B4" points="55,23.041 54.505,23.041 54.505,22.297 53.762,22.297 53.762,21.802 55,21.802 				"/>
			</g>
			<g>
				<rect x="51.729" y="21.802" fill="#B4B4B4" width="1.018" height="0.496"/>
			</g>
			<g>
				<polygon fill="#B4B4B4" points="49.971,23.041 49.475,23.041 49.475,21.802 50.713,21.802 50.713,22.297 49.971,22.297 				"/>
			</g>
			<g>
				<path fill="#B4B4B4" d="M49.971,46.755h-0.496v-1.978h0.496V46.755z M49.971,42.803h-0.496v-1.977h0.496V42.803z M49.971,38.85
					h-0.496v-1.976h0.496V38.85z M49.971,34.896h-0.496v-1.976h0.496V34.896z M49.971,30.945h-0.496v-1.978h0.496V30.945z
					 M49.971,26.993h-0.496v-1.976h0.496V26.993z"/>
			</g>
			<g>
				<polygon fill="#B4B4B4" points="49.971,49.969 48.73,49.969 48.73,49.473 49.475,49.473 49.475,48.729 49.971,48.729 				"/>
			</g>
			<g>
				<path fill="#B4B4B4" d="M46.709,49.969h-2.021v-0.496h2.021V49.969z M42.665,49.969h-2.021v-0.496h2.021V49.969z M38.621,49.969
					H36.6v-0.496h2.021V49.969z M34.577,49.969h-2.021v-0.496h2.021V49.969z M30.534,49.969h-2.022v-0.496h2.022V49.969z
					 M26.49,49.969h-2.022v-0.496h2.022V49.969z M22.446,49.969h-2.022v-0.496h2.022V49.969z M18.402,49.969H16.38v-0.496h2.022
					V49.969L18.402,49.969z M14.358,49.969h-2.022v-0.496h2.022V49.969z M10.314,49.969H8.293v-0.496h2.021V49.969z"/>
			</g>
			<g>
				<polygon fill="#B4B4B4" points="6.271,49.969 5.032,49.969 5.032,48.729 5.528,48.729 5.528,49.473 6.271,49.473 				"/>
			</g>
			<g>
				<path fill="#B4B4B4" d="M5.528,46.708H5.032v-2.021h0.496V46.708z M5.528,42.664H5.032v-2.021h0.496V42.664z M5.528,38.62H5.032
					V36.6h0.496V38.62z M5.528,34.576H5.032v-2.021h0.496V34.576z M5.528,30.533H5.032v-2.021h0.496V30.533z M5.528,26.489H5.032
					v-2.022h0.496V26.489z M5.528,22.445H5.032v-2.022h0.496V22.445z M5.528,18.401H5.032v-2.022h0.496V18.401z M5.528,14.357H5.032
					v-2.022h0.496V14.357z M5.528,10.313H5.032V8.292h0.496V10.313z"/>
			</g>
		</g>
	</g>
	<g>
		<g>
			<g>
				<polygon fill="#B4B4B4" points="52.732,52.73 2.269,52.73 2.269,2.269 54.752,2.269 54.752,3.259 3.259,3.259 3.259,51.74 
					51.741,51.74 51.741,24.352 52.732,24.352 				"/>
			</g>
			<g>
				<g>
					<circle fill="#B4B4B4" cx="52.236" cy="24.471" r="2.422"/>
				</g>
			</g>
		</g>
	</g>
</g>
</svg>
