<?xml version="1.0" encoding="utf-8"?>
<!-- Generator: Adobe Illustrator 16.2.0, SVG Export Plug-In . SVG Version: 6.00 Build 0)  -->
<!DOCTYPE svg PUBLIC "-//W3C//DTD SVG 1.1//EN" "http://www.w3.org/Graphics/SVG/1.1/DTD/svg11.dtd">
<svg version="1.1" id="图层_1" xmlns="http://www.w3.org/2000/svg" xmlns:xlink="http://www.w3.org/1999/xlink" x="0px" y="0px"
	 width="64px" height="64px" viewBox="-4.5 -4.5 64 64" enable-background="new -4.5 -4.5 64 64" xml:space="preserve">
<g>
	<g>
		<path fill="#B5B4B4" d="M54.5,0.501v53.998h-54V0.501H54.5 M55,0.001H0v54.998h55V0.001L55,0.001z"/>
	</g>
	<g>
		<g>
			<path fill="#B5B4B4" d="M36.164,35.702c-0.166,0-0.33-0.041-0.48-0.122c-0.32-0.176-0.52-0.512-0.52-0.878v-7.5
				c0-0.34,0.172-0.657,0.459-0.841l11.666-7.5c0.307-0.198,0.699-0.211,1.02-0.037c0.322,0.176,0.521,0.512,0.521,0.878v7.5
				c0,0.34-0.174,0.657-0.459,0.841l-11.668,7.5C36.539,35.648,36.352,35.702,36.164,35.702z M37.164,27.748v5.122l9.666-6.214
				v-5.122L37.164,27.748z"/>
		</g>
		<g>
			<path fill="#B5B4B4" d="M36.164,35.702H6.83c-0.553,0-1-0.447-1-1v-7.5c0-0.553,0.447-1,1-1h29.334c0.551,0,1,0.447,1,1v7.5
				C37.164,35.255,36.715,35.702,36.164,35.702z M7.83,33.702h27.334v-5.5H7.83V33.702z"/>
		</g>
		<g>
			<path fill="#B5B4B4" d="M36.164,28.202H6.83c-0.443,0-0.834-0.292-0.959-0.718c-0.125-0.426,0.045-0.884,0.418-1.123l11.666-7.5
				c0.162-0.104,0.35-0.159,0.541-0.159H47.83c0.443,0,0.834,0.292,0.959,0.718c0.125,0.426-0.045,0.884-0.418,1.123l-11.668,7.5
				C36.543,28.146,36.355,28.202,36.164,28.202z M10.234,26.202h25.635l8.557-5.5H18.789L10.234,26.202z"/>
		</g>
	</g>
</g>
</svg>
