<?xml version="1.0" encoding="utf-8"?>
<!-- Generator: Adobe Illustrator 16.2.0, SVG Export Plug-In . SVG Version: 6.00 Build 0)  -->
<!DOCTYPE svg PUBLIC "-//W3C//DTD SVG 1.1//EN" "http://www.w3.org/Graphics/SVG/1.1/DTD/svg11.dtd">
<svg version="1.1" id="图层_1" xmlns="http://www.w3.org/2000/svg" xmlns:xlink="http://www.w3.org/1999/xlink" x="0px" y="0px"
	 width="64px" height="64px" viewBox="-4.5 -4.5 64 64" enable-background="new -4.5 -4.5 64 64" xml:space="preserve">
<g>
	<g>
		<path fill="#B5B4B4" d="M54.5,0.5v54h-54v-54H54.5 M55,0H0v55h55V0L55,0z"/>
	</g>
	<g>
		<path fill="#B5B4B4" d="M27.5,48.438c-6.583,0-11.938-6.027-11.938-13.438V6.562h23.875V35
			C39.438,42.41,34.082,48.438,27.5,48.438z M17.438,8.438V35c0,6.375,4.514,11.563,10.063,11.563S37.563,41.375,37.563,35V8.438
			H17.438z"/>
	</g>
	<g>
		<path fill="#B5B4B4" d="M27.5,26.084c-4.303,0-7.803-3.5-7.803-7.803c0-4.303,3.5-7.804,7.803-7.804
			c4.303,0,7.803,3.501,7.803,7.804C35.303,22.584,31.803,26.084,27.5,26.084z M27.5,12.478c-3.199,0-5.803,2.604-5.803,5.804
			c0,3.199,2.604,5.803,5.803,5.803s5.803-2.604,5.803-5.803C33.303,15.081,30.699,12.478,27.5,12.478z"/>
	</g>
</g>
</svg>
