<?xml version="1.0" encoding="utf-8"?>
<!-- Generator: Adobe Illustrator 16.2.0, SVG Export Plug-In . SVG Version: 6.00 Build 0)  -->
<!DOCTYPE svg PUBLIC "-//W3C//DTD SVG 1.1//EN" "http://www.w3.org/Graphics/SVG/1.1/DTD/svg11.dtd">
<svg version="1.1" id="图层_1" xmlns="http://www.w3.org/2000/svg" xmlns:xlink="http://www.w3.org/1999/xlink" x="0px" y="0px"
	 width="64px" height="64px" viewBox="0 0 64 64" enable-background="new 0 0 64 64" xml:space="preserve">
<g>
	<path fill="#B5B4B4" d="M59,5.001v53.998H5V5.001H59 M59.5,4.501h-55v54.998h55V4.501L59.5,4.501z"/>
</g>
<g>
	<path fill="#B4B4B4" d="M45.482,50.5c-1.725,0-3.074-1.757-3.074-4V21.647c0-1.103-0.898-2-2-2H23.593c-1.104,0-2,0.897-2,2v20.705
		c0,1.103,0.896,2,2,2h8.518c1.104,0,2-0.897,2-2V30.721c0-1.103-0.773-2-1.723-2c-0.949,0-1.722,0.897-1.722,2v6.444
		c0,2.243-1.351,4-3.073,4c-1.725,0-3.074-1.757-3.074-4V25.647c0-1.695,1.379-3.074,3.074-3.074h9.592
		c1.695,0,3.074,1.379,3.074,3.074v21.779c0,1.694-1.379,3.073-3.074,3.073H18.519c-1.695,0-3.074-1.379-3.074-3.073V16.573
		c0-1.694,1.379-3.073,3.074-3.073h26.964c1.695,0,3.074,1.379,3.074,3.073V46.5C48.557,48.743,47.205,50.5,45.482,50.5z
		 M23.593,17.647h16.815c2.205,0,4,1.794,4,4V46.5c0,1.126,0.576,2,1.074,2c0.496,0,1.074-0.874,1.074-2V16.573
		c0-0.592-0.482-1.073-1.074-1.073H18.519c-0.592,0-1.074,0.481-1.074,1.073v30.854c0,0.592,0.482,1.073,1.074,1.073h18.667
		c0.592,0,1.074-0.481,1.074-1.073V25.647c0-0.593-0.482-1.074-1.074-1.074h-9.592c-0.593,0-1.074,0.481-1.074,1.074v11.518
		c0,1.126,0.577,2,1.074,2c0.496,0,1.073-0.874,1.073-2v-6.444c0-2.206,1.67-4,3.722-4c2.053,0,3.723,1.794,3.723,4v11.632
		c0,2.206-1.795,4-4,4h-8.518c-2.206,0-4-1.794-4-4V21.647C19.593,19.441,21.387,17.647,23.593,17.647z"/>
</g>
</svg>
