<?xml version="1.0" encoding="utf-8"?>
<!-- Generator: Adobe Illustrator 16.2.0, SVG Export Plug-In . SVG Version: 6.00 Build 0)  -->
<!DOCTYPE svg PUBLIC "-//W3C//DTD SVG 1.1//EN" "http://www.w3.org/Graphics/SVG/1.1/DTD/svg11.dtd">
<svg version="1.1" id="图层_1" xmlns="http://www.w3.org/2000/svg" xmlns:xlink="http://www.w3.org/1999/xlink" x="0px" y="0px"
	 width="64px" height="64px" viewBox="-4.5 -4.5 64 64" enable-background="new -4.5 -4.5 64 64" xml:space="preserve">
<g>
	<g>
		<path fill="#B5B4B4" d="M54.5,0.502v53.996h-54V0.502H54.5 M55,0.002H0v54.996h55V0.002L55,0.002z"/>
	</g>
	<g>
		<g>
			<polyline fill="#B5B4B4" points="55,31.75 55,33.25 43.533,33.25 43.533,21.75 55,21.75 55,23.25 			"/>
		</g>
		<g>
			<polyline fill="#B5B4B4" points="0,23.25 0,21.75 11.467,21.75 11.467,33.25 0,33.25 0,31.75 			"/>
		</g>
		<g>
			<g>
				<path fill="#B5B4B4" d="M44.936,26.584H9.967V21.75h34.969V26.584z M11.467,25.084h31.969V23.25H11.467V25.084z"/>
			</g>
			<g>
				<path fill="#B5B4B4" d="M44.936,33.25H9.967v-4.832h34.969V33.25z M11.467,31.75h31.969v-1.832H11.467V31.75z"/>
			</g>
			<g>
				<path fill="#B5B4B4" d="M28.201,29.918H9.967v-4.834h18.234V29.918z M11.467,28.418h15.234v-1.834H11.467V28.418z"/>
			</g>
			<g>
				<path fill="#B5B4B4" d="M44.936,29.918H26.701v-4.834h18.234V29.918L44.936,29.918z M28.201,28.418h15.234v-1.834H28.201V28.418
					z"/>
			</g>
		</g>
	</g>
</g>
</svg>
