<?xml version="1.0" encoding="utf-8"?>
<!-- Generator: Adobe Illustrator 16.2.0, SVG Export Plug-In . SVG Version: 6.00 Build 0)  -->
<!DOCTYPE svg PUBLIC "-//W3C//DTD SVG 1.1//EN" "http://www.w3.org/Graphics/SVG/1.1/DTD/svg11.dtd">
<svg version="1.1" id="图层_1" xmlns="http://www.w3.org/2000/svg" xmlns:xlink="http://www.w3.org/1999/xlink" x="0px" y="0px"
	 width="64px" height="64px" viewBox="-4.5 -4.5 64 64" enable-background="new -4.5 -4.5 64 64" xml:space="preserve">
<g>
	<path fill="#B5B4B4" d="M54.5,0.5v54h-54v-54H54.5 M55,0H0v55h55V0L55,0z"/>
</g>
<g>
	<path fill="#B5B4B4" d="M27.5,39.5c-6.617,0-12-5.383-12-12s5.383-12,12-12c6.616,0,12,5.383,12,12S34.116,39.5,27.5,39.5z
		 M27.5,17.5c-5.515,0-10,4.486-10,10c0,5.514,4.485,10,10,10c5.514,0,10-4.486,10-10C37.5,21.986,33.014,17.5,27.5,17.5z"/>
</g>
</svg>
