<?xml version="1.0" encoding="utf-8"?>
<!-- Generator: Adobe Illustrator 16.2.0, SVG Export Plug-In . SVG Version: 6.00 Build 0)  -->
<!DOCTYPE svg PUBLIC "-//W3C//DTD SVG 1.1//EN" "http://www.w3.org/Graphics/SVG/1.1/DTD/svg11.dtd">
<svg version="1.1" id="图层_1" xmlns="http://www.w3.org/2000/svg" xmlns:xlink="http://www.w3.org/1999/xlink" x="0px" y="0px"
	 width="64px" height="64px" viewBox="0 0 64 64" enable-background="new 0 0 64 64" xml:space="preserve">
<rect x="4.5" y="4.5" fill="none" stroke="#B4B4B4" stroke-width="0.5" stroke-miterlimit="10" width="55" height="55"/>
<g>
	<path fill="#B4B4B4" stroke="#B4B4B4" stroke-width="0.25" stroke-miterlimit="10" d="M23.928,21.559"/>
</g>
<polygon fill="none" stroke="#B4B4B4" stroke-width="0.5" stroke-miterlimit="10" points="26.042,16.78 44.5,16.78 44.5,13.321
				22.417,13.321 22.417,53.198 26.042,53.198 			"/>
				<path fill="none" stroke="#B4B4B4" stroke-width="2" stroke-miterlimit="10" d="M43.261,44.081c0,4.465-3.619,8.084-8.083,8.084
					l0,0c-4.465,0-8.084-3.619-8.084-8.084l0,0c0-4.465,3.619-8.084,8.084-8.084l0,0C39.642,35.997,43.261,39.616,43.261,44.081
					L43.261,44.081z"/>
				<path fill="none" stroke="#B4B4B4" stroke-width="2" stroke-miterlimit="10" d="M43.261,25.923c0,4.463-3.619,8.082-8.083,8.082
					l0,0c-4.465,0-8.084-3.619-8.084-8.082l0,0c0-4.465,3.619-8.084,8.084-8.084l0,0C39.642,17.839,43.261,21.458,43.261,25.923
					L43.261,25.923z"/>
					<line fill="none" stroke="#B4B4B4" stroke-width="0.5" stroke-miterlimit="10" x1="44.5" y1="53.386" x2="44.5" y2="16.78"/>

						<line fill="none" stroke="#B4B4B4" stroke-width="0.5" stroke-miterlimit="10" x1="25.635" y1="13.321" x2="22.417" y2="16.415"/>

						<line fill="none" stroke="#B4B4B4" stroke-width="0.5" stroke-miterlimit="10" x1="26.994" y1="13.321" x2="22.417" y2="17.722"/>

						<line fill="none" stroke="#B4B4B4" stroke-width="0.5" stroke-miterlimit="10" x1="28.484" y1="13.321" x2="22.417" y2="19.153"/>

						<line fill="none" stroke="#B4B4B4" stroke-width="0.5" stroke-miterlimit="10" x1="30.215" y1="13.282" x2="26.67" y2="16.78"/>

						<line fill="none" stroke="#B4B4B4" stroke-width="0.5" stroke-miterlimit="10" x1="31.759" y1="13.282" x2="28.213" y2="16.78"/>

						<line fill="none" stroke="#B4B4B4" stroke-width="0.5" stroke-miterlimit="10" x1="33.417" y1="13.304" x2="29.871" y2="16.802"/>

						<line fill="none" stroke="#B4B4B4" stroke-width="0.5" stroke-miterlimit="10" x1="34.979" y1="13.282" x2="31.434" y2="16.78"/>

						<line fill="none" stroke="#B4B4B4" stroke-width="0.5" stroke-miterlimit="10" x1="36.389" y1="13.282" x2="32.844" y2="16.78"/>

						<line fill="none" stroke="#B4B4B4" stroke-width="0.5" stroke-miterlimit="10" x1="37.933" y1="13.282" x2="34.388" y2="16.78"/>

						<line fill="none" stroke="#B4B4B4" stroke-width="0.5" stroke-miterlimit="10" x1="39.477" y1="13.282" x2="35.931" y2="16.78"/>

						<line fill="none" stroke="#B4B4B4" stroke-width="0.5" stroke-miterlimit="10" x1="41.153" y1="13.28" x2="37.608" y2="16.778"/>

						<line fill="none" stroke="#B4B4B4" stroke-width="0.5" stroke-miterlimit="10" x1="42.564" y1="13.304" x2="39.018" y2="16.802"/>

						<line fill="none" stroke="#B4B4B4" stroke-width="0.5" stroke-miterlimit="10" x1="44.107" y1="13.282" x2="40.562" y2="16.78"/>

						<line fill="none" stroke="#B4B4B4" stroke-width="0.5" stroke-miterlimit="10" x1="26.042" y1="17.187" x2="22.417" y2="20.743"/>

						<line fill="none" stroke="#B4B4B4" stroke-width="0.5" stroke-miterlimit="10" x1="26.042" y1="18.489" x2="22.417" y2="22.046"/>

						<line fill="none" stroke="#B4B4B4" stroke-width="0.5" stroke-miterlimit="10" x1="26.042" y1="19.794" x2="22.417" y2="23.351"/>

						<line fill="none" stroke="#B4B4B4" stroke-width="0.5" stroke-miterlimit="10" x1="26.042" y1="21.099" x2="22.417" y2="24.655"/>

						<line fill="none" stroke="#B4B4B4" stroke-width="0.5" stroke-miterlimit="10" x1="26.042" y1="22.401" x2="22.417" y2="25.958"/>

						<line fill="none" stroke="#B4B4B4" stroke-width="0.5" stroke-miterlimit="10" x1="26.042" y1="23.706" x2="22.417" y2="27.263"/>

						<line fill="none" stroke="#B4B4B4" stroke-width="0.5" stroke-miterlimit="10" x1="26.042" y1="25.009" x2="22.417" y2="28.565"/>

						<line fill="none" stroke="#B4B4B4" stroke-width="0.5" stroke-miterlimit="10" x1="26.042" y1="26.313" x2="22.417" y2="29.87"/>

						<line fill="none" stroke="#B4B4B4" stroke-width="0.5" stroke-miterlimit="10" x1="26.042" y1="27.618" x2="22.417" y2="31.175"/>

						<line fill="none" stroke="#B4B4B4" stroke-width="0.5" stroke-miterlimit="10" x1="26.042" y1="28.921" x2="22.417" y2="32.478"/>

						<line fill="none" stroke="#B4B4B4" stroke-width="0.5" stroke-miterlimit="10" x1="26.042" y1="30.226" x2="22.417" y2="33.782"/>

						<line fill="none" stroke="#B4B4B4" stroke-width="0.5" stroke-miterlimit="10" x1="26.042" y1="31.53" x2="22.417" y2="35.087"/>

						<line fill="none" stroke="#B4B4B4" stroke-width="0.5" stroke-miterlimit="10" x1="26.042" y1="32.833" x2="22.417" y2="36.39"/>

						<line fill="none" stroke="#B4B4B4" stroke-width="0.5" stroke-miterlimit="10" x1="26.042" y1="34.138" x2="22.417" y2="37.694"/>

						<line fill="none" stroke="#B4B4B4" stroke-width="0.5" stroke-miterlimit="10" x1="26.042" y1="35.44" x2="22.417" y2="38.997"/>

						<line fill="none" stroke="#B4B4B4" stroke-width="0.5" stroke-miterlimit="10" x1="26.042" y1="36.745" x2="22.417" y2="40.302"/>

						<line fill="none" stroke="#B4B4B4" stroke-width="0.5" stroke-miterlimit="10" x1="26.042" y1="38.05" x2="22.417" y2="41.606"/>

						<line fill="none" stroke="#B4B4B4" stroke-width="0.5" stroke-miterlimit="10" x1="26.042" y1="39.353" x2="22.417" y2="42.909"/>

						<line fill="none" stroke="#B4B4B4" stroke-width="0.5" stroke-miterlimit="10" x1="26.042" y1="40.657" x2="22.417" y2="44.214"/>

						<line fill="none" stroke="#B4B4B4" stroke-width="0.5" stroke-miterlimit="10" x1="26.042" y1="41.962" x2="22.417" y2="45.519"/>

						<line fill="none" stroke="#B4B4B4" stroke-width="0.5" stroke-miterlimit="10" x1="26.042" y1="43.265" x2="22.417" y2="46.821"/>

						<line fill="none" stroke="#B4B4B4" stroke-width="0.5" stroke-miterlimit="10" x1="26.042" y1="44.569" x2="22.417" y2="48.126"/>

						<line fill="none" stroke="#B4B4B4" stroke-width="0.5" stroke-miterlimit="10" x1="26.042" y1="45.872" x2="22.417" y2="49.429"/>

						<line fill="none" stroke="#B4B4B4" stroke-width="0.5" stroke-miterlimit="10" x1="26.042" y1="47.177" x2="22.417" y2="50.733"/>

						<line fill="none" stroke="#B4B4B4" stroke-width="0.5" stroke-miterlimit="10" x1="26.042" y1="48.481" x2="22.417" y2="52.038"/>

						<line fill="none" stroke="#B4B4B4" stroke-width="0.5" stroke-miterlimit="10" x1="44.5" y1="14.569" x2="42.239" y2="16.802"/>

						<line fill="none" stroke="#B4B4B4" stroke-width="0.5" stroke-miterlimit="10" x1="23.931" y1="13.282" x2="22.468" y2="14.728"/>

						<line fill="none" stroke="#B4B4B4" stroke-width="0.5" stroke-miterlimit="10" x1="26.096" y1="51.231" x2="24.045" y2="53.243"/>
</svg>
