<?xml version="1.0" encoding="utf-8"?>
<!-- Generator: Adobe Illustrator 16.2.0, SVG Export Plug-In . SVG Version: 6.00 Build 0)  -->
<!DOCTYPE svg PUBLIC "-//W3C//DTD SVG 1.1//EN" "http://www.w3.org/Graphics/SVG/1.1/DTD/svg11.dtd">
<svg version="1.1" id="图层_1" xmlns="http://www.w3.org/2000/svg" xmlns:xlink="http://www.w3.org/1999/xlink" x="0px" y="0px"
	 width="64px" height="64px" viewBox="-4.5 -4.5 64 64" enable-background="new -4.5 -4.5 64 64" xml:space="preserve">
<g>
	<g>
		<path fill="#B5B4B4" d="M54.5,0.501v53.998h-54V0.501H54.5 M55,0.001H0v54.998h55V0.001L55,0.001z"/>
	</g>
	<rect x="7.5" y="17.499" fill="#B5B4B4" width="40" height="20"/>
	<g>
		<g>
			<path fill="#2D3237" d="M40.672,27.202h-2v-1h2V27.202z M36.672,27.202h-2v-1h2V27.202z M32.672,27.202h-2v-1h2V27.202z
				 M28.672,27.202h-2v-1h2V27.202z M24.672,27.202h-2v-1h2V27.202z M20.672,27.202h-2v-1h2V27.202z M16.672,27.202h-2v-1h2V27.202z
				 M12.672,27.202h-2v-1h2V27.202z"/>
		</g>
		<g>
			<g>
				<circle fill="#2D3237" cx="40.551" cy="26.702" r="2.443"/>
			</g>
		</g>
	</g>
</g>
</svg>
