<?xml version="1.0" encoding="utf-8"?>
<!-- Generator: Adobe Illustrator 16.0.0, SVG Export Plug-In . SVG Version: 6.00 Build 0)  -->
<!DOCTYPE svg PUBLIC "-//W3C//DTD SVG 1.1//EN" "http://www.w3.org/Graphics/SVG/1.1/DTD/svg11.dtd">
<svg version="1.1" xmlns="http://www.w3.org/2000/svg" xmlns:xlink="http://www.w3.org/1999/xlink" x="0px" y="0px"
	 width="64px" height="64px" viewBox="-4.5 -4.5 64 64" enable-background="new -4.5 -4.5 64 64" xml:space="preserve">
<g id="图层_1">
	<g>
		<path fill="#B5B4B4" d="M54.5,0.502v53.996h-54V0.502H54.5 M55,0.002H0v54.996h55V0.002L55,0.002z"/>
	</g>
	<g>
		<polyline fill="#B4B4B4" points="39.337,54.128 39.337,55.644 28.275,55.644 28.275,44.025 39.337,44.025 39.337,45.541 		"/>
	</g>
	<g>
		<polyline fill="#B4B4B4" points="0.337,18.135 0.337,16.646 11.375,16.646 11.375,28.063 0.337,28.063 0.337,26.573 		"/>
	</g>
	<g>
		<g>
			<g>
				<g>
					<polygon fill="#B4B4B4" points="43.798,44.063 37.126,44.063 37.126,45.453 45.249,45.453 45.201,9.191 9.889,9.191 
						9.889,16.775 11.405,16.775 11.405,10.33 43.798,10.33 					"/>
					<polygon fill="#B4B4B4" points="6.625,6.237 6.625,16.775 8.125,16.775 8.125,7.623 47.013,7.623 47.013,46.817 37.126,46.817 
						37.126,48.303 48.5,48.303 48.5,6.237 					"/>
				</g>
			</g>
		</g>
	</g>
	<polyline fill="none" stroke="#B4B4B4" stroke-width="1.5" stroke-miterlimit="10" points="10.688,27.332 29.167,27.332 
		29.167,44.229 	"/>
</g>
<g id="视觉标注" display="none">
</g>
<g id="布局标注" display="none">
</g>
</svg>
