<?xml version="1.0" encoding="utf-8"?>
<!-- Generator: Adobe Illustrator 16.0.0, SVG Export Plug-In . SVG Version: 6.00 Build 0)  -->
<!DOCTYPE svg PUBLIC "-//W3C//DTD SVG 1.1//EN" "http://www.w3.org/Graphics/SVG/1.1/DTD/svg11.dtd">
<svg version="1.1" xmlns="http://www.w3.org/2000/svg" xmlns:xlink="http://www.w3.org/1999/xlink" x="0px" y="0px"
	 width="64px" height="64px" viewBox="-4.5 -4.5 64 64" enable-background="new -4.5 -4.5 64 64" xml:space="preserve">
<g id="图层_1">
	<g>
		<path fill="#B5B4B4" d="M54.5,0.502v53.996h-54V0.502H54.5 M55,0.002H0v54.996h55V0.002L55,0.002z"/>
	</g>
	<g>
		<polyline fill="#B4B4B4" points="39,53.481 39,54.997 27.938,54.997 27.938,43.379 39,43.379 39,44.895 		"/>
	</g>
	<g>
		<polyline fill="#B4B4B4" points="0,17.488 0,15.999 11.038,15.999 11.038,27.416 0,27.416 0,25.927 		"/>
	</g>
	<polyline fill="none" stroke="#B4B4B4" stroke-width="1.5" stroke-miterlimit="10" points="11.805,21.955 33.746,21.955 
		33.746,44.853 	"/>
	<polygon fill="none" stroke="#B4B4B4" stroke-width="1.5" stroke-miterlimit="10" points="11.496,16.705 38.246,16.705 
		38.246,43.583 28.662,43.583 28.672,26.673 11.461,26.663 	"/>
</g>
<g id="视觉标注" display="none">
</g>
<g id="布局标注" display="none">
</g>
</svg>
