<?xml version="1.0" encoding="utf-8"?>
<!-- Generator: Adobe Illustrator 17.1.0, SVG Export Plug-In . SVG Version: 6.00 Build 0)  -->
<!DOCTYPE svg PUBLIC "-//W3C//DTD SVG 1.1//EN" "http://www.w3.org/Graphics/SVG/1.1/DTD/svg11.dtd">
<svg version="1.1" id="图层_1" xmlns="http://www.w3.org/2000/svg" xmlns:xlink="http://www.w3.org/1999/xlink" x="0px" y="0px"
	 viewBox="0 0 64 64" enable-background="new 0 0 64 64" xml:space="preserve">
<g>
	<path fill="#B5B4B4" d="M59,5v54H5V5H59 M59.5,4.5h-55v55h55V4.5L59.5,4.5z"/>
</g>
<g>
	<g>
		<path fill="#B4B4B4" d="M55,38.7H9c-0.5,0-0.9-0.4-0.9-0.9v-3.5c0-0.5,0.4-0.9,0.9-0.9H55c0.5,0,0.9,0.4,0.9,0.9v3.5
			C55.8,38.3,55.4,38.7,55,38.7z M9.9,36.9h44.2v-1.7H9.9V36.9z"/>
	</g>
	<g>
		<path fill="#B4B4B4" d="M55,35.2H9c-0.3,0-0.6-0.2-0.8-0.5c-0.2-0.3-0.1-0.6,0-0.9l5.2-8.1c0.2-0.2,0.4-0.4,0.7-0.4h35.5
			c0.3,0,0.6,0.2,0.7,0.4l5.2,8.1c0.2,0.3,0.2,0.6,0,0.9C55.6,35,55.3,35.2,55,35.2z M10.6,33.5h42.8l-4.1-6.4H14.7L10.6,33.5z"/>
	</g>
</g>
</svg>
