<?xml version="1.0" encoding="utf-8"?>
<!-- Generator: Adobe Illustrator 16.2.0, SVG Export Plug-In . SVG Version: 6.00 Build 0)  -->
<!DOCTYPE svg PUBLIC "-//W3C//DTD SVG 1.1//EN" "http://www.w3.org/Graphics/SVG/1.1/DTD/svg11.dtd">
<svg version="1.1" id="图层_1" xmlns="http://www.w3.org/2000/svg" xmlns:xlink="http://www.w3.org/1999/xlink" x="0px" y="0px"
	 width="64px" height="64px" viewBox="-4.5 -4.5 64 64" enable-background="new -4.5 -4.5 64 64" xml:space="preserve">
<g>
	<g>
		<path fill="#B5B4B4" d="M54.5,0.502v53.996h-54V0.502H54.5 M55,0.002H0v54.996h55V0.002L55,0.002z"/>
	</g>
	<g>
		<g>
			<polyline fill="#B5B4B4" points="55,31.75 55,33.25 43.534,33.25 43.534,21.75 55,21.75 55,23.25 			"/>
		</g>
		<g>
			<polyline fill="#B5B4B4" points="0,23.25 0,21.75 11.465,21.75 11.465,33.25 0,33.25 0,31.75 			"/>
		</g>
		<g>
			<g>
				<path fill="#B5B4B4" d="M29.082,28.25H9.964v-4.789h19.118V28.25z M11.464,26.75h16.118v-1.789H11.464V26.75z"/>
			</g>
			<g>
				<path fill="#B5B4B4" d="M44.586,31.539H25.468V26.75h19.118V31.539z M26.968,30.039h16.118V28.25H26.968V30.039z"/>
			</g>
		</g>
	</g>
</g>
</svg>
