<?xml version="1.0" encoding="utf-8"?>
<!-- Generator: Adobe Illustrator 16.2.0, SVG Export Plug-In . SVG Version: 6.00 Build 0)  -->
<!DOCTYPE svg PUBLIC "-//W3C//DTD SVG 1.1//EN" "http://www.w3.org/Graphics/SVG/1.1/DTD/svg11.dtd">
<svg version="1.1" id="图层_1" xmlns="http://www.w3.org/2000/svg" xmlns:xlink="http://www.w3.org/1999/xlink" x="0px" y="0px"
	 width="64px" height="64px" viewBox="-4.5 -4.5 64 64" enable-background="new -4.5 -4.5 64 64" xml:space="preserve">
<g>
	<g>
		<path fill="#B5B4B4" d="M54.5,0.502v53.996h-54V0.502H54.5 M55,0.002H0v54.996h55V0.002L55,0.002z"/>
	</g>
	<g>
		<g>
			<g>
				<rect x="10.48" y="31.75" fill="#B5B4B4" width="34.366" height="1.5"/>
			</g>
			<g>
				<polyline fill="#B5B4B4" points="55,31.75 55,33.25 43.77,33.25 43.77,21.75 55,21.75 55,23.25 				"/>
			</g>
			<g>
				<polyline fill="#B5B4B4" points="0,23.25 0,21.75 11.23,21.75 11.23,33.25 0,33.25 0,31.75 				"/>
			</g>
		</g>
		<g>
			<path fill="#B5B4B4" d="M47.9,23.252h-4.129V10.256H11.23v12.996H7.1V6.102h40.8V23.252z M45.271,21.752H46.4V7.602H8.6v14.15
				h1.13V8.756h35.542V21.752z"/>
		</g>
	</g>
</g>
</svg>
