<?xml version="1.0" encoding="utf-8"?>
<!-- Generator: Adobe Illustrator 16.2.0, SVG Export Plug-In . SVG Version: 6.00 Build 0)  -->
<!DOCTYPE svg PUBLIC "-//W3C//DTD SVG 1.1//EN" "http://www.w3.org/Graphics/SVG/1.1/DTD/svg11.dtd">
<svg version="1.1" id="图层_1" xmlns="http://www.w3.org/2000/svg" xmlns:xlink="http://www.w3.org/1999/xlink" x="0px" y="0px"
	 width="64px" height="64px" viewBox="-4.5 -4.5 64 64" enable-background="new -4.5 -4.5 64 64" xml:space="preserve">
<g>
	<g>
		<path fill="#B5B4B4" d="M54.499,0.501v53.998H0.5V0.501H54.499 M54.999,0.001H0v54.998h54.999V0.001L54.999,0.001z"/>
	</g>
	<g>
		<path fill="#B5B4B4" d="M47.5,21.749h-2v-0.5h2V21.749z M43.5,21.749h-2v-0.5h2V21.749z M39.5,21.749h-2v-0.5h2V21.749z
			 M35.5,21.749h-2v-0.5h2V21.749z M31.5,21.749h-2v-0.5h2V21.749z M27.5,21.749h-2v-0.5h2V21.749z M23.5,21.749h-2v-0.5h2V21.749z
			 M19.5,21.749h-2v-0.5h2V21.749z M15.5,21.749h-2v-0.5h2V21.749z M11.5,21.749h-2v-0.5h2V21.749z"/>
	</g>
	<g>
		<path fill="#B5B4B4" d="M45.5,33.749h-2v-0.5h2V33.749z M41.5,33.749h-2v-0.5h2V33.749z M37.5,33.749h-2v-0.5h2V33.749z
			 M33.5,33.749h-2v-0.5h2V33.749z M29.5,33.749h-2v-0.5h2V33.749z M25.5,33.749h-2v-0.5h2V33.749z M21.5,33.749h-2v-0.5h2V33.749z
			 M17.5,33.749h-2v-0.5h2V33.749z M13.5,33.749h-2v-0.5h2V33.749z M9.5,33.749h-2v-0.5h2V33.749z"/>
	</g>
	<g>
		<polygon fill="#B5B4B4" points="50,21.499 52.5,21.499 55,21.499 55,33.499 52.5,33.499 50,33.499 47.5,33.499 47.5,21.499 		"/>
	</g>
	<g>
		<polygon fill="#B5B4B4" points="2.5,21.499 5,21.499 7.5,21.499 7.5,33.499 5,33.499 2.5,33.499 0,33.499 0,21.499 		"/>
	</g>
</g>
</svg>
