<?xml version="1.0" encoding="utf-8"?>
<!-- Generator: Adobe Illustrator 16.2.0, SVG Export Plug-In . SVG Version: 6.00 Build 0)  -->
<!DOCTYPE svg PUBLIC "-//W3C//DTD SVG 1.1//EN" "http://www.w3.org/Graphics/SVG/1.1/DTD/svg11.dtd">
<svg version="1.1" id="图层_1" xmlns="http://www.w3.org/2000/svg" xmlns:xlink="http://www.w3.org/1999/xlink" x="0px" y="0px"
	 width="64px" height="64px" viewBox="-4.5 -4.5 64 64" enable-background="new -4.5 -4.5 64 64" xml:space="preserve">
<path fill="#B5B4B4" d="M54.5,0.501v53.998h-54V0.501H54.5 M55,0.001H0v54.998h55V0.001L55,0.001z"/>
<g>
	<path fill="#B4B4B4" stroke="#B4B4B4" stroke-width="0.25" stroke-miterlimit="10" d="M23.928,21.559"/>
</g>
<path fill="none" stroke="#B4B4B4" stroke-miterlimit="10" d="M27.766,39.233c-6.256,0-11.344-5.089-11.344-11.345
			c0-6.255,5.088-11.344,11.344-11.344c6.255,0,11.344,5.089,11.344,11.344C39.11,34.145,34.021,39.233,27.766,39.233z
			 M27.766,18.436c-5.213,0-9.453,4.241-9.453,9.453c0,5.213,4.24,9.454,9.453,9.454c5.212,0,9.453-4.241,9.453-9.454
			C37.219,22.677,32.978,18.436,27.766,18.436z"/>
</svg>
