<?xml version="1.0" encoding="utf-8"?>
<!-- Generator: Adobe Illustrator 16.2.0, SVG Export Plug-In . SVG Version: 6.00 Build 0)  -->
<!DOCTYPE svg PUBLIC "-//W3C//DTD SVG 1.1//EN" "http://www.w3.org/Graphics/SVG/1.1/DTD/svg11.dtd">
<svg version="1.1" id="图层_1" xmlns="http://www.w3.org/2000/svg" xmlns:xlink="http://www.w3.org/1999/xlink" x="0px" y="0px"
	 width="64px" height="64px" viewBox="-4.5 -4.5 64 64" enable-background="new -4.5 -4.5 64 64" xml:space="preserve">
<g>
	<g>
		<path fill="#B5B4B4" d="M54.5,0.501v53.998H0.501V0.501H54.5 M55,0.001H0.001v54.998H55V0.001L55,0.001z"/>
	</g>
	<g>
		<g>
			<polyline fill="#B5B4B4" points="0,40.965 0,39.465 11.465,39.465 11.465,50.965 0,50.965 0,49.465 			"/>
		</g>
		<g>
			<polyline fill="#B5B4B4" points="55,49.465 55,50.965 43.535,50.965 43.535,39.465 55,39.465 55,40.965 			"/>
		</g>
		<g>
			<path fill="#B5B4B4" d="M45.035,43.68H40.82V8.608h4.215V43.68z M42.32,42.18h1.215V10.108H42.32V42.18z"/>
		</g>
		<g>
			<g>
				<path fill="#B5B4B4" d="M40.588,9.874l-0.031-1c0.336-0.011,0.676-0.016,1.016-0.016v1C41.242,9.858,40.914,9.863,40.588,9.874z
					"/>
			</g>
			<g>
				<path fill="#B5B4B4" d="M11.36,37.221l-0.995-0.098c0.067-0.686,0.156-1.363,0.267-2.034l0.986,0.162
					C11.512,35.9,11.426,36.557,11.36,37.221z M12.005,33.303l-0.974-0.227c0.154-0.662,0.332-1.329,0.53-1.982l0.957,0.291
					C12.327,32.016,12.154,32.661,12.005,33.303z M13.157,29.506l-0.936-0.352c0.239-0.639,0.504-1.274,0.785-1.896l0.91,0.414
					C13.645,28.273,13.39,28.891,13.157,29.506z M14.798,25.895l-0.882-0.473c0.319-0.595,0.664-1.191,1.027-1.774l0.849,0.529
					C15.442,24.737,15.11,25.311,14.798,25.895z M16.896,22.527l-0.812-0.584c0.399-0.556,0.816-1.099,1.25-1.626l0.772,0.635
					C17.688,21.464,17.284,21.989,16.896,22.527z M19.419,19.46l-0.729-0.684c0.469-0.501,0.957-0.989,1.45-1.451l0.684,0.73
					C20.34,18.508,19.872,18.977,19.419,19.46z M22.317,16.744l-0.635-0.771c0.523-0.432,1.071-0.853,1.627-1.251l0.583,0.813
					C23.354,15.92,22.824,16.327,22.317,16.744z M25.545,14.43l-0.528-0.85c0.576-0.358,1.174-0.704,1.776-1.026l0.472,0.881
					C26.68,13.748,26.106,14.08,25.545,14.43z M29.048,12.555l-0.413-0.91c0.617-0.28,1.256-0.545,1.897-0.786l0.353,0.936
					C30.264,12.028,29.65,12.282,29.048,12.555z M32.768,11.154l-0.289-0.957C33.13,10,33.797,9.821,34.46,9.668l0.226,0.975
					C34.044,10.791,33.398,10.963,32.768,11.154z M36.635,10.258l-0.162-0.986c0.668-0.11,1.354-0.199,2.034-0.266l0.097,0.996
					C37.939,10.066,37.284,10.151,36.635,10.258z"/>
			</g>
			<g>
				<path fill="#B5B4B4" d="M11.215,40.215h-1c0-0.341,0.005-0.679,0.017-1.017l0.999,0.032
					C11.22,39.559,11.215,39.886,11.215,40.215z"/>
			</g>
		</g>
	</g>
</g>
</svg>
