<?xml version="1.0" encoding="utf-8"?>
<!-- Generator: Adobe Illustrator 16.2.0, SVG Export Plug-In . SVG Version: 6.00 Build 0)  -->
<!DOCTYPE svg PUBLIC "-//W3C//DTD SVG 1.1//EN" "http://www.w3.org/Graphics/SVG/1.1/DTD/svg11.dtd">
<svg version="1.1" id="图层_1" xmlns="http://www.w3.org/2000/svg" xmlns:xlink="http://www.w3.org/1999/xlink" x="0px" y="0px"
	 width="64px" height="64px" viewBox="-4.5 -4.5 64 64" enable-background="new -4.5 -4.5 64 64" xml:space="preserve">
<g>
	<g>
		<g>
			<path fill="#B5B4B4" d="M54.5,0.501v53.997h-54V0.501H54.5 M55,0.001H0v54.997h55V0.001L55,0.001z"/>
		</g>
	</g>
	<g>
		<polyline fill="#B5B4B4" points="55,49.465 55,50.965 43.535,50.965 43.535,39.465 55,39.465 55,40.965 		"/>
	</g>
	<g>
		<polyline fill="#B5B4B4" points="0,40.965 0,39.465 11.465,39.465 11.465,50.965 0,50.965 0,49.465 		"/>
	</g>
	<g>
		<path fill="#B5B4B4" d="M45.036,43.68h-4.214v-13.5h4.214V43.68z M42.322,42.18h1.214v-10.5h-1.214V42.18z"/>
	</g>
	<g>
		<path fill="#B5B4B4" d="M36.322,39.076l-0.997-0.068c0.048-0.695,0.138-1.385,0.268-2.045l0.981,0.193
			C36.452,37.775,36.367,38.422,36.322,39.076z M37.082,35.303l-0.939-0.34c0.252-0.701,0.555-1.34,0.899-1.896l0.851,0.525
			C37.584,34.09,37.313,34.666,37.082,35.303z M39.076,32.221l-0.614-0.789c0.672-0.521,1.394-0.789,2.146-0.789v1
			C40.083,31.643,39.568,31.838,39.076,32.221z"/>
	</g>
	<g>
		<path fill="#B5B4B4" d="M14.179,43.68H9.965V8.607h4.214V43.68L14.179,43.68z M11.465,42.18h1.214V10.107h-1.214V42.18z"/>
	</g>
	<g>
		<path fill="#B5B4B4" d="M35.283,39.883c-0.006-0.664-0.026-1.322-0.063-1.977l0.997-0.055c0.037,0.67,0.06,1.344,0.064,2.023
			L35.283,39.883z M35.064,35.938c-0.067-0.66-0.151-1.313-0.25-1.959l0.988-0.148c0.102,0.662,0.188,1.33,0.258,2.008
			L35.064,35.938z M34.468,32.035c-0.134-0.652-0.282-1.293-0.444-1.924l0.968-0.25c0.168,0.646,0.319,1.305,0.456,1.973
			L34.468,32.035z M33.479,28.215c-0.199-0.633-0.414-1.254-0.645-1.863l0.936-0.354c0.236,0.627,0.459,1.266,0.664,1.916
			L33.479,28.215z M32.088,24.526c-0.27-0.606-0.553-1.199-0.852-1.777l0.889-0.459c0.309,0.596,0.6,1.206,0.877,1.83L32.088,24.526
			z M30.279,21.028c-0.336-0.563-0.694-1.119-1.063-1.653l0.822-0.568c0.382,0.552,0.752,1.127,1.101,1.71L30.279,21.028z
			 M28.044,17.799c-0.415-0.518-0.847-1.017-1.283-1.485l0.731-0.682c0.453,0.486,0.9,1.005,1.33,1.54L28.044,17.799z
			 M25.369,14.938c-0.488-0.444-0.993-0.866-1.501-1.254l0.606-0.795c0.531,0.405,1.059,0.846,1.567,1.309L25.369,14.938z
			 M22.263,12.576c-0.559-0.348-1.132-0.666-1.702-0.945L21,10.731c0.602,0.294,1.204,0.629,1.791,0.994L22.263,12.576z
			 M18.771,10.868c-0.608-0.221-1.233-0.408-1.857-0.557l0.231-0.973c0.662,0.157,1.323,0.355,1.967,0.59L18.771,10.868z
			 M15.006,9.972c-0.644-0.076-1.295-0.114-1.936-0.114v-1c0.68,0,1.37,0.041,2.052,0.12L15.006,9.972z"/>
	</g>
</g>
</svg>
