<svg version="1.1" xmlns="http://www.w3.org/2000/svg" xmlns:xlink="http://www.w3.org/1999/xlink" x="0px" y="0px" width="103px" height="103px" viewBox="246 9.667 103 103" enable-background="new 246 9.667 103 103" xml:space="preserve">
      <g id="Layer_1">
			<rect x="1.5" y="0.5" fill="none" stroke="#000000" stroke-width="3" stroke-miterlimit="10" width="100" height="100"/>
			<rect x="150.5" y="159.5" fill="none" stroke="#000000" stroke-width="3" stroke-miterlimit="10" width="100" height="50"/>
			<rect x="153.5" y="264.5" fill="none" stroke="#000000" stroke-width="3" stroke-miterlimit="10" width="50" height="100"/>
    </g>
    <g id="Layer_2">
			<polygon fill="none" stroke="#000000" stroke-width="3" stroke-miterlimit="10" points="247.5,111.168 347.5,111.168 347.5,11.167 297.166,11.167 297.166,61.333 247.5,61.333  "/>
			<polygon fill="none" stroke="#000000" stroke-width="3" stroke-miterlimit="10" points="238.5,2.168 138.5,2.168 138.5,102.169 188.834,102.169 188.834,52.002 238.5,52.002   "/>
			<polygon fill="none" stroke="#000000" stroke-width="3" stroke-miterlimit="10" points="96,238.5 -4,238.5 -4,138.5 46.333,138.5 46.333,188.665 96,188.665   "/>
			<polygon fill="none" stroke="#000000" stroke-width="3" stroke-miterlimit="10" points="-141,138 -41,138 -41,238.001 -91.334,238.001 -91.334,187.834 -141,187.834  "/>
	</g>
</svg>