<?xml version="1.0" encoding="utf-8"?>
<!-- Generator: Adobe Illustrator 16.2.0, SVG Export Plug-In . SVG Version: 6.00 Build 0)  -->
<!DOCTYPE svg PUBLIC "-//W3C//DTD SVG 1.1//EN" "http://www.w3.org/Graphics/SVG/1.1/DTD/svg11.dtd">
<svg version="1.1" id="图层_1" xmlns="http://www.w3.org/2000/svg" xmlns:xlink="http://www.w3.org/1999/xlink" x="0px" y="0px"
	 width="201px" height="80px" viewBox="0 0 201 80" enable-background="new 0 0 201 80" xml:space="preserve">
<polygon fill="#FBC600" points="200.586,12.5 49.737,12.5 49.737,67.5 159.906,67.5 200.586,51.742 "/>
<polygon fill="#484848" points="200.586,51.742 159.906,67.5 193.416,40.249 "/>
<rect x="0.415" y="12.5" fill="#F7F8F8" width="55" height="55"/>
<g>
	<g>
		<path fill="#484848" d="M27.915,25h-2v1h2V25L27.915,25z M23.915,25h-2v1h2V25L23.915,25z M19.915,25h-2v1h2V25L19.915,25z
			 M15.915,25h-2v1h-1v2h1v-2h2V25L15.915,25z M13.915,30h-1v2h1V30L13.915,30z M13.915,34h-1v2h1V34L13.915,34z M13.915,38h-1v2h1
			V38L13.915,38z M13.915,42h-1v2h1V42L13.915,42z M13.915,46h-1v2h1V46L13.915,46z M13.915,50h-1v2h1V50L13.915,50z M13.915,54h-1
			v1h1l0,0l0,0l0,0V54L13.915,54z M17.914,54h-2v1h2V54L17.914,54z M21.914,54h-2v1h2V54L21.914,54z M25.914,54h-2v1h2V54L25.914,54
			z M29.914,54h-2v1h2V54L29.914,54z M33.914,54h-2v1h2V54L33.914,54z M37.914,54h-2v1h2V54L37.914,54z M41.914,54h-2v1h2V54
			L41.914,54z M42.915,52h-1v2h1V52L42.915,52z M42.915,48h-1v2h1V48L42.915,48z M42.915,44h-1v2h1V44L42.915,44z M42.915,40h-1v2h1
			V40L42.915,40z M42.915,36h-1v2h1V36L42.915,36z M42.915,32h-1v2h1V32L42.915,32z M41.096,31.819h-2v1h2V31.819L41.096,31.819z
			 M37.096,31.819h-2v1h2V31.819L37.096,31.819z M33.096,31.819h-2v1h2V31.819L33.096,31.819z M27.915,31h-1v0.818v1h1h1.182v-1
			h-1.182V31L27.915,31z M27.915,27h-1v2h1V27L27.915,27z"/>
	</g>
	<g>
		<g>
			<g>
				<polyline fill="none" stroke="#E2BB3E" stroke-width="2" stroke-miterlimit="10" points="39.343,31.819 27.915,31.819 
					27.915,25 12.915,25 12.915,40 12.915,55 22.036,55 				"/>
				<g>
					<circle fill="#E2BB3E" cx="39.155" cy="31.819" r="3.76"/>
				</g>
				<g>
					<g>
						<circle fill="#FFFFFF" cx="21.823" cy="55" r="3.76"/>
						<path fill="#E2BB3E" d="M21.823,59.26c-2.349,0-4.26-1.911-4.26-4.26s1.911-4.26,4.26-4.26s4.26,1.911,4.26,4.26
							S24.171,59.26,21.823,59.26S24.171,59.26,21.823,59.26z M21.823,51.74c-1.798,0-3.26,1.462-3.26,3.26s1.462,3.26,3.26,3.26
							s3.26-1.462,3.26-3.26S23.621,51.74,21.823,51.74S23.621,51.74,21.823,51.74z"/>
					</g>
				</g>
			</g>
		</g>
	</g>
</g>
<g>
	<g>
		<path fill="#B4B4B4" d="M22.069,55.465c-0.084,0-0.166-0.033-0.229-0.096s-0.096-0.152-0.092-0.242l0.191-3.25
			c0.006-0.08,0.039-0.152,0.094-0.209l9.686-9.688c0.063-0.061,0.143-0.094,0.227-0.094l0,0c0.086,0,0.17,0.033,0.229,0.094
			l3.055,3.059c0.061,0.059,0.094,0.141,0.094,0.225c0,0.086-0.033,0.168-0.094,0.227l-9.686,9.689
			c-0.055,0.057-0.129,0.088-0.209,0.094l-3.248,0.191c-0.006,0-0.012,0-0.012,0H22.069z M22.573,52.035l-0.164,2.77l2.77-0.164
			l9.373-9.377l-2.605-2.604L22.573,52.035L22.573,52.035z"/>
	</g>
	<g>
		<path fill="#B4B4B4" d="M33.28,47.002c-0.08,0-0.162-0.031-0.225-0.094l-2.75-2.748c-0.127-0.125-0.127-0.328,0-0.453
			c0.125-0.125,0.328-0.125,0.451,0l2.75,2.748c0.125,0.127,0.125,0.328,0,0.453C33.444,46.971,33.362,47.002,33.28,47.002
			L33.28,47.002z"/>
	</g>
	<g>
		<path fill="#B4B4B4" d="M24.295,53.238c-0.082,0-0.164-0.031-0.229-0.094c-0.123-0.125-0.123-0.328,0-0.453l7.564-7.561
			c0.123-0.127,0.326-0.127,0.451,0c0.125,0.123,0.125,0.326,0,0.451l-7.563,7.563C24.458,53.207,24.375,53.238,24.295,53.238
			L24.295,53.238z"/>
	</g>
	<path fill="#B4B4B4" d="M22.428,53.555c-0.043,0-0.086,0-0.131,0.006c-0.043,0.004-0.078,0.018-0.121,0.023l-0.094,1.576
		l1.516-0.092c0.012-0.057,0.025-0.113,0.033-0.174C23.702,54.127,23.172,53.555,22.428,53.555L22.428,53.555z"/>
</g>
</svg>
