<?xml version="1.0" encoding="utf-8"?>
<!-- Generator: Adobe Illustrator 16.2.0, SVG Export Plug-In . SVG Version: 6.00 Build 0)  -->
<!DOCTYPE svg PUBLIC "-//W3C//DTD SVG 1.1//EN" "http://www.w3.org/Graphics/SVG/1.1/DTD/svg11.dtd">
<svg version="1.1" id="图层_1" xmlns="http://www.w3.org/2000/svg" xmlns:xlink="http://www.w3.org/1999/xlink" x="0px" y="0px"
	 width="201px" height="80px" viewBox="0 0 201 80" enable-background="new 0 0 201 80" xml:space="preserve">
<polygon fill="#E8C965" points="200.586,12.5 49.737,12.5 49.737,67.5 159.906,67.5 200.586,51.742 "/>
<polygon fill="#484848" points="200.586,51.742 159.906,67.5 193.416,40.249 "/>
<rect x="0.415" y="12.5" fill="#F7F8F8" width="55" height="55"/>
<g>
	<g>
		<g>
			<path fill="#666464" d="M33.33,22.5h-2v1h2V22.5L33.33,22.5z M29.33,22.5h-2v1h2V22.5L29.33,22.5z M25.33,22.5h-2v1h2V22.5
				L25.33,22.5z M21.33,22.5h-2v1h2V22.5L21.33,22.5z M19.329,23.499h-1v2h1V23.499L19.329,23.499z M19.329,27.499h-1v2h1V27.499
				L19.329,27.499z M19.329,31.499h-1v2h1V31.499L19.329,31.499z M19.329,35.499h-1v2h1V35.499L19.329,35.499z M19.329,39.499h-1v2
				h1V39.499L19.329,39.499z M19.329,43.499h-1v2h1V43.499L19.329,43.499z M19.329,47.499h-1v2h1V47.499L19.329,47.499z
				 M19.329,51.499h-1V52.5h1l0,0l0,0l0,0V51.499L19.329,51.499z M23.328,51.5h-2v1h2V51.5L23.328,51.5z M27.328,51.5h-2v1h2V51.5
				L27.328,51.5z M31.328,51.5h-2v1h2V51.5L31.328,51.5z M35.328,51.5H33.33h-0.002v1c0.002,0,2,0,2,0V51.5L35.328,51.5z
				 M39.328,51.5h-2v1h2V51.5L39.328,51.5z M43.328,51.5h-2v1h2V51.5L43.328,51.5z M47.328,51.5h-2v1h2V51.5L47.328,51.5z
				 M48.329,49.501h-1v2h1V49.501L48.329,49.501z M48.329,45.501h-1v2h1V45.501L48.329,45.501z M48.329,41.501h-1v2h1V41.501
				L48.329,41.501z M48.329,37.501h-1v2h1V37.501L48.329,37.501z M48.329,33.501h-1v2h1V33.501L48.329,33.501z M48.329,29.501h-1v2
				h1V29.501L48.329,29.501z M46.512,29.318h-2v1h2V29.318L46.512,29.318z M42.512,29.318h-2v1h2V29.318L42.512,29.318z
				 M38.512,29.318h-2v1h2V29.318L38.512,29.318z M33.33,28.5h-1v0.818v1h1h1.182v-1H33.33V28.5L33.33,28.5z M33.33,24.5h-1v2h1
				V24.5L33.33,24.5z"/>
		</g>
	</g>
	<g>
		<g>
			<path fill="#E2BB3E" d="M26.33,29.5v4.818v2h2h12.999V55.5H28.33H15.329v-13v-13H26.33 M28.33,27.5H13.329v15v15H28.33h14.999
				V34.318H28.33V27.5L28.33,27.5z"/>
		</g>
	</g>
</g>
</svg>
