<?xml version="1.0" encoding="utf-8"?>
<!-- Generator: Adobe Illustrator 16.0.0, SVG Export Plug-In . SVG Version: 6.00 Build 0)  -->
<!DOCTYPE svg PUBLIC "-//W3C//DTD SVG 1.1//EN" "http://www.w3.org/Graphics/SVG/1.1/DTD/svg11.dtd">
<svg version="1.1" xmlns="http://www.w3.org/2000/svg" xmlns:xlink="http://www.w3.org/1999/xlink" x="0px" y="0px"
	 width="64px" height="64px" viewBox="-4.5 -4.5 64 64" enable-background="new -4.5 -4.5 64 64" xml:space="preserve">
<g id="图层_1">
	<g>
		<path fill="#B5B4B4" d="M54.5,0.502v53.996h-54V0.502H54.5 M55,0.002H0v54.996h55V0.002L55,0.002z"/>
	</g>
	<g>
		<polyline fill="#B4B4B4" points="47.61,53.318 47.61,54.789 36.672,54.789 36.672,43.515 47.61,43.515 47.61,44.985 		"/>
	</g>
	<g>
		<polyline fill="#B4B4B4" points="6.958,45.399 6.958,43.954 17.995,43.954 17.995,55.033 6.958,55.033 6.958,53.588 		"/>
	</g>
	<polyline fill="none" stroke="#B4B4B4" stroke-width="1.5" stroke-miterlimit="10" points="42.141,43.907 42.141,21.226 
		12.65,21.226 12.65,43.907 	"/>
	<polygon fill="none" stroke="#B4B4B4" stroke-width="1.5" stroke-miterlimit="10" points="46.839,44.296 46.839,16.37 7.755,16.37 
		7.755,44.296 17.255,44.296 17.255,25.975 37.422,25.871 37.422,44.296 	"/>
</g>
<g id="视觉标注" display="none">
</g>
<g id="布局标注" display="none">
</g>
</svg>
