<?xml version="1.0" encoding="utf-8"?>
<!-- Generator: Adobe Illustrator 16.2.0, SVG Export Plug-In . SVG Version: 6.00 Build 0)  -->
<!DOCTYPE svg PUBLIC "-//W3C//DTD SVG 1.1//EN" "http://www.w3.org/Graphics/SVG/1.1/DTD/svg11.dtd">
<svg version="1.1" id="图层_1" xmlns="http://www.w3.org/2000/svg" xmlns:xlink="http://www.w3.org/1999/xlink" x="0px" y="0px"
	 width="64px" height="64px" viewBox="0 0 64 64" enable-background="new 0 0 64 64" xml:space="preserve">
<rect x="4.5" y="4.5" fill="none" stroke="#B4B4B4" stroke-width="0.5" stroke-miterlimit="10" width="55" height="55"/>
<g>
	<path fill="#B4B4B4" stroke="#B4B4B4" stroke-width="0.25" stroke-miterlimit="10" d="M23.928,21.559"/>
</g>
<line fill="#B4B4B4" stroke="#B4B4B4" stroke-width="2" stroke-miterlimit="10" x1="24.535" y1="20.292" x2="24.535" y2="42.846"/>
<line fill="#B4B4B4" stroke="#B4B4B4" stroke-width="2" stroke-miterlimit="10" x1="38.994" y1="20.337" x2="38.994" y2="42.891"/>
<line fill="#B4B4B4" stroke="#B4B4B4" stroke-width="0.25" stroke-miterlimit="10" x1="26.5" y1="37.541" x2="36.848" y2="37.541"/>
<line fill="#B4B4B4" stroke="#B4B4B4" stroke-width="0.25" stroke-miterlimit="10" x1="25.465" y1="38.854" x2="38.012" y2="38.854"/>
<line fill="#B4B4B4" stroke="#B4B4B4" stroke-width="0.25" stroke-miterlimit="10" x1="25.041" y1="40.166" x2="38.833" y2="40.166"/>
<line fill="#B4B4B4" stroke="#B4B4B4" stroke-width="0.25" stroke-miterlimit="10" x1="37.027" y1="48.041" x2="26.446" y2="48.041"/>
<line fill="#B4B4B4" stroke="#B4B4B4" stroke-width="0.25" stroke-miterlimit="10" x1="37.754" y1="46.729" x2="25.772" y2="46.729"/>
<line fill="#B4B4B4" stroke="#B4B4B4" stroke-width="0.25" stroke-miterlimit="10" x1="38.404" y1="45.416" x2="24.951" y2="45.416"/>
<line fill="#B4B4B4" stroke="#B4B4B4" stroke-width="0.25" stroke-miterlimit="10" x1="24.951" y1="41.479" x2="38.713" y2="41.479"/>
<line fill="#B4B4B4" stroke="#B4B4B4" stroke-width="0.25" stroke-miterlimit="10" x1="24.271" y1="42.791" x2="38.833" y2="42.791"/>
<line fill="#B4B4B4" stroke="#B4B4B4" stroke-width="0.25" stroke-miterlimit="10" x1="24.813" y1="44.104" x2="38.713" y2="44.104"/>
<circle fill="none" stroke="#B4B4B4" stroke-width="2" stroke-miterlimit="10" cx="31.765" cy="19.967" r="7.229"/>
<circle fill="none" stroke="#B4B4B4" stroke-width="2" stroke-miterlimit="10" cx="31.765" cy="42.849" r="7.229"/>
</svg>
