<?xml version="1.0" encoding="utf-8"?>
<!-- Generator: Adobe Illustrator 16.2.0, SVG Export Plug-In . SVG Version: 6.00 Build 0)  -->
<!DOCTYPE svg PUBLIC "-//W3C//DTD SVG 1.1//EN" "http://www.w3.org/Graphics/SVG/1.1/DTD/svg11.dtd">
<svg version="1.1" id="图层_1" xmlns="http://www.w3.org/2000/svg" xmlns:xlink="http://www.w3.org/1999/xlink" x="0px" y="0px"
	 width="64px" height="64px" viewBox="0 0 64 64" enable-background="new 0 0 64 64" xml:space="preserve">
<g>
	<path fill="#B5B4B4" d="M59,5.001v53.998H5V5.001H59 M59.5,4.501h-55v54.998h55V4.501L59.5,4.501z"/>
</g>
<g>
	<path fill="#B4B4B4" d="M32,16c-8.836,0-16,7.163-16,16c0,8.836,7.164,16,16,16c8.836,0,16-7.164,16-16C48,23.163,40.836,16,32,16z
		 M32,44.863c-7.092,0-12.862-5.771-12.862-12.863c0-7.094,5.771-12.863,12.862-12.863c7.092,0,12.864,5.77,12.864,12.863
		C44.863,39.093,39.092,44.863,32,44.863z"/>
	<path fill="#B4B4B4" d="M24.181,32.47h-3.138c0.243,5.679,4.808,10.244,10.485,10.487v-3.138
		C27.581,39.583,24.417,36.419,24.181,32.47z"/>
	<path fill="#B4B4B4" d="M31.529,24.181v-3.138c-5.678,0.243-10.242,4.808-10.485,10.487h3.138
		C24.417,27.581,27.581,24.417,31.529,24.181z"/>
	<path fill="#B4B4B4" d="M39.818,31.53h3.139c-0.244-5.68-4.809-10.244-10.487-10.487v3.138
		C36.42,24.417,39.584,27.581,39.818,31.53z"/>
	<path fill="#B4B4B4" d="M32.47,39.819v3.138c5.678-0.243,10.243-4.809,10.487-10.487h-3.139
		C39.584,36.419,36.42,39.583,32.47,39.819z"/>
	<path fill="#B4B4B4" d="M39.818,31.53h-3.137c-0.221-2.222-1.99-3.991-4.211-4.211v-3.139c-0.156-0.01-0.312-0.024-0.471-0.024
		c-0.158,0-0.314,0.015-0.471,0.024v3.139c-2.22,0.22-3.989,1.989-4.211,4.211h-3.137c-0.01,0.156-0.024,0.313-0.024,0.47
		s0.015,0.313,0.024,0.47h3.137c0.222,2.219,1.992,3.991,4.211,4.211v3.139c0.156,0.01,0.313,0.024,0.471,0.024
		c0.159,0,0.314-0.015,0.471-0.024v-3.139c2.219-0.22,3.991-1.992,4.211-4.211h3.137c0.01-0.156,0.025-0.313,0.025-0.47
		S39.828,31.687,39.818,31.53z"/>
</g>
</svg>
