<?xml version="1.0" encoding="utf-8"?>
<!-- Generator: Adobe Illustrator 16.2.0, SVG Export Plug-In . SVG Version: 6.00 Build 0)  -->
<!DOCTYPE svg PUBLIC "-//W3C//DTD SVG 1.1//EN" "http://www.w3.org/Graphics/SVG/1.1/DTD/svg11.dtd">
<svg version="1.1" id="图层_1" xmlns="http://www.w3.org/2000/svg" xmlns:xlink="http://www.w3.org/1999/xlink" x="0px" y="0px"
	 width="64px" height="64px" viewBox="-4.5 -4.5 64 64" enable-background="new -4.5 -4.5 64 64" xml:space="preserve">
<g>
	<g>
		<path fill="#B5B4B4" d="M54.5,0.501v53.998h-54V0.501H54.5 M55,0.001H0v54.998h55V0.001L55,0.001z"/>
	</g>
	<g>
		<path fill="#B5B4B4" d="M43.5,40.999h-32v-27h32V40.999z M13.5,38.999h28v-23h-28V38.999z"/>
	</g>
	<g>
		<path fill="#B5B4B4" d="M40.164,37.499H15V17.358l20.902,5.226L40.164,37.499z M16,36.499h22.837L35.1,23.414L16,18.64V36.499z"/>
	</g>
	<g>
		<g>
			<defs>
				<polygon id="SVGID_1_" points="15,37.499 15,18.499 35,23.499 39,37.499 				"/>
			</defs>
			<clipPath id="SVGID_2_">
				<use xlink:href="#SVGID_1_"  overflow="visible"/>
			</clipPath>
			<g clip-path="url(#SVGID_2_)">
				<g>
					
						<rect x="11.711" y="2.936" transform="matrix(-0.6246 -0.7809 0.7809 -0.6246 4.9364 40.5359)" fill="#B5B4B4" width="1" height="32.291"/>
				</g>
				<g>
					
						<rect x="13.235" y="4.158" transform="matrix(-0.6246 -0.7809 0.7809 -0.6246 6.4598 43.7115)" fill="#B5B4B4" width="1" height="32.291"/>
				</g>
				<g>
					
						<rect x="14.761" y="5.38" transform="matrix(-0.625 -0.7806 0.7806 -0.625 7.9952 46.8926)" fill="#B5B4B4" width="1.001" height="32.291"/>
				</g>
				<g>
					
						<rect x="16.288" y="6.603" transform="matrix(-0.6243 -0.7812 0.7812 -0.6243 9.4996 50.065)" fill="#B5B4B4" width="0.999" height="32.292"/>
				</g>
				<g>
					
						<rect x="17.813" y="7.824" transform="matrix(-0.6243 -0.7812 0.7812 -0.6243 11.022 53.24)" fill="#B5B4B4" width="0.999" height="32.291"/>
				</g>
				<g>
					
						<rect x="19.338" y="9.047" transform="matrix(-0.6249 -0.7807 0.7807 -0.6249 12.5677 56.4247)" fill="#B5B4B4" width="1" height="32.292"/>
				</g>
				<g>
					
						<rect x="20.865" y="10.269" transform="matrix(-0.6241 -0.7813 0.7813 -0.6241 14.0592 59.5929)" fill="#B5B4B4" width="1" height="32.291"/>
				</g>
				<g>
					
						<rect x="22.389" y="11.492" transform="matrix(-0.6243 -0.7812 0.7812 -0.6243 15.5908 62.7721)" fill="#B5B4B4" width="0.999" height="32.29"/>
				</g>
				<g>
					
						<rect x="23.915" y="12.714" transform="matrix(-0.6247 -0.7809 0.7809 -0.6247 17.132 65.9538)" fill="#B5B4B4" width="1" height="32.291"/>
				</g>
				<g>
					
						<rect x="25.441" y="13.936" transform="matrix(-0.6249 -0.7807 0.7807 -0.6249 18.6679 69.1328)" fill="#B5B4B4" width="1" height="32.292"/>
				</g>
				<g>
					
						<rect x="26.968" y="15.159" transform="matrix(-0.6243 -0.7812 0.7812 -0.6243 20.1631 72.306)" fill="#B5B4B4" width="0.999" height="32.292"/>
				</g>
				<g>
					
						<rect x="28.492" y="16.38" transform="matrix(-0.6249 -0.7807 0.7807 -0.6249 21.7169 75.4864)" fill="#B5B4B4" width="1" height="32.292"/>
				</g>
				<g>
					
						<rect x="30.018" y="17.604" transform="matrix(-0.6241 -0.7813 0.7813 -0.6241 23.1955 78.6563)" fill="#B5B4B4" width="1" height="32.29"/>
				</g>
				<g>
					
						<rect x="31.543" y="18.826" transform="matrix(-0.6247 -0.7809 0.7809 -0.6247 24.7521 81.8389)" fill="#B5B4B4" width="1" height="32.29"/>
				</g>
				<g>
					
						<rect x="33.069" y="20.049" transform="matrix(-0.6243 -0.7812 0.7812 -0.6243 26.2534 85.0141)" fill="#B5B4B4" width="0.999" height="32.291"/>
				</g>
				<g>
					
						<rect x="34.594" y="21.271" transform="matrix(-0.6241 -0.7813 0.7813 -0.6241 27.7617 88.188)" fill="#B5B4B4" width="1" height="32.291"/>
				</g>
				<g>
					
						<rect x="36.122" y="22.492" transform="matrix(-0.6246 -0.781 0.781 -0.6246 29.3195 91.3698)" fill="#B5B4B4" width="0.999" height="32.292"/>
				</g>
				<g>
					
						<rect x="37.646" y="23.714" transform="matrix(-0.6252 -0.7805 0.7805 -0.6252 30.8833 94.5524)" fill="#B5B4B4" width="1" height="32.292"/>
				</g>
			</g>
		</g>
	</g>
</g>
</svg>
