<?xml version="1.0" encoding="utf-8"?>
<!-- Generator: Adobe Illustrator 16.0.0, SVG Export Plug-In . SVG Version: 6.00 Build 0)  -->
<!DOCTYPE svg PUBLIC "-//W3C//DTD SVG 1.1//EN" "http://www.w3.org/Graphics/SVG/1.1/DTD/svg11.dtd">
<svg version="1.1" id="图层_1" xmlns="http://www.w3.org/2000/svg" xmlns:xlink="http://www.w3.org/1999/xlink" x="0px" y="0px"
	 width="256px" height="256px" viewBox="178 268 256 256" enable-background="new 178 268 256 256" xml:space="preserve">
<rect x="178" y="268" fill="#E0E1E2" width="256" height="256.001"/>
<path id="thumnail" fill="#FFFFFF" d="M330.666,371.221c-6.638-6.563-15.388-10.184-24.742-10.184
	c-9.353,0-18.103,3.621-24.741,10.259C274.621,377.859,271,386.609,271,395.962c0,9.354,3.621,18.104,10.259,24.742
	c6.638,6.637,15.388,10.258,24.741,10.258s18.104-3.621,24.741-10.258C337.38,414.066,341,405.315,341,395.962
	C341,386.609,337.229,377.859,330.666,371.221L330.666,371.221z M332.175,395.962c0,5.658-1.811,10.862-4.828,15.163l-36.583-36.51
	c4.3-3.093,9.504-4.828,15.161-4.828C320.407,369.712,332.175,381.479,332.175,395.962L332.175,395.962z M279.675,395.962
	c0-5.657,1.811-10.861,4.828-15.161l36.508,36.509c-4.3,3.092-9.504,4.826-15.162,4.826
	C291.442,422.212,279.675,410.445,279.675,395.962L279.675,395.962z"/>
</svg>
