<?xml version="1.0" standalone="no"?><!DOCTYPE svg PUBLIC "-//W3C//DTD SVG 1.1//EN" "http://www.w3.org/Graphics/SVG/1.1/DTD/svg11.dtd"><svg t="1533090365411" class="icon" style="" viewBox="0 0 1024 1024" version="1.1" xmlns="http://www.w3.org/2000/svg" p-id="2709" xmlns:xlink="http://www.w3.org/1999/xlink" width="16" height="16"><defs><style type="text/css"></style></defs><path d="M450.286933 61.44c248.832 0 450.56 201.728 450.56 450.56a61.44 61.44 0 0 0 122.88 0c0-282.760533-229.239467-512-512-512C236.714667 0 12.424533 216.814933 0.3072 488.789333 12.356267 250.7776 209.2032 61.44 450.286933 61.44z" fill="#ffc034" p-id="2710"></path><path d="M573.7472 962.56c-248.832 0-450.56-201.728-450.56-450.56a61.44 61.44 0 0 0-122.88 0c0 282.760533 229.205333 512 512 512 274.978133 0 499.268267-216.814933 511.419733-488.789333-12.0832 238.045867-208.896 427.349333-449.979733 427.349333z" fill="#ffc034" p-id="2711"></path></svg>