<?xml version="1.0" standalone="no"?><!DOCTYPE svg PUBLIC "-//W3C//DTD SVG 1.1//EN" "http://www.w3.org/Graphics/SVG/1.1/DTD/svg11.dtd"><svg t="1533266071961" class="icon" style="" viewBox="0 0 1024 1024" version="1.1" xmlns="http://www.w3.org/2000/svg" p-id="5958" xmlns:xlink="http://www.w3.org/1999/xlink" width="128" height="128"><defs><style type="text/css"></style></defs><path d="M857.728 121.984c0 1.408-0.128 2.816-0.384 4.224-1.536 10.368-4.48 20.864-8.704 31.232-76.544 194.048-565.504 387.456-565.504 387.456-79.104 21.888-135.68 27.52-176 24.192-52.864-4.48-77.952-24.32-89.856-43.008-0.384-0.512-0.64-1.024-1.024-1.664-0.768-1.152-1.408-2.432-2.048-3.712 0 0 0-0.128-0.128-0.128-0.256-0.64-0.64-1.152-0.896-1.792-2.176-4.608-3.712-8.96-4.608-12.928-2.176-8.832-1.792-14.976-1.792-14.976 0-110.08 257.664-132.992 257.664-132.992s60.032-64.384 158.08-134.016c54.528-38.784 120.832-79.232 195.2-111.104 66.688-28.672 115.328-38.912 150.784-39.68h0.64c44.928-0.768 68.224 13.824 79.616 25.472 3.456 3.456 5.888 7.552 7.296 12.16 0 0.128 0 0.256 0.128 0.384 0.128 0.384 0.384 1.024 0.512 2.048 0 0.256 0.128 0.512 0.128 0.768 0.128 0.64 0.256 1.152 0.384 1.92 0.128 0.512 0.128 1.024 0.256 1.664s0.128 1.28 0.128 1.92c0.128 0.896 0.128 1.664 0.128 2.56z" fill="#F39F1F" p-id="5959"></path><path d="M1020.16 968.192c-14.72-51.584-67.968-175.104-244.352-190.848-0.512-0.128-1.024-0.128-1.536-0.128l-66.688-34.304-1.024-0.512-0.768-0.384 0.768-7.424 1.28-11.008-1.28-0.256-64-15.104-0.384-0.128-129.024-30.208-3.2-0.768-43.136-10.112v66.56l-0.256 0.256-0.128 0.128-78.592 80.64s-1.152 0.128-3.328 0.384c-16.256 2.304-88.576 15.104-123.392 70.272-21.248 30.592-40.576 59.904-55.296 82.944H1020.16z" fill="#E1E0DF" p-id="5960"></path><path d="M706.432 675.2V750.08l-22.784 135.04-216.192-143.36-8.448-56.192-0.512-2.688-0.128-1.408-2.048-12.928 23.04-23.168 169.472 22.272z" fill="#CD8069" p-id="5961"></path><path d="M639.872 308.224s-77.952 50.56-183.552 76.8c0 0 127.744-57.344 165.632-85.888l17.92 9.088z" fill="#985641" p-id="5962"></path><path d="M706.432 677.504v68.48c-21.376 0.384-43.392-0.64-65.92-3.2-71.68-8.064-135.296-30.208-182.016-59.904l-0.256-1.408-1.92-12.8 22.912-23.168 169.6 22.272 57.6 9.728zM685.184 862.464l-124.928-65.792 117.504 81.152s7.296 5.248 7.424 3.584c0.128-1.536 0-18.944 0-18.944z" fill="#A45945" p-id="5963"></path><path d="M450.048 732.928l-63.872 72.448c-4.096 4.608-2.944 11.776 2.432 14.848 61.056 35.072 375.552 203.392 387.84-38.656 0.128-3.584-1.792-7.04-4.864-8.832l-53.376-30.72c-5.888-3.328-13.312 0.128-14.464 6.784l-20.096 122.24c-0.512 3.456-4.48 5.12-7.424 3.2L462.72 731.392c-3.968-2.816-9.472-2.048-12.672 1.536z" fill="#E36A44" p-id="5964"></path><path d="M729.728 948.224c-1.408 1.408-3.072 2.432-4.992 3.2l-29.184 9.984c-6.912 2.304-14.336-1.408-16.768-8.192l-8.96-26.24c-0.128-0.128-0.128-0.256-0.128-0.512l-4.864-14.08c-2.304-6.912 1.408-14.336 8.192-16.768l29.184-9.984c6.912-2.304 14.336 1.28 16.768 8.192l13.952 40.704c1.664 5.12 0.256 10.368-3.2 13.696z" fill="#E36A44" p-id="5965"></path><path d="M408.448 831.232s139.904 87.936 253.824 78.336c0 0 53.376-14.464 56.832-15.616 3.328-1.024 38.912-7.936 51.456-70.144 0 0-18.944 49.024-52.864 59.392 0 0 28.16-54.272 26.624-90.752 0 0-20.096 93.44-66.176 99.712-46.08 6.272-193.28-84.992-212.992-119.424 0 0 21.76 63.36 160.512 123.136 0 0.128-87.424-3.712-217.216-64.64zM729.728 948.224c-1.408 1.408-3.072 2.432-4.992 3.2l-29.184 9.984c-6.912 2.304-10.752-1.28-13.184-8.192l-8.832-40.832c17.28 58.752 56.192 35.84 56.192 35.84z" fill="#D14D23" p-id="5966"></path><path d="M326.272 84.608s38.4-21.248 82.56 8.064c2.56 1.664 5.12 3.328 7.936 4.736l112.64 58.752-65.152 39.296-137.984-110.848z" fill="#F39F1F" p-id="5967"></path><path d="M260.224 393.472l5.12-224.128c0.256-12.8 5.248-25.088 13.952-34.56l43.52-47.488c4.48-4.864 12.032-5.248 17.024-0.896l124.416 109.184c0-0.128-177.024 138.88-204.032 197.888z" fill="#F5BC3E" p-id="5968"></path><path d="M357.376 402.816s267.008-186.752 310.912-133.12c0 0 20.48 106.624-385.792 248.96 0 0.128-51.968 15.616 74.88-115.84z" fill="#DC8A22" p-id="5969"></path><path d="M794.496 608.768c-126.72 189.056-311.68 51.968-311.68 51.968l-9.856 3.328c-18.304 6.144-37.376 9.216-56.704 9.216l6.272-35.328-97.664-87.296c-20.864-18.56-18.432-57.216-12.16-87.68 4.48-21.76 20.224-39.552 41.472-46.336 32.256-5.504 67.84-17.28 102.272-31.488 86.656-35.584 165.632-85.888 165.632-85.888 62.336 18.688 118.4 174.592 118.4 174.592 2.944 2.304 5.76 4.48 8.576 6.784 14.976 12.288 25.984 24.32 34.048 35.712 3.968 5.376 7.04 10.624 9.728 15.744v0.128c22.912 44.544 1.664 76.544 1.664 76.544z" fill="#CA7A61" p-id="5970"></path><path d="M545.785516 460.789994a20.736 12.416 71.435 1 0 23.539819-7.90602 20.736 12.416 71.435 1 0-23.539819 7.90602Z" fill="#35373A" p-id="5971"></path><path d="M673.549296 409.091497a20.736 12.416 71.435 1 0 23.539819-7.906019 20.736 12.416 71.435 1 0-23.539819 7.906019Z" fill="#35373A" p-id="5972"></path><path d="M508.416 449.792c-0.64 0-1.408-0.128-2.048-0.256-5.632-1.152-9.216-6.656-8.064-12.288 0.256-1.28 6.784-32 31.36-43.776 15.232-7.296 33.28-5.76 53.504 4.608 5.12 2.56 7.168 8.832 4.48 13.952-2.56 5.12-8.832 7.168-13.952 4.48-14.208-7.296-25.984-8.704-35.072-4.352-15.104 7.296-19.968 29.056-19.968 29.184-1.024 4.992-5.376 8.448-10.24 8.448zM647.296 399.104c-0.512 0-1.024 0-1.536-0.128-4.352-0.896-7.04-5.12-6.144-9.344 0.256-1.024 5.12-24.448 23.936-33.408 11.648-5.632 25.344-4.352 40.832 3.584 3.84 2.048 5.504 6.784 3.456 10.624-2.048 3.84-6.784 5.504-10.624 3.456-10.88-5.504-19.84-6.656-26.752-3.328-11.52 5.632-15.232 22.144-15.232 22.272-1.024 3.712-4.352 6.272-7.936 6.272z" fill="#35373A" p-id="5973"></path><path d="M629.888 434.56l14.464 86.656c2.176 13.056 16 20.608 28.16 15.36l28.288-12.16c21.248-9.088 24.576-37.76 6.144-51.584l-62.72-46.976c-6.656-4.864-15.744 0.64-14.336 8.704z" fill="#985641" p-id="5974"></path><path d="M796.16 608.768c-126.72 189.056-311.68 51.968-311.68 51.968l-9.856 3.328c-18.304 6.144-37.376 9.216-56.704 9.216l6.272-35.328-97.664-87.296c-19.968-23.68-22.912-55.936-16.384-86.784 4.608-22.016 21.248-39.424 42.496-46.336l3.072-1.024 98.048-31.488h8.064s-2.176 161.536 35.328 185.728c0 0 53.12 22.912 114.944-10.24 0 0 100.48 25.728 129.92-86.912 14.976 12.288 34.56 31.104 42.624 42.496l9.472 15.488s0.128 0.128 0.256 0.384v0.128c23.04 44.672 1.792 76.672 1.792 76.672z" fill="#35373A" p-id="5975"></path><path d="M636.544 597.12s59.776 10.24 86.016-10.24c-0.128-0.128-39.552 72.32-86.016 10.24z" fill="#E9E9E7" p-id="5976"></path><path d="M438.528 524.672s-14.72-14.72-31.104-14.976c-16.512-0.256-27.648 16.768-21.76 32.256 3.968 10.368 12.416 24.832 30.72 41.856 0 0 27.136 32.512 52.992 21.632 0 0 30.208-7.424-30.848-80.768z" fill="#D8846E" p-id="5977"></path><path d="M427.776 533.12s-17.408-17.792-27.904-10.496c-10.496 7.296-10.88 21.248-2.56 30.08l8.32 8.832s-19.2-42.112 22.144-28.416z" fill="#B56949" p-id="5978"></path><path d="M409.6 544.512s-3.456 12.288 9.472 26.752c13.568 15.104 18.176 10.24 19.456 5.888 1.28-4.736 6.272-12.8 12.032-4.352 0 0-8.32-14.72-14.208-6.528s-9.984-0.384-9.984-0.384-8.448-8.832-7.808-19.968c0.384-7.808-8.32-7.808-8.96-1.408z" fill="#B56949" p-id="5979"></path><path d="M445.824 179.2s-128.896 103.68-190.08 217.216l208.512-201.088-18.432-16.128z" fill="#F39F1F" p-id="5980"></path><path d="M857.728 118.272c0.256 8.064-1.408 20.224-8.96 35.584-1.408-0.128-30.336-3.2-75.904 1.408-28.032 2.816-62.464 8.576-100.736 19.456-37.248 10.752-78.08 26.368-120.448 49.408-36.48 19.84-73.984 45.056-110.976 77.184-28.928 25.088-57.472 54.272-85.248 88.448-9.472 11.648-18.816 23.936-28.032 36.736-16.64 23.168-36.352 43.904-58.88 61.312-21.888 16.896-51.584 37.248-83.456 52.864-25.6 12.544-52.48 22.144-77.952 24.704-4.736-0.384-9.216-0.896-13.568-1.536-19.968-2.944-35.456-8.32-47.232-14.848-9.088-5.12-16.128-10.88-21.504-16.768-2.944-3.2-5.376-6.4-7.424-9.6-0.384-0.512-0.64-1.024-1.024-1.664-0.768-1.152-1.408-2.432-2.048-3.712 0 0 0-0.128-0.128-0.128-0.256-0.64-0.64-1.152-0.896-1.792-2.176-4.608-3.712-8.96-4.608-12.928 3.584 3.328 12.032 10.624 24.832 16.896 9.856 4.736 22.272 8.96 36.864 10.24 15.488 1.408 33.408-0.512 53.504-8.448 0 0 0.128-0.128 0.128 0 21.376-8.448 45.184-23.68 70.912-49.024 20.608-20.352 42.496-47.104 65.408-82.048 2.176-3.328 4.48-6.784 6.784-10.112 22.528-32.768 49.92-64.512 80.256-94.208 0-0.128 0-0.128 0.128-0.128 23.424-23.04 48.768-44.928 75.136-65.152 12.416-9.6 25.088-18.944 38.016-27.776 43.52-30.208 88.832-56.064 132.736-76.16 43.648-19.968 86.016-34.304 123.776-41.6 18.304-3.456 35.584-5.376 51.456-5.376h0.64c22.912 0.128 42.752 3.968 58.624 12.16 11.776 6.016 21.376 14.464 28.288 25.472 0 0 0 0.256 0.128 0.256 0 0.128 0 0 0.128 0.256 0.128 0.384 0.384 1.024 0.512 2.048 0 0.256 0.128 0.512 0.128 0.768 0.128 0.64 0.256 1.152 0.384 1.92 0.128 0.512 0.128 1.024 0.256 1.664s0.128 1.28 0.128 1.92c-0.128 0.64-0.128 1.408-0.128 2.304z" fill="#F5BC3E" p-id="5981"></path><path d="M46.336 548.864c-9.088-5.12-16.128-10.88-21.504-16.768l8.704-12.928 12.8 29.696zM70.272 529.28l23.296 34.432c-19.968-2.944-35.456-8.32-47.232-14.848l23.936-19.584z" fill="#B6582B" p-id="5982"></path><path d="M123.904 520.832l61.056 19.84c-25.6 12.544-52.48 22.144-77.952 24.704-4.736-0.384-9.216-0.896-13.568-1.536l30.464-43.008zM194.944 471.808l73.728 16c-21.888 16.896-51.584 37.248-83.456 52.864l9.728-68.864zM347.392 285.312l93.312 16c-28.928 25.088-57.472 54.272-85.248 88.448l-8.064-104.448z" fill="#B6582B" p-id="5983"></path><path d="M267.008 379.648l88.448 10.112c-9.472 11.648-18.816 23.936-28.032 36.736-16.64 23.168-36.352 43.904-58.88 61.312l-1.536-108.16zM464.256 191.744l87.296 32.384c-36.48 19.84-73.984 45.056-110.976 77.184l23.68-109.568zM593.28 116.224l78.848 58.368c-37.248 10.752-78.08 26.368-120.448 49.408l41.6-107.776z" fill="#B6582B" p-id="5984"></path><path d="M717.056 74.624l55.68 80.512c-28.032 2.816-62.464 8.576-100.736 19.456l45.056-99.968zM848.768 153.728c-1.536-0.128-30.336-3.2-75.904 1.408l55.04-73.6 20.864 72.192z" fill="#B6582B" p-id="5985"></path></svg>