<?xml version="1.0" encoding="utf-8"?>
<!-- Generator: Adobe Illustrator 16.2.0, SVG Export Plug-In . SVG Version: 6.00 Build 0)  -->
<!DOCTYPE svg PUBLIC "-//W3C//DTD SVG 1.1//EN" "http://www.w3.org/Graphics/SVG/1.1/DTD/svg11.dtd">
<svg version="1.1" id="图层_1" xmlns="http://www.w3.org/2000/svg" xmlns:xlink="http://www.w3.org/1999/xlink" x="0px" y="0px"
	 width="18px" height="18px" viewBox="0 0 18 18" enable-background="new 0 0 18 18" xml:space="preserve">
<g>
	<g>
		<g>
			<g>
				<g>
					<path fill="#EEB619" d="M9.094,14.521c-0.045,0-0.089-0.008-0.13-0.029c-0.013-0.01-0.026-0.02-0.039-0.029
						c-0.021-0.014-0.085-0.061-0.182-0.127c-0.419-0.291-1.401-0.975-2.051-1.475c-2.414-1.879-3.697-3.272-3.921-4.257
						C2.656,8.25,2.592,7.855,2.588,7.45C2.573,6.367,2.981,5.324,3.705,4.587C4.36,3.921,5.217,3.551,6.119,3.548l0,0
						c1.145,0,2.173,0.518,2.85,1.402c0.665-0.913,1.689-1.456,2.815-1.472h0.068c1.938,0,3.534,1.711,3.56,3.812
						c0.005,0.404-0.049,0.804-0.161,1.18c-0.192,0.967-1.472,2.436-3.8,4.342c-0.918,0.758-1.662,1.318-2.215,1.67
						C9.192,14.508,9.142,14.521,9.094,14.521L9.094,14.521z"/>
				</g>
			</g>
		</g>
	</g>
</g>
</svg>
