<?xml version="1.0" standalone="no"?><!DOCTYPE svg PUBLIC "-//W3C//DTD SVG 1.1//EN" "http://www.w3.org/Graphics/SVG/1.1/DTD/svg11.dtd"><svg t="1533266042412" class="icon" style="" viewBox="0 0 1387 1024" version="1.1" xmlns="http://www.w3.org/2000/svg" p-id="3332" xmlns:xlink="http://www.w3.org/1999/xlink" width="173.375" height="128"><defs><style type="text/css"></style></defs><path d="M0 992.5943a417.405504 31.4057 0 1 0 834.811008 0 417.405504 31.4057 0 1 0-834.811008 0Z" fill="#CA9337" p-id="3333"></path><path d="M492.488879 923.074221a417.405504 31.4057 0 1 0 834.811008 0 417.405504 31.4057 0 1 0-834.811008 0Z" fill="#CA9337" p-id="3334"></path><path d="M1387.382422 644.835554a26.338562 26.338562 0 0 1-26.34384 26.349118H443.749344a26.34384 26.34384 0 0 1-26.349118-26.349118V76.730195a26.349118 26.349118 0 0 1 26.349118-26.349118h917.28396a26.34384 26.34384 0 0 1 26.34384 26.349118v568.105359z" fill="#231F20" p-id="3335"></path><path d="M1344.032 555.0522a24.005567 24.005567 0 0 1-24.005567 24.010845H484.761493a24.010845 24.010845 0 0 1-24.005567-24.010845V109.539914a24.000289 24.000289 0 0 1 24.005567-24.005567h835.26494a23.99501 23.99501 0 0 1 24.005567 24.005567v445.512286z" fill="#FFFFFF" p-id="3336"></path><path d="M789.016747 726.168399l-22.786287 168.899327h272.327006l-26.011309-168.899327z" fill="#1A1517" p-id="3337"></path><path d="M702.569259 879.470441h399.638851v49.188188h-399.638851z" fill="#231F20" p-id="3338"></path><path d="M417.400226 616.660155v101.548615a26.359675 26.359675 0 0 0 26.349118 26.354397h917.28396a26.354397 26.354397 0 0 0 26.34384-26.354397V616.660155H417.400226z" fill="#808081" p-id="3339"></path><path d="M902.393963 679.297372m-31.622109 0a31.622109 31.622109 0 1 0 63.244218 0 31.622109 31.622109 0 1 0-63.244218 0Z" fill="#231F20" p-id="3340"></path><path d="M534.947274 373.764777h114.617609v188.88813h-114.617609z" fill="#F5B244" p-id="3341"></path><path d="M688.550177 321.546863h114.617609v241.106044H688.550177z" fill="#EF5A35" p-id="3342"></path><path d="M844.412179 255.674067h114.617609v306.973562h-114.617609z" fill="#0295A5" p-id="3343"></path><path d="M1000.823121 189.801271h114.617609v372.851636h-114.617609z" fill="#F5B244" p-id="3344"></path><path d="M1155.223043 148.567435h114.617609v414.085472h-114.617609z" fill="#EF5A35" p-id="3345"></path><path d="M805.420469 539.744399a33.606738 39.718973 59.576 1 0 68.499471-40.22698 33.606738 39.718973 59.576 1 0-68.499471 40.22698Z" fill="#F0E3C3" p-id="3346"></path><path d="M810.172049 496.864564l12.01334-7.336794 35.702211 58.393489-12.192801 7.041211z" fill="#FFFFFF" p-id="3347"></path><path d="M820.04769 497.825209m-2.802761 0a2.802761 2.802761 0 1 0 5.605522 0 2.802761 2.802761 0 1 0-5.605522 0Z" fill="#B8BABC" p-id="3348"></path><path d="M683.6625 597.09889c-47.594151 0-122.139142-18.02001-167.922846-92.755019 0 0 77.300248-18.69035 77.838631-18.014732 21.477276 26.597197 62.837791 38.658041 98.265532 36.198368 33.865373-2.31716 117.879579-29.109653 118.154049-29.273279l38.63165 63.444792c-4.106493 2.523013-98.239141 35.364402-148.27713 39.676747a192.709597 192.709597 0 0 1-16.689886 0.723123z" fill="#37302B" p-id="3349"></path><path d="M585.771725 761.258331c0 41.355237-76.497951 67.435163-170.751999 67.435163-94.243491 0-167.917568-26.37551-167.917568-67.730746 0-41.355237 73.674077-82.013742 167.917568-82.013742 94.248769 0 170.751999 40.954088 170.751999 82.309325z" fill="#37302B" p-id="3350"></path><path d="M267.634624 482.032628s-41.371072 2.676082-41.371071 38.916677c0 28.212347 12.541167 175.454936 18.093905 239.279764 1.578202 18.151967 3.235579 29.558306 19.323743 29.558305h304.624732c16.093442 0 16.705721-12.942315 17.091035-33.084189 1.177054-61.396824 3.985093-189.648201 7.442359-221.613398 4.597372-42.453117-25.27763-53.062437-25.27763-53.062437H267.634624z" fill="#231F20" p-id="3351"></path><path d="M311.243682 941.82791c0 1.330124 0.881471 13.269568 0.881471 13.269568s-74.059391 12.604506-77.822797 16.357355c-3.758127 3.758127-5.748035 25.652387 0 25.652387h132.215358c5.8536 0 6.191409-8.297439 6.191409-13.718221v-39.349494l-61.465441-2.211595z" fill="#231F20" p-id="3352"></path><path d="M377.887105 947.797632H304.318593c-9.733128 0-9.031118-12.973985-9.031118-17.402453l0.042226-140.607805h89.535275v139.874126c-0.005278 7.220672 0.591166 18.136132-6.977871 18.136132z" fill="#37302B" p-id="3353"></path><path d="M525.699747 941.82791c0 1.330124-0.881471 13.269568-0.881471 13.269568s74.064669 12.604506 77.822797 16.357355c3.758127 3.758127 5.748035 25.652387 0 25.652387H517.302021h-46.871028c-5.858878 0-6.196688-8.297439-6.196687-13.718221v-39.349494l61.465441-2.211595z" fill="#231F20" p-id="3354"></path><path d="M530.877729 947.797632H457.309217c-9.733128 0-9.036396-12.973985-9.036396-17.402453l0.042226-140.607805h89.535275v139.874126c0 7.220672 0.607001 18.136132-6.972593 18.136132z" fill="#37302B" p-id="3355"></path><path d="M563.170178 473.777416H269.302557s-42.447838 2.676082-42.447838 38.911398c0 28.212347 12.86842 175.465493 18.563671 239.29032 1.620429 18.151967 3.320031 29.563584 19.830457 29.563584h301.98032c16.510425 0 18.210028-11.406339 19.830456-29.563584 5.695252-63.824827 18.56895-211.077973 18.56895-239.29032-0.005278-36.235316-42.458395-38.911398-42.458395-38.911398z" fill="#403833" p-id="3356"></path><path d="M347.721798 473.777416l72.460075 150.340933L498.009948 473.777416z" fill="#FFFFFF" p-id="3357"></path><path d="M382.426416 475.550914a38.66332 23.87361 0 1 0 77.326639 0 38.66332 23.87361 0 1 0-77.326639 0Z" fill="#0295A5" p-id="3358"></path><path d="M415.183353 475.550914L396.677742 575.331309l23.514688 48.78704 25.309299-48.860935-12.873697-99.7065z" fill="#0295A5" p-id="3359"></path><path d="M498.009948 473.777416l35.021314 3.256692s-46.31681 99.606212-56.931408 117.737066c-10.614599 18.130854-55.917981 29.352453-55.917981 29.352453L498.009948 473.777416z" fill="#342E29" p-id="3360"></path><path d="M347.721798 473.777416l-35.744437 2.274934s41.687768 100.593249 52.302367 118.718824c10.614599 18.130854 55.917981 29.352453 55.91798 29.352453L347.721798 473.777416z" fill="#342E29" p-id="3361"></path><path d="M423.72887 781.53744h-7.07288v-164.301954l3.525883 6.882863 3.546997-6.835359z" fill="#342E29" p-id="3362"></path><path d="M233.368103 153.97766c-21.223919 68.094947-12.979263 146.091926-10.609321 210.481529 4.122328 112.23711 47.604707 129.412597 111.276465 129.412596h155.650871c110.542785 0 116.887265-68.385252 116.887265-133.830507s14.151039-170.683381-10.614599-222.859069c-24.760359-52.180966-341.366762-51.299495-362.590681 16.795451z" fill="#231F20" p-id="3363"></path><path d="M233.410329 142.138503C212.186409 210.23345 220.431065 288.225151 222.79573 352.620032c4.127606 112.242388 47.609985 129.417875 111.281743 129.417875h155.645593c110.542785 0 116.887265-68.39053 116.887265-133.835786 0-65.439978 14.156317-170.683381-10.609321-222.85907-24.760359-52.186245-341.366762-51.304774-362.590681 16.795452z" fill="#F0E3C3" p-id="3364"></path><path d="M221.734798 322.206646c-13.237898 3.541718-27.114467-119.046077-17.370783-172.108513C212.497827 105.77123 194.118895 15.370319 229.409401 0c26.528579 54.835936 99.616769 44.860007 99.616769 44.860007S305.553708 23.63081 313.318041 0c54.360891 29.035757 121.848837 24.522837 233.278372 51.051417 111.429535 26.528579 79.559347 274.976696 64.035959 278.513136-15.518111 3.53644 1.409298-142.317964-24.243089-172.831636-25.64183-30.508394-103.469905 0.047504-162.718474 0.036947-59.259125-0.010557-135.123684-30.255037-166.260192-0.036947-31.141786 30.223368-22.432643 161.93729-35.675819 165.473729z" fill="#56341D" p-id="3365"></path><path d="M392.534301 252.802689c-1.208724 0-2.43856-0.321974-3.562831-0.97648-36.061133-21.033902-70.179863-0.316696-70.517673-0.105566a7.07288 7.07288 0 1 1-7.474029-12.018618c1.683768-1.045097 41.782777-25.388473 85.127921-0.105565a7.083437 7.083437 0 0 1-3.573388 13.206229zM515.148487 252.802689c-1.208724 0-2.43856-0.321974-3.562831-0.97648-36.066411-21.033902-70.179863-0.316696-70.517673-0.105566a7.07288 7.07288 0 1 1-7.474028-12.018618c1.683768-1.045097 41.77222-25.388473 85.12792-0.105565 3.372814 1.968794 4.51292 6.302253 2.538848 9.685623a7.067602 7.067602 0 0 1-6.112236 3.520606z" fill="#56341D" p-id="3366"></path><path d="M335.075066 396.033793c-2.058525-7.50042 2.6233-13.644325 10.408746-13.644325h137.667809c7.780168 0 13.158724 6.291697 11.955279 13.982135 0 0-5.890548 37.607666-77.759457 37.607665s-82.272377-37.945475-82.272377-37.945475z" fill="#EF5A35" p-id="3367"></path><path d="M477.852239 296.628155m-32.508858 0a32.508858 32.508858 0 1 0 65.017717 0 32.508858 32.508858 0 1 0-65.017717 0Z" fill="#E3D7B8" p-id="3368"></path><path d="M352.013031 297.050417m-32.508858 0a32.508858 32.508858 0 1 0 65.017716 0 32.508858 32.508858 0 1 0-65.017716 0Z" fill="#E3D7B8" p-id="3369"></path><path d="M352.013031 303.706314m-32.508858 0a32.508858 32.508858 0 1 0 65.017716 0 32.508858 32.508858 0 1 0-65.017716 0Z" fill="#FFFFFF" p-id="3370"></path><path d="M352.013031 303.706314m-18.510889 0a18.510889 18.510889 0 1 0 37.021778 0 18.510889 18.510889 0 1 0-37.021778 0Z" fill="#6D5237" p-id="3371"></path><path d="M359.344546 290.098937m-10.493198 0a10.493199 10.493199 0 1 0 20.986397 0 10.493199 10.493199 0 1 0-20.986397 0Z" fill="#FFFFFF" p-id="3372"></path><path d="M477.852239 303.706314m-32.508858 0a32.508858 32.508858 0 1 0 65.017717 0 32.508858 32.508858 0 1 0-65.017717 0Z" fill="#FFFFFF" p-id="3373"></path><path d="M477.852239 303.706314m-18.50561 0a18.505611 18.505611 0 1 0 37.011221 0 18.505611 18.505611 0 1 0-37.011221 0Z" fill="#6D5237" p-id="3374"></path><path d="M485.183755 290.098937m-10.48792 0a10.48792 10.48792 0 1 0 20.97584 0 10.48792 10.48792 0 1 0-20.97584 0Z" fill="#FFFFFF" p-id="3375"></path><path d="M357.88190863 418.67428442a48.14204243 23.61948791 0 1 0 96.28408556 0 48.14204243 23.61948791 0 1 0-96.28408556 0Z" fill="#C54A29" p-id="3376"></path><path d="M219.232898 324.650485c-13.237898 3.53644-27.388937-106.124874-17.650531-159.182033 8.139091-44.33218-10.239842-134.727813 25.045386-150.103411 26.528579 54.835936 99.616769 44.865286 99.616769 44.865285s-23.472462-21.223919-15.70285-44.865285c54.360891 29.041035 121.848837 24.528116 233.278372 51.056695 111.429535 26.528579 82.340995 269.735375 66.812328 273.266537-15.518111 3.53644-1.37235-137.081921-27.019459-167.585037-25.64183-30.513672-103.464627 0.042226-162.718473 0.031669-59.253847-0.015835-135.123684-30.260316-166.260192-0.031669-31.136508 30.218089-22.163451 149.010809-35.40135 152.547249z" fill="#231F20" p-id="3377"></path><path d="M338.530922 651.393666a32.952233 38.948346 82.437 1 0 77.219048-10.252472 32.952233 38.948346 82.437 1 0-77.219048 10.252472Z" fill="#F0E3C3" p-id="3378"></path><path d="M359.212589 614.411612l13.654882-2.04269 10.007598 66.353118-13.702386 1.720716z" fill="#FFFFFF" p-id="3379"></path><path d="M367.768663 619.051211m-2.744699 0a2.7447 2.7447 0 1 0 5.489399 0 2.7447 2.7447 0 1 0-5.489399 0Z" fill="#B8BABC" p-id="3380"></path><path d="M371.790704 685.435998l-9.923145-73.616016c-24.797307 0.54894-89.42971 2.100751-129.940424-10.619877-8.313274-2.607465-15.655346-5.806096-21.487833-9.706736-2.929439-1.963516-4.402076-3.531162-4.951016-4.285955 0.643949-6.597836 11.865548-18.146688 24.053072-26.032422-1.630985-22.707113-2.676082-40.447375-2.676083-48.496734 0-19.540151 12.345871-29.315505 23.720541-34.18207-42.532291 0.279748-100.962727 37.085117-115.921342 86.294418-10.340129 33.986773 2.528291 67.034015 34.42487 88.405726 19.107333 12.80508 43.123457 20.76471 68.142451 25.573213v0.010556l0.343088 0.052783 1.472637 0.30614-0.005278-0.042227c25.435978 4.724051 51.806209 6.270583 75.083375 6.270584 35.665263 0.005278 64.041236-3.525884 57.665087 0.068617z" fill="#37302B" p-id="3381"></path></svg>