<?xml version="1.0" encoding="utf-8"?>
<!-- Generator: Adobe Illustrator 16.2.0, SVG Export Plug-In . SVG Version: 6.00 Build 0)  -->
<!DOCTYPE svg PUBLIC "-//W3C//DTD SVG 1.1//EN" "http://www.w3.org/Graphics/SVG/1.1/DTD/svg11.dtd">
<svg version="1.1" id="图层_1" xmlns="http://www.w3.org/2000/svg" xmlns:xlink="http://www.w3.org/1999/xlink" x="0px" y="0px"
	 width="55px" height="55px" viewBox="0 0 55 55" enable-background="new 0 0 55 55" xml:space="preserve">
<g>
	<g>
		<g>
			<path fill="#B5B4B4" d="M50,0.5c2.481,0,4.5,2.019,4.5,4.5v45c0,2.481-2.019,4.5-4.5,4.5H5c-2.481,0-4.5-2.019-4.5-4.5V5
				c0-2.481,2.019-4.5,4.5-4.5H50 M50,0H5C2.25,0,0,2.25,0,5v45c0,2.75,2.25,5,5,5h45c2.75,0,5-2.25,5-5V5C55,2.25,52.75,0,50,0
				L50,0z"/>
		</g>
	</g>
	<g>
		<g>
			<path fill="#B5B4B4" d="M48.844,7.016v40.969H6.156V7.016H48.844 M49.844,6.016H5.156v42.969h44.688V6.016L49.844,6.016z"/>
		</g>
	</g>
	<polygon fill="#B5B4B4" points="38.602,24.857 38.602,19.843 33.586,19.843 33.586,24.857 28.887,24.857 28.887,32.378 
		43.303,32.378 43.303,24.857 	"/>
	<g>
		<circle fill="#B5B4B4" cx="16.327" cy="26.109" r="6.267"/>
		<path fill="#2D3237" d="M16.328,28.586c-1.366,0-2.477-1.111-2.477-2.477s1.11-2.475,2.477-2.475c1.364,0,2.475,1.109,2.475,2.475
			S17.692,28.586,16.328,28.586z"/>
	</g>
</g>
</svg>
