<?xml version="1.0" encoding="utf-8"?>
<!-- Generator: Adobe Illustrator 16.2.0, SVG Export Plug-In . SVG Version: 6.00 Build 0)  -->
<!DOCTYPE svg PUBLIC "-//W3C//DTD SVG 1.1//EN" "http://www.w3.org/Graphics/SVG/1.1/DTD/svg11.dtd">
<svg version="1.1" id="图层_1" xmlns="http://www.w3.org/2000/svg" xmlns:xlink="http://www.w3.org/1999/xlink" x="0px" y="0px"
	 width="55px" height="55px" viewBox="0 0 55 55" enable-background="new 0 0 55 55" xml:space="preserve">
<g>
	<g>
		<g>
			<path fill="#B5B4B4" d="M31.917,21.381c-0.536,0-0.975-0.44-0.975-0.975v-4.772c0-0.536,0-1.414,0-1.949v-2.044
				c0-0.535,0-1.412,0-1.947V0.975C30.942,0.438,30.504,0,29.968,0h-2.044c-0.536,0-0.975,0.438-0.975,0.975v8.719
				c0,0.536-0.438,0.974-0.974,0.974h-6.571c-0.536,0-0.974,0.438-0.974,0.973v2.044c0,0.536,0.438,0.974,0.974,0.974h6.571
				c0.536,0,0.974,0.439,0.974,0.975v4.772c0,0.535,0,1.414,0,1.949v2.044c0,0.536,0.439,0.974,0.975,0.974h2.044
				c0.536,0,1.413,0,1.949,0h9.107c0.536,0,0.975,0.439,0.975,0.976v3.397c0,0.537,0.438,0.973,0.974,0.973h2.044
				c0.536,0,0.974-0.437,0.974-0.973v-3.397c0-0.537,0-1.414,0-1.949v-1.226c0-0.535,0-1.157,0-1.383s-0.438-0.41-0.974-0.41H31.917
				z"/>
		</g>
		<g>
			<path fill="#B5B4B4" d="M41.5,32.216c-0.282,0-0.513-0.232-0.513-0.515V31.36c0-0.283,0.231-0.513,0.513-0.513h5.362
				c0.282,0,0.514,0.23,0.514,0.513v0.341c0,0.283-0.231,0.515-0.514,0.515H41.5z"/>
		</g>
		<g>
			<path fill="#B5B4B4" d="M43.56,34.165l-3.476,6.022c0,1.918,1.557,3.476,3.476,3.476c1.92,0,3.476-1.557,3.476-3.476
				L43.56,34.165z"/>
		</g>
		<g>
			<path fill="#B5B4B4" d="M18.43,15.508c0,0.283-0.231,0.513-0.513,0.513h-0.342c-0.283,0-0.514-0.23-0.514-0.513v-5.36
				c0-0.283,0.231-0.513,0.514-0.513h0.342c0.282,0,0.513,0.23,0.513,0.513V15.508z"/>
		</g>
	</g>
	<g>
		<g>
			<path fill="#B5B4B4" d="M50,0.5c2.481,0,4.5,2.019,4.5,4.5v45c0,2.481-2.019,4.5-4.5,4.5H5c-2.481,0-4.5-2.019-4.5-4.5V5
				c0-2.481,2.019-4.5,4.5-4.5H50 M50,0H5C2.25,0,0,2.25,0,5v45c0,2.75,2.25,5,5,5h45c2.75,0,5-2.25,5-5V5C55,2.25,52.75,0,50,0
				L50,0z"/>
		</g>
	</g>
	<g>
		<polygon fill="#B5B4B4" stroke="#B5B4B4" stroke-miterlimit="10" points="9.323,34.977 8.925,35.102 7.625,33.685 7.902,33.429 		
			"/>
		<polygon fill="#B5B4B4" stroke="#B5B4B4" stroke-miterlimit="10" points="10.801,42.104 8.924,42.521 8.842,42.153 10.892,41.696 
					"/>
		<polygon fill="#B5B4B4" stroke="#B5B4B4" stroke-miterlimit="10" points="9.323,38.979 7.902,40.526 7.625,40.271 8.926,38.854 		
			"/>
		<polygon fill="#B5B4B4" stroke="#B5B4B4" stroke-miterlimit="10" points="9.207,35.408 9.605,35.283 10.9,36.694 14.871,36.694 
			15.361,36.977 14.871,37.261 10.9,37.261 9.604,38.672 9.207,38.547 10.388,37.261 6.546,37.261 6.546,36.694 10.388,36.694 		"/>
		<polygon fill="#B5B4B4" stroke="#B5B4B4" stroke-miterlimit="10" points="11.299,41.606 13.169,41.19 15.154,37.751 
			15.645,37.468 15.645,38.034 13.659,41.473 14.233,43.301 13.926,43.582 13.403,41.916 11.482,45.243 11.482,45.244 
			10.991,44.961 10.991,44.96 12.912,41.633 11.208,42.013 		"/>
		<polygon fill="#B5B4B4" stroke="#B5B4B4" stroke-miterlimit="10" points="18.452,41.916 17.929,43.582 17.622,43.3 18.196,41.473 
			16.939,39.296 16.21,38.035 16.21,37.468 16.701,37.751 18.687,41.19 20.556,41.605 20.646,42.013 18.942,41.634 20.863,44.961 
			20.373,45.244 20.373,45.243 20.373,45.243 		"/>
		<polygon fill="#B5B4B4" stroke="#B5B4B4" stroke-miterlimit="10" points="17.804,43.979 17.227,45.815 16.867,45.701 
			17.497,43.698 		"/>
		<polygon fill="#B5B4B4" stroke="#B5B4B4" stroke-miterlimit="10" points="14.358,43.698 14.988,45.701 14.628,45.814 
			14.051,43.979 		"/>
		<polygon fill="#B5B4B4" stroke="#B5B4B4" stroke-miterlimit="10" points="20.963,41.696 23.013,42.152 22.931,42.521 
			21.053,42.104 		"/>
		<polygon fill="#B5B4B4" stroke="#B5B4B4" stroke-miterlimit="10" points="22.532,34.977 23.952,33.429 24.23,33.685 22.93,35.102 
					"/>
		<polygon fill="#B5B4B4" stroke="#B5B4B4" stroke-miterlimit="10" points="21.053,31.852 22.931,31.434 23.013,31.802 
			20.963,32.259 		"/>
		<polygon fill="#B5B4B4" stroke="#B5B4B4" stroke-miterlimit="10" points="10.892,32.259 8.842,31.802 8.924,31.434 10.801,31.852 
					"/>
		<polygon fill="#B5B4B4" stroke="#B5B4B4" stroke-miterlimit="10" points="22.532,38.979 22.93,38.854 24.23,40.271 23.952,40.526 
					"/>
		<polygon fill="#B5B4B4" stroke="#B5B4B4" stroke-miterlimit="10" points="22.647,38.547 22.25,38.672 20.955,37.261 
			16.983,37.261 16.494,36.977 16.984,36.694 20.955,36.694 22.25,35.283 22.647,35.408 21.467,36.694 25.309,36.694 25.309,37.261 
			21.467,37.261 		"/>
		<polygon fill="#B5B4B4" stroke="#B5B4B4" stroke-miterlimit="10" points="13.926,30.373 14.233,30.655 13.659,32.482 
			15.645,35.922 15.645,36.488 15.154,36.205 13.169,32.766 11.299,32.349 11.208,31.942 12.912,32.322 10.991,28.995 
			10.991,28.995 11.274,28.831 11.481,28.712 11.482,28.712 13.402,32.039 		"/>
		<polygon fill="#B5B4B4" stroke="#B5B4B4" stroke-miterlimit="10" points="20.556,32.349 18.687,32.765 16.701,36.205 
			16.21,36.488 16.21,35.922 18.196,32.482 17.622,30.655 17.929,30.373 18.452,32.039 20.373,28.712 20.863,28.995 18.942,32.322 
			20.646,31.942 		"/>
		<polygon fill="#B5B4B4" stroke="#B5B4B4" stroke-miterlimit="10" points="14.051,29.976 14.628,28.141 14.988,28.254 
			14.358,30.257 		"/>
		<polygon fill="#B5B4B4" stroke="#B5B4B4" stroke-miterlimit="10" points="17.497,30.257 16.867,28.254 17.227,28.141 
			17.803,29.976 		"/>
	</g>
</g>
</svg>
