<?xml version="1.0" encoding="utf-8"?>
<!-- Generator: Adobe Illustrator 16.2.0, SVG Export Plug-In . SVG Version: 6.00 Build 0)  -->
<!DOCTYPE svg PUBLIC "-//W3C//DTD SVG 1.1//EN" "http://www.w3.org/Graphics/SVG/1.1/DTD/svg11.dtd">
<svg version="1.1" id="图层_1" xmlns="http://www.w3.org/2000/svg" xmlns:xlink="http://www.w3.org/1999/xlink" x="0px" y="0px"
	 width="55px" height="55px" viewBox="0 0 55 55" enable-background="new 0 0 55 55" xml:space="preserve">
<g>
	<g>
		<g>
			<path fill="#B5B4B4" d="M50,0.5c2.481,0,4.5,2.019,4.5,4.5v45c0,2.481-2.019,4.5-4.5,4.5H5c-2.481,0-4.5-2.019-4.5-4.5V5
				c0-2.481,2.019-4.5,4.5-4.5H50 M50,0H5C2.25,0,0,2.25,0,5v45c0,2.75,2.25,5,5,5h45c2.75,0,5-2.25,5-5V5C55,2.25,52.75,0,50,0
				L50,0z"/>
		</g>
	</g>
	<g>
		<g>
			<path fill="#B5B4B4" d="M48.844,7.016v40.969H6.156V7.016H48.844 M49.844,6.016H5.156v42.969h44.688V6.016L49.844,6.016z"/>
		</g>
	</g>
	<g>
		<rect x="26.641" y="26.354" fill="#B5B4B4" width="1.719" height="5.156"/>
		
			<rect x="21.412" y="36.951" transform="matrix(0.866 -0.5001 0.5001 0.866 -16.7824 16.434)" fill="#B5B4B4" width="1.719" height="5.157"/>
		
			<rect x="31.867" y="36.951" transform="matrix(-0.8663 -0.4996 0.4996 -0.8663 41.3313 90.123)" fill="#B5B4B4" width="1.72" height="5.157"/>
	</g>
	<g>
		<path fill="#B5B4B4" d="M21.896,14.459v1.283c-0.381-0.474-0.957-0.782-1.611-0.782c-1.148,0-2.078,0.93-2.078,2.077
			c0,1.147,0.93,2.077,2.078,2.077c0.654,0,1.23-0.308,1.611-0.782v1.283h1.719v-5.157H21.896z"/>
		<path fill="#B5B4B4" d="M33.104,14.459v1.283c0.381-0.474,0.957-0.782,1.611-0.782c1.148,0,2.078,0.93,2.078,2.077
			c0,1.147-0.93,2.077-2.078,2.077c-0.654,0-1.23-0.308-1.611-0.782v1.283h-1.719v-5.157H33.104z"/>
	</g>
</g>
</svg>
