<?xml version="1.0" encoding="utf-8"?>
<!-- Generator: Adobe Illustrator 16.2.0, SVG Export Plug-In . SVG Version: 6.00 Build 0)  -->
<!DOCTYPE svg PUBLIC "-//W3C//DTD SVG 1.1//EN" "http://www.w3.org/Graphics/SVG/1.1/DTD/svg11.dtd">
<svg version="1.1" id="图层_1" xmlns="http://www.w3.org/2000/svg" xmlns:xlink="http://www.w3.org/1999/xlink" x="0px" y="0px"
	 width="55px" height="55px" viewBox="0 0 55 55" enable-background="new 0 0 55 55" xml:space="preserve">
<g>
	<g>
		<g>
			<path fill="#B5B4B4" d="M31.917,21.381c-0.536,0-0.975-0.44-0.975-0.975v-4.772c0-0.536,0-1.414,0-1.949v-2.044
				c0-0.535,0-1.412,0-1.947V0.975C30.942,0.438,30.504,0,29.968,0h-2.044c-0.536,0-0.975,0.438-0.975,0.975v8.719
				c0,0.536-0.438,0.974-0.974,0.974h-6.571c-0.536,0-0.974,0.438-0.974,0.973v2.044c0,0.536,0.438,0.974,0.974,0.974h6.571
				c0.535,0,0.974,0.439,0.974,0.975v4.772c0,0.535,0,1.414,0,1.949v2.044c0,0.536,0.438,0.974,0.975,0.974h2.044
				c0.536,0,1.413,0,1.949,0h9.107c0.536,0,0.975,0.439,0.975,0.976v3.397c0,0.537,0.438,0.973,0.975,0.973h2.044
				c0.536,0,0.974-0.437,0.974-0.973v-3.397c0-0.537,0-1.414,0-1.949v-1.226c0-0.535,0-1.157,0-1.383s-0.438-0.41-0.974-0.41H31.917
				z"/>
		</g>
		<g>
			<path fill="#B5B4B4" d="M41.501,32.216c-0.283,0-0.514-0.232-0.514-0.515V31.36c0-0.283,0.23-0.513,0.514-0.513h5.361
				c0.282,0,0.514,0.23,0.514,0.513v0.341c0,0.283-0.231,0.515-0.514,0.515H41.501z"/>
		</g>
		<g>
			<path fill="#B5B4B4" d="M43.56,34.165l-3.477,6.022c0,1.918,1.558,3.476,3.477,3.476c1.92,0,3.476-1.557,3.476-3.476
				L43.56,34.165z"/>
		</g>
		<g>
			<path fill="#B5B4B4" d="M18.431,15.508c0,0.283-0.231,0.513-0.514,0.513h-0.342c-0.283,0-0.514-0.23-0.514-0.513v-5.36
				c0-0.283,0.23-0.513,0.514-0.513h0.342c0.282,0,0.514,0.23,0.514,0.513V15.508z"/>
		</g>
	</g>
	<g>
		<line fill="none" stroke="#B5B4B4" stroke-width="1.5" stroke-miterlimit="10" x1="16.999" y1="26.825" x2="16.999" y2="45.825"/>
		<line fill="none" stroke="#B5B4B4" stroke-width="1.5" stroke-miterlimit="10" x1="10.281" y1="29.607" x2="23.717" y2="43.043"/>
		<line fill="none" stroke="#B5B4B4" stroke-width="1.5" stroke-miterlimit="10" x1="7.499" y1="36.326" x2="26.499" y2="36.326"/>
		<line fill="none" stroke="#B5B4B4" stroke-width="1.5" stroke-miterlimit="10" x1="10.281" y1="43.043" x2="23.717" y2="29.608"/>
		<circle fill="#2D3237" stroke="#B5B4B4" stroke-width="1.5" stroke-miterlimit="10" cx="16.999" cy="36.325" r="5.674"/>
	</g>
	<g>
		<g>
			<path fill="#B5B4B4" d="M50,0.5c2.481,0,4.5,2.019,4.5,4.5v45c0,2.481-2.019,4.5-4.5,4.5H5c-2.481,0-4.5-2.019-4.5-4.5V5
				c0-2.481,2.019-4.5,4.5-4.5H50 M50,0H5C2.25,0,0,2.25,0,5v45c0,2.75,2.25,5,5,5h45c2.75,0,5-2.25,5-5V5C55,2.25,52.75,0,50,0
				L50,0z"/>
		</g>
	</g>
</g>
</svg>
