<?xml version="1.0" encoding="utf-8"?>
<!-- Generator: Adobe Illustrator 16.2.0, SVG Export Plug-In . SVG Version: 6.00 Build 0)  -->
<!DOCTYPE svg PUBLIC "-//W3C//DTD SVG 1.1//EN" "http://www.w3.org/Graphics/SVG/1.1/DTD/svg11.dtd">
<svg version="1.1" id="图层_1" xmlns="http://www.w3.org/2000/svg" xmlns:xlink="http://www.w3.org/1999/xlink" x="0px" y="0px"
	 width="55px" height="55px" viewBox="0 0 55 55" enable-background="new 0 0 55 55" xml:space="preserve">
<g>
	<g>
		<path fill="#B5B4B4" d="M54.5,0.501v53.998H0.5V0.501H54.5 M55,0.001H0v54.998H55V0.001L55,0.001z"/>
	</g>
	<g>
		<path fill="#B5B4B4" d="M54.5,0.501v53.998h-25V0.501H54.5 M55,0.001H29v54.998h26V0.001L55,0.001z"/>
	</g>
	<g opacity="0.6">
		<g>
			<g>
				<path fill="#B5B4B4" d="M10.208,19.2H9.719c-1.012,0-1.834-0.822-1.834-1.833V9.074c0-1.013,0.823-1.836,1.834-1.836h0.489
					c1.011,0,1.834,0.823,1.834,1.836v8.293C12.042,18.378,11.219,19.2,10.208,19.2z M9.719,8.408c-0.366,0-0.665,0.299-0.665,0.666
					v8.293c0,0.365,0.298,0.663,0.665,0.663h0.489c0.366,0,0.664-0.298,0.664-0.663V9.074c0-0.367-0.298-0.666-0.664-0.666H9.719z"
					/>
			</g>
			<g>
				<path fill="#B5B4B4" d="M19.175,19.2h-0.491c-1.011,0-1.834-0.822-1.834-1.833V9.074c0-1.013,0.823-1.836,1.834-1.836h0.491
					c1.011,0,1.834,0.823,1.834,1.836v8.293C21.009,18.378,20.186,19.2,19.175,19.2z M18.684,8.408
					c-0.366,0-0.664,0.299-0.664,0.666v8.293c0,0.365,0.298,0.663,0.664,0.663h0.491c0.366,0,0.664-0.298,0.664-0.663V9.074
					c0-0.367-0.298-0.666-0.664-0.666H18.684z"/>
			</g>
		</g>
		<g>
			<path fill="#B5B4B4" d="M24.745,19.363c0.637,0,1.157,0.52,1.157,1.157v0.674c0,0.637-0.52,1.156-1.157,1.156h-0.99
				c0.202,0.385,0.318,0.82,0.318,1.283v3.518c0,1.527-1,2.777-2.222,2.777s-2.222,1.25-2.222,2.777v1.48
				c0,1.525-1.25,2.775-2.776,2.775h-4.814c-1.527,0-2.776-1.25-2.776-2.775v-1.48c0-1.527-1-2.777-2.222-2.777
				c-1.221,0-2.222-1.25-2.222-2.777v-3.518c0-0.463,0.116-0.898,0.318-1.283h-0.99c-0.637,0-1.158-0.52-1.158-1.156v-0.674
				c0-0.638,0.521-1.157,1.158-1.157H24.745 M24.745,18.192H4.147c-1.284,0-2.329,1.044-2.329,2.328v0.674
				c0,1.112,0.787,2.046,1.834,2.273c-0.002,0.056-0.004,0.11-0.004,0.166v3.518c0,2.178,1.522,3.947,3.392,3.947
				c0.497,0,1.051,0.659,1.051,1.607v1.48c0,2.176,1.771,3.946,3.947,3.946h4.814c2.176,0,3.947-1.771,3.947-3.946v-1.48
				c0-0.948,0.554-1.607,1.051-1.607c1.871,0,3.393-1.77,3.393-3.947v-3.518c0-0.056-0.001-0.11-0.004-0.166
				c1.046-0.228,1.833-1.161,1.833-2.273v-0.674C27.073,19.236,26.028,18.192,24.745,18.192L24.745,18.192z"/>
		</g>
		<g>
			<polyline fill="#B5B4B4" points="12.777,54.948 12.777,38.003 15.84,38.003 15.84,54.891 			"/>
		</g>
		<g>
			<polygon fill="#B5B4B4" points="17.636,25.619 14,26.255 16.18,19.928 11.32,28.475 14.956,27.84 12.776,34.8 			"/>
		</g>
	</g>
	<g>
		<rect x="38.195" y="24.273" fill="#B5B4B4" width="8.056" height="18.245"/>
		<rect x="34.168" y="38.222" fill="#B5B4B4" width="16.108" height="4.297"/>
		<rect x="34.168" y="41.659" opacity="0.5" fill="#B5B4B4" width="16.108" height="3.508"/>
	</g>
	<g>
		<path fill="#C8C8C9" d="M46.805,13.756c0,1.181-0.966,2.147-2.147,2.147h-4.868c-1.181,0-2.147-0.966-2.147-2.147v-0.001
			c0-1.181,0.966-2.147,2.147-2.147h4.868C45.838,11.607,46.805,12.574,46.805,13.756L46.805,13.756z"/>
	</g>
</g>
</svg>
