<?xml version="1.0" encoding="utf-8"?>
<!-- Generator: Adobe Illustrator 16.2.0, SVG Export Plug-In . SVG Version: 6.00 Build 0)  -->
<!DOCTYPE svg PUBLIC "-//W3C//DTD SVG 1.1//EN" "http://www.w3.org/Graphics/SVG/1.1/DTD/svg11.dtd">
<svg version="1.1" id="图层_1" xmlns="http://www.w3.org/2000/svg" xmlns:xlink="http://www.w3.org/1999/xlink" x="0px" y="0px"
	 width="55px" height="55px" viewBox="0 0 55 55" enable-background="new 0 0 55 55" xml:space="preserve">
<g>
	<g>
		<g>
			<path fill="#B5B4B4" d="M50,0.5c2.481,0,4.5,2.019,4.5,4.5v45c0,2.481-2.019,4.5-4.5,4.5H5c-2.481,0-4.5-2.019-4.5-4.5V5
				c0-2.481,2.019-4.5,4.5-4.5H50 M50,0H5C2.25,0,0,2.25,0,5v45c0,2.75,2.25,5,5,5h45c2.75,0,5-2.25,5-5V5C55,2.25,52.75,0,50,0
				L50,0z"/>
		</g>
	</g>
	<g>
		<g>
			<path fill="#B5B4B4" d="M48.844,7.016v40.968H6.156V7.016H48.844 M49.844,6.016H5.156v42.968h44.688V6.016L49.844,6.016z"/>
		</g>
	</g>
	<g>
		<rect x="17.617" y="15.621" fill="#B5B4B4" width="2.578" height="7.734"/>
		
			<rect x="9.775" y="31.518" transform="matrix(0.8657 -0.5006 0.5006 0.8657 -16.2284 10.2925)" fill="#B5B4B4" width="2.579" height="7.735"/>
		
			<rect x="25.459" y="31.518" transform="matrix(-0.8657 -0.5006 0.5006 -0.8657 32.1882 79.4086)" fill="#B5B4B4" width="2.579" height="7.735"/>
	</g>
	<g>
		<rect x="33.499" y="10.743" fill="none" stroke="#B5B4B4" stroke-miterlimit="10" width="13.463" height="33.515"/>
		<line fill="none" stroke="#B5B4B4" stroke-width="2" stroke-miterlimit="10" x1="36.792" y1="15.389" x2="43.667" y2="15.389"/>
	</g>
</g>
</svg>
