<?xml version="1.0" encoding="utf-8"?>
<!-- Generator: Adobe Illustrator 16.2.0, SVG Export Plug-In . SVG Version: 6.00 Build 0)  -->
<!DOCTYPE svg PUBLIC "-//W3C//DTD SVG 1.1//EN" "http://www.w3.org/Graphics/SVG/1.1/DTD/svg11.dtd">
<svg version="1.1" id="图层_1" xmlns="http://www.w3.org/2000/svg" xmlns:xlink="http://www.w3.org/1999/xlink" x="0px" y="0px"
	 width="55px" height="55px" viewBox="0 0 55 55" enable-background="new 0 0 55 55" xml:space="preserve">
<g>
	<g>
		<path fill="#B5B4B4" d="M54.5,0.499v53.999h-54V0.499H54.5 M55-0.001H0v54.999h55V-0.001L55-0.001z"/>
	</g>
	<g>
		<g>
			<path fill="#B5B4B4" d="M49.344,0.501v54H5.656v-54H49.344 M49.844,0.001H5.156v55h44.688V0.001L49.844,0.001z"/>
		</g>
	</g>
	<g>
		<g>
			<path fill="#2D3237" stroke="#B5B4B4" stroke-width="3" stroke-miterlimit="10" d="M38.427,33.625c0,0,0-0.001,0-0.002
				c0-0.021-0.002-0.041-0.002-0.061c0-0.173-0.005-0.346-0.012-0.516c-0.002-0.004-0.002-0.009-0.002-0.014
				c-0.007-0.154-0.021-0.307-0.033-0.461c-0.003-0.021-0.004-0.045-0.005-0.067v-0.001c-0.004-0.031-0.007-0.063-0.009-0.094
				c-0.001-0.003-0.001-0.006-0.001-0.01c-0.007-0.062-0.015-0.122-0.024-0.183c-0.016-0.138-0.033-0.276-0.056-0.413
				c0-0.002,0-0.003,0-0.003c-0.016-0.108-0.038-0.218-0.058-0.325c-0.002-0.009-0.004-0.018-0.006-0.027
				c-0.013-0.076-0.027-0.151-0.043-0.227c0-0.002,0-0.003,0-0.006c-0.019-0.079-0.039-0.158-0.056-0.237
				c-0.003-0.008-0.004-0.017-0.007-0.025c-0.023-0.101-0.047-0.2-0.072-0.3l0,0c-0.003-0.01-0.006-0.02-0.008-0.027
				c-0.113-0.42-0.248-0.831-0.405-1.23c-0.001-0.004-0.003-0.006-0.005-0.009c0-0.003,0-0.003,0-0.005
				c-0.229-0.582-0.504-1.143-0.82-1.676c0.01,0.016,0.02,0.032,0.03,0.049c0.012,0.02,0.024,0.039,0.035,0.059L26.827,10.419
				L16.778,27.821c0.005-0.011,0.012-0.019,0.018-0.028c0.031-0.054,0.063-0.108,0.095-0.162c-0.026,0.045-0.051,0.09-0.077,0.134
				c-0.021,0.038-0.045,0.077-0.069,0.118c-0.003,0.008-0.009,0.018-0.013,0.025c-0.088,0.152-0.17,0.307-0.249,0.462
				c-0.01,0.019-0.019,0.036-0.028,0.056c-0.004,0.004-0.005,0.01-0.008,0.016c-0.48,0.957-0.83,1.99-1.029,3.077
				c-0.004,0.024-0.009,0.05-0.014,0.075c-0.03,0.176-0.057,0.352-0.08,0.53c-0.004,0.03-0.011,0.06-0.014,0.09
				c-0.003,0.023-0.007,0.047-0.009,0.069c-0.003,0.022-0.003,0.044-0.005,0.065c-0.01,0.074-0.016,0.148-0.023,0.224
				c-0.004,0.045-0.008,0.09-0.012,0.133c-0.006,0.061-0.01,0.121-0.014,0.182c-0.002,0.025-0.002,0.05-0.004,0.075
				c-0.002,0.05-0.004,0.099-0.006,0.149c-0.002,0.036-0.006,0.075-0.006,0.114c-0.003,0.088-0.006,0.177-0.006,0.267
				c-0.002,0.031,0,0.063,0,0.094c0,0.014-0.002,0.025-0.002,0.037c0,0.015,0.002,0.025,0.002,0.037c0,0.041-0.002,0.08,0,0.119
				c0,0.087,0.003,0.175,0.006,0.262c0,0.045,0.004,0.092,0.006,0.137c0.002,0.025,0.003,0.049,0.004,0.074
				c0.001,0.023,0.001,0.047,0.004,0.07c0,0.012,0,0.024,0.002,0.037c0.004,0.064,0.008,0.128,0.014,0.191
				c0.005,0.047,0.01,0.092,0.016,0.139c0.004,0.061,0.01,0.123,0.016,0.184c0.004,0.03,0.005,0.061,0.009,0.091
				c0.002,0.022,0.005,0.046,0.007,0.067c0.004,0.024,0.01,0.048,0.014,0.072c0.17,1.33,0.563,2.588,1.143,3.738
				c0.001,0.002,0.002,0.004,0.004,0.006c0.003,0.01,0.01,0.02,0.015,0.028c0.084,0.167,0.173,0.33,0.265,0.491
				c0.004,0.008,0.01,0.016,0.012,0.023c0.014,0.024,0.028,0.048,0.043,0.072c0.002,0.005,0.005,0.009,0.006,0.014
				c0.07,0.117,0.142,0.234,0.215,0.35c0.017,0.025,0.032,0.053,0.049,0.08c0.012,0.02,0.023,0.037,0.037,0.057
				c0.01,0.016,0.021,0.029,0.032,0.047c0.056,0.084,0.114,0.168,0.171,0.252c0.029,0.041,0.056,0.082,0.086,0.123
				c0.016,0.023,0.031,0.046,0.049,0.069c0.015,0.019,0.029,0.038,0.043,0.056c0.039,0.053,0.078,0.104,0.117,0.154
				c0.043,0.058,0.086,0.113,0.129,0.17c0.024,0.031,0.05,0.063,0.074,0.094c0.016,0.02,0.033,0.037,0.049,0.056
				c0.017,0.021,0.035,0.042,0.053,0.063c0.054,0.063,0.105,0.129,0.16,0.19c0.014,0.017,0.027,0.032,0.041,0.048
				c0.029,0.033,0.059,0.066,0.088,0.098c0.072,0.082,0.146,0.16,0.219,0.238c0.023,0.023,0.045,0.046,0.066,0.068
				c0.041,0.043,0.084,0.088,0.125,0.129c0.061,0.061,0.123,0.12,0.186,0.18c0.02,0.019,0.04,0.038,0.061,0.057
				c0.062,0.06,0.123,0.119,0.188,0.176c0.055,0.051,0.109,0.098,0.166,0.146c0.008,0.006,0.016,0.014,0.024,0.021
				c0.067,0.058,0.136,0.115,0.206,0.173c0.002,0.002,0.006,0.005,0.008,0.007c0.018,0.014,0.033,0.028,0.051,0.043
				c0.049,0.039,0.098,0.078,0.147,0.117c0.061,0.047,0.122,0.092,0.183,0.14c0.029,0.021,0.055,0.042,0.084,0.063
				c0.019,0.015,0.037,0.03,0.057,0.043c0.043,0.031,0.084,0.061,0.125,0.09c0.045,0.03,0.09,0.061,0.135,0.091
				c0.059,0.042,0.119,0.083,0.18,0.124c0.016,0.011,0.033,0.023,0.05,0.034c0.038,0.024,0.075,0.05,0.114,0.073
				c0.023,0.014,0.047,0.029,0.07,0.043c0.101,0.063,0.199,0.124,0.303,0.185c0.002,0.001,0.006,0.003,0.01,0.005
				c0.043,0.027,0.086,0.053,0.131,0.077c0.012,0.007,0.021,0.012,0.035,0.019c0.15,0.086,0.304,0.168,0.461,0.248
				c0.016,0.007,0.029,0.016,0.044,0.023c0.003,0.001,0.005,0.002,0.009,0.004c0.775,0.389,1.602,0.693,2.465,0.9
				c0.014,0.003,0.028,0.007,0.043,0.01c0.183,0.044,0.369,0.082,0.557,0.117c0.053,0.011,0.105,0.02,0.158,0.029
				c0.145,0.023,0.289,0.045,0.434,0.064c0.049,0.007,0.098,0.017,0.148,0.023c0.012,0,0.023,0.002,0.033,0.003
				c0.035,0.005,0.07,0.007,0.105,0.011c0.053,0.005,0.105,0.01,0.158,0.015c0.059,0.005,0.119,0.013,0.18,0.017
				c0.055,0.004,0.111,0.01,0.168,0.013c0.037,0.003,0.074,0.003,0.111,0.007c0.026,0,0.053,0,0.08,0.003
				c0.049,0.001,0.1,0.005,0.148,0.006c0.085,0.003,0.167,0.006,0.253,0.007c0.044,0,0.085,0,0.129,0c0.006,0,0.012,0,0.019,0
				s0.013,0,0.019,0c0.042,0,0.084,0,0.126,0c0.089-0.001,0.174-0.004,0.262-0.007c0.051-0.001,0.101-0.005,0.15-0.007
				c0.024-0.002,0.046-0.002,0.069-0.002c0.035-0.003,0.071-0.004,0.106-0.006c0.064-0.004,0.129-0.01,0.194-0.015
				c0.057-0.005,0.113-0.011,0.169-0.017c0.049-0.004,0.098-0.009,0.146-0.013c0.031-0.004,0.064-0.007,0.096-0.011
				c0.026-0.002,0.053-0.006,0.079-0.01c0.042-0.005,0.082-0.012,0.123-0.019c0.155-0.021,0.311-0.044,0.463-0.071
				c0.044-0.008,0.086-0.014,0.128-0.021c0.194-0.037,0.39-0.078,0.581-0.124c0.006-0.001,0.016-0.003,0.023-0.005
				c0.461-0.111,0.91-0.25,1.348-0.414c0.004,0,0.004-0.002,0.007-0.002c0.013-0.004,0.023-0.01,0.035-0.015
				c0.173-0.065,0.345-0.135,0.512-0.208c0.003-0.002,0.007-0.003,0.011-0.005c0.023-0.009,0.045-0.021,0.068-0.031
				c0.152-0.068,0.304-0.14,0.453-0.212c0.01-0.007,0.021-0.011,0.031-0.016c0.058-0.03,0.117-0.061,0.176-0.092
				c0.102-0.053,0.204-0.109,0.305-0.165c0.021-0.011,0.041-0.022,0.061-0.033c0.044-0.024,0.088-0.05,0.133-0.077
				c0.01-0.006,0.02-0.014,0.031-0.019c0.086-0.052,0.174-0.105,0.26-0.159c0.024-0.017,0.053-0.031,0.077-0.048
				c0.026-0.016,0.052-0.032,0.078-0.05c0.017-0.01,0.032-0.02,0.048-0.03c0.02-0.013,0.038-0.026,0.059-0.04
				c0.053-0.036,0.107-0.074,0.162-0.11c0.029-0.021,0.061-0.041,0.089-0.062c0.063-0.045,0.13-0.09,0.193-0.138
				c0.017-0.013,0.034-0.025,0.05-0.038c0.021-0.015,0.041-0.029,0.059-0.045c0.034-0.024,0.068-0.049,0.1-0.076
				c0.091-0.07,0.184-0.139,0.271-0.213c0.035-0.027,0.069-0.057,0.104-0.085c0.031-0.026,0.059-0.056,0.09-0.081
				c0.134-0.114,0.266-0.234,0.395-0.354c0.057-0.054,0.112-0.106,0.168-0.16c0.135-0.13,0.262-0.263,0.389-0.399
				c0.025-0.027,0.055-0.053,0.08-0.081c0.004-0.005,0.013-0.012,0.018-0.018c0.102-0.114,0.201-0.229,0.299-0.347
				c0.029-0.033,0.057-0.066,0.084-0.1c0.076-0.093,0.151-0.189,0.225-0.285c0.018-0.023,0.035-0.047,0.053-0.07
				c0.025-0.031,0.047-0.061,0.07-0.092c0.006-0.008,0.014-0.018,0.02-0.026c0.057-0.073,0.107-0.148,0.16-0.224
				c0.016-0.021,0.028-0.042,0.043-0.064c0.045-0.063,0.086-0.123,0.128-0.186c0.005-0.009,0.012-0.018,0.017-0.025
				c0.037-0.056,0.072-0.111,0.107-0.168c0.016-0.023,0.031-0.047,0.045-0.072c0.046-0.074,0.094-0.148,0.139-0.225
				c0.012-0.019,0.021-0.035,0.033-0.054c0.024-0.044,0.05-0.089,0.074-0.132c0.008-0.014,0.015-0.027,0.021-0.041
				c0.059-0.102,0.114-0.203,0.17-0.308c0.005-0.011,0.011-0.022,0.017-0.032c0.007-0.014,0.013-0.026,0.021-0.039
				c0.016-0.033,0.033-0.065,0.049-0.1c0.006-0.011,0.012-0.021,0.016-0.033c0.051-0.1,0.1-0.201,0.146-0.303
				c0.002-0.001,0.002-0.003,0.004-0.004c0.029-0.068,0.061-0.133,0.091-0.201c0.006-0.015,0.013-0.029,0.02-0.045
				c0.059-0.137,0.116-0.275,0.169-0.416c0.014-0.032,0.028-0.066,0.041-0.1c0.002-0.007,0.005-0.014,0.008-0.021
				c0.055-0.144,0.103-0.286,0.151-0.433c0.011-0.031,0.022-0.062,0.032-0.094c0.002-0.004,0.003-0.01,0.006-0.014
				c0.004-0.014,0.008-0.029,0.012-0.042c0.033-0.101,0.061-0.204,0.09-0.306c0.012-0.04,0.025-0.08,0.035-0.12
				c0.01-0.032,0.018-0.063,0.027-0.095c0.001-0.004,0.003-0.008,0.003-0.012c0.026-0.105,0.052-0.213,0.077-0.32
				c0.004-0.014,0.008-0.029,0.012-0.046c0.016-0.063,0.031-0.127,0.043-0.19c0.002-0.008,0.004-0.015,0.005-0.021
				c0.016-0.079,0.03-0.157,0.045-0.235c0.001-0.01,0.005-0.021,0.006-0.03c0.019-0.101,0.039-0.201,0.054-0.301
				c0.001-0.005,0.001-0.007,0.001-0.011c0.009-0.053,0.015-0.105,0.024-0.159c0-0.007,0.001-0.015,0.002-0.021
				c0.02-0.139,0.039-0.277,0.054-0.417c0-0.005,0.001-0.009,0.001-0.015c0.002-0.016,0.004-0.032,0.005-0.049
				c0.001-0.01,0.001-0.021,0.004-0.031c0.015-0.174,0.03-0.348,0.038-0.525c0,0,0-0.004,0-0.006
				c0.008-0.115,0.008-0.231,0.009-0.348C38.422,33.791,38.427,33.709,38.427,33.625L38.427,33.625z M36.597,27.367
				c0.025,0.041,0.051,0.082,0.075,0.123c-0.062-0.098-0.125-0.197-0.187-0.293c0.013,0.021,0.027,0.041,0.041,0.063
				C36.552,27.297,36.573,27.332,36.597,27.367z M16.923,27.576c0.039-0.066,0.082-0.129,0.122-0.193
				c-0.011,0.019-0.022,0.038-0.034,0.057c-0.035,0.056-0.072,0.109-0.105,0.165C16.912,27.596,16.917,27.586,16.923,27.576z"/>
			<g>
				<path fill="#B5B4B4" d="M26.731,41.357v-1.934l1.113-0.092c0.144-0.025,0.242-0.047,0.357-0.074
					c0.218-0.053,0.428-0.115,0.629-0.189L30,38.479l0.595-0.449c0.07-0.061,0.137-0.119,0.201-0.181l0.092-0.088
					c0.057-0.056,0.122-0.122,0.203-0.208l1.24-2.099l0.26-1.19l0.033-0.652l-0.02-0.454l0.948-0.261l-0.96,0.119l-0.17-0.916
					c-0.047-0.179-0.115-0.384-0.193-0.585c-0.146-0.355-0.271-0.608-0.412-0.847l-0.709-1.069l0.822-0.536l0.194,0.292l0.078-0.038
					l-0.067-0.137l0.814-0.409l1.049,1.81l-0.053,0.026c0.012,0.026,0.022,0.053,0.033,0.079l0.05,0.127
					c0.105,0.268,0.196,0.542,0.269,0.813l0.25,1.584c0.01,0.182,0.01,0.42,0.01,0.42l-0.162,1.586l-0.094,0.395l-0.218-0.031
					l0.21,0.058l-0.209-0.038l0.203,0.06l-0.572,1.479l-0.662,1.073l-0.551,0.663c-0.102,0.108-0.184,0.193-0.27,0.276l-0.108,0.105
					c-0.097,0.091-0.187,0.172-0.281,0.25l-0.794,0.598l-1.535,0.775c-0.285,0.104-0.566,0.189-0.852,0.259
					c-0.154,0.038-0.284,0.064-0.412,0.089c-0.188,0.033-0.29,0.048-0.392,0.062L26.731,41.357z"/>
			</g>
		</g>
		<g>
			
				<rect x="25.567" y="4.466" transform="matrix(0.7071 0.7071 -0.7071 0.7071 27.326 -11.463)" fill="#B5B4B4" stroke="#2D3237" stroke-width="1.5" stroke-miterlimit="10" width="3.867" height="45.575"/>
		</g>
	</g>
</g>
</svg>
