<?xml version="1.0" encoding="utf-8"?>
<!-- Generator: Adobe Illustrator 16.2.0, SVG Export Plug-In . SVG Version: 6.00 Build 0)  -->
<!DOCTYPE svg PUBLIC "-//W3C//DTD SVG 1.1//EN" "http://www.w3.org/Graphics/SVG/1.1/DTD/svg11.dtd">
<svg version="1.1" id="图层_1" xmlns="http://www.w3.org/2000/svg" xmlns:xlink="http://www.w3.org/1999/xlink" x="0px" y="0px"
	 width="55px" height="55px" viewBox="0 0 55 55" enable-background="new 0 0 55 55" xml:space="preserve">
<g>
	<g>
		<g>
			<path fill="#B5B4B4" d="M50.703,0.5c2.094,0,3.797,1.703,3.797,3.797v46.406c0,2.094-1.703,3.797-3.797,3.797H4.297
				c-2.094,0-3.797-1.703-3.797-3.797V4.297C0.5,2.203,2.203,0.5,4.297,0.5H50.703 M50.703,0H4.297C1.934,0,0,1.934,0,4.297v46.406
				C0,53.066,1.934,55,4.297,55h46.406C53.066,55,55,53.066,55,50.703V4.297C55,1.934,53.066,0,50.703,0L50.703,0z"/>
		</g>
	</g>
	<g>
		<g>
			<path fill="#B5B4B4" d="M48.844,7.016v40.969H6.156V7.016H48.844 M49.844,6.016H5.156v42.969h44.688V6.016L49.844,6.016z"/>
		</g>
	</g>
	<g>
		<g>
			<rect x="15.469" y="26.354" fill="#B5B4B4" width="1.719" height="5.156"/>
			
				<rect x="10.241" y="36.952" transform="matrix(0.866 -0.5001 0.5001 0.866 -18.2796 10.8481)" fill="#B5B4B4" width="1.719" height="5.156"/>
			
				<rect x="20.696" y="36.952" transform="matrix(-0.8661 -0.4998 0.4998 -0.8661 20.4694 84.5428)" fill="#B5B4B4" width="1.719" height="5.156"/>
		</g>
	</g>
	<g>
		<g>
			<path fill="#2D3237" stroke="#B5B4B4" stroke-width="2.4" stroke-miterlimit="10" d="M47.179,41.423L47.179,41.423
				c0-0.018-0.001-0.033-0.001-0.051c0-0.138-0.004-0.275-0.009-0.412c-0.002-0.003-0.002-0.007-0.002-0.01
				c-0.007-0.123-0.018-0.246-0.026-0.369c-0.004-0.018-0.004-0.035-0.004-0.054v-0.001c-0.004-0.025-0.006-0.051-0.008-0.076
				c0-0.001,0-0.004,0-0.007c-0.006-0.05-0.014-0.098-0.021-0.146c-0.013-0.111-0.026-0.221-0.044-0.332v-0.002
				c-0.014-0.087-0.029-0.174-0.047-0.26c-0.002-0.008-0.002-0.014-0.004-0.021c-0.012-0.061-0.021-0.121-0.035-0.182
				c0-0.001,0-0.002,0-0.004c-0.015-0.064-0.03-0.127-0.044-0.19c-0.003-0.007-0.003-0.013-0.006-0.021
				c-0.019-0.08-0.037-0.16-0.058-0.24l0,0c-0.003-0.008-0.004-0.014-0.006-0.021c-0.091-0.336-0.199-0.664-0.324-0.984
				c-0.002-0.004-0.002-0.006-0.004-0.008c0,0,0-0.002-0.001-0.003c-0.183-0.466-0.403-0.915-0.655-1.341
				c0.008,0.014,0.016,0.025,0.023,0.04c0.01,0.015,0.02,0.03,0.029,0.046l-8.035-13.916L29.86,36.78
				c0.003-0.008,0.009-0.016,0.015-0.023c0.023-0.043,0.049-0.086,0.074-0.129c-0.021,0.035-0.04,0.071-0.061,0.106
				c-0.018,0.03-0.037,0.063-0.055,0.095c-0.004,0.008-0.008,0.014-0.012,0.021c-0.069,0.121-0.136,0.244-0.199,0.369
				c-0.008,0.014-0.014,0.029-0.023,0.043c-0.001,0.004-0.003,0.01-0.006,0.014c-0.383,0.766-0.663,1.592-0.822,2.461
				c-0.004,0.021-0.008,0.041-0.012,0.061c-0.023,0.141-0.046,0.281-0.064,0.426c-0.002,0.023-0.008,0.047-0.01,0.072
				c-0.002,0.018-0.006,0.035-0.007,0.055c-0.003,0.018-0.003,0.035-0.005,0.051c-0.007,0.061-0.012,0.119-0.019,0.18
				c-0.003,0.035-0.007,0.072-0.009,0.105c-0.004,0.049-0.008,0.098-0.012,0.146c-0.002,0.02-0.002,0.039-0.002,0.061
				c-0.003,0.039-0.004,0.078-0.006,0.117c-0.001,0.031-0.004,0.063-0.004,0.092c-0.003,0.07-0.005,0.143-0.005,0.215
				c-0.001,0.024,0,0.051,0,0.074c0,0.01-0.001,0.021-0.001,0.031s0.001,0.02,0.001,0.029c0,0.031-0.001,0.063,0,0.094
				c0,0.07,0.002,0.141,0.005,0.209c0,0.037,0.003,0.074,0.004,0.111c0.002,0.02,0.003,0.039,0.003,0.059
				c0.002,0.02,0.002,0.037,0.003,0.056c0,0.011,0,0.021,0.002,0.03c0.004,0.051,0.008,0.102,0.012,0.154
				c0.004,0.035,0.008,0.072,0.012,0.109c0.004,0.049,0.008,0.1,0.012,0.147c0.004,0.024,0.006,0.048,0.009,0.073
				c0.001,0.018,0.003,0.035,0.005,0.053c0.004,0.02,0.009,0.039,0.01,0.059c0.137,1.063,0.452,2.07,0.916,2.99
				c0,0.002,0.001,0.003,0.002,0.006c0.002,0.006,0.008,0.014,0.012,0.021c0.068,0.133,0.139,0.264,0.213,0.393
				c0.002,0.006,0.006,0.014,0.01,0.02c0.01,0.02,0.021,0.038,0.033,0.059c0.002,0.003,0.004,0.006,0.005,0.009
				c0.056,0.095,0.112,0.188,0.173,0.28c0.012,0.021,0.025,0.043,0.039,0.064c0.008,0.015,0.018,0.029,0.028,0.045
				c0.009,0.012,0.017,0.023,0.026,0.037c0.044,0.068,0.091,0.135,0.137,0.201c0.023,0.033,0.044,0.066,0.068,0.1
				c0.012,0.019,0.025,0.037,0.039,0.055c0.012,0.016,0.023,0.03,0.035,0.045c0.029,0.043,0.063,0.082,0.094,0.125
				c0.033,0.045,0.068,0.09,0.103,0.135c0.021,0.024,0.04,0.049,0.06,0.076c0.012,0.014,0.025,0.028,0.039,0.043
				c0.013,0.018,0.029,0.033,0.042,0.051c0.042,0.051,0.084,0.104,0.128,0.152c0.012,0.014,0.021,0.026,0.033,0.039
				c0.023,0.025,0.047,0.053,0.068,0.078c0.06,0.064,0.118,0.127,0.177,0.19c0.019,0.019,0.035,0.036,0.052,0.054
				c0.034,0.035,0.067,0.07,0.102,0.104c0.049,0.049,0.099,0.097,0.147,0.144c0.017,0.015,0.032,0.03,0.048,0.046
				c0.051,0.047,0.1,0.095,0.152,0.141c0.043,0.04,0.086,0.078,0.132,0.117c0.007,0.006,0.012,0.012,0.02,0.018
				c0.054,0.045,0.108,0.092,0.165,0.137c0,0.002,0.004,0.004,0.006,0.006c0.014,0.012,0.027,0.023,0.041,0.035
				c0.039,0.031,0.078,0.063,0.117,0.094c0.049,0.037,0.098,0.074,0.146,0.111c0.023,0.018,0.044,0.033,0.067,0.051
				c0.015,0.012,0.03,0.023,0.046,0.035c0.033,0.023,0.066,0.047,0.1,0.07c0.035,0.025,0.072,0.049,0.107,0.074
				c0.047,0.033,0.094,0.066,0.143,0.099c0.014,0.009,0.027,0.019,0.041,0.028c0.031,0.019,0.061,0.039,0.092,0.059
				c0.019,0.01,0.037,0.021,0.056,0.033c0.081,0.051,0.159,0.1,0.241,0.147c0.004,0.001,0.006,0.003,0.009,0.005
				c0.035,0.021,0.069,0.041,0.104,0.062c0.01,0.005,0.018,0.009,0.028,0.015c0.12,0.069,0.243,0.135,0.369,0.199
				c0.012,0.006,0.023,0.012,0.035,0.018c0.003,0.001,0.003,0.002,0.007,0.002c0.621,0.313,1.281,0.555,1.973,0.722
				c0.01,0.003,0.021,0.006,0.033,0.007c0.146,0.035,0.295,0.066,0.446,0.096c0.042,0.007,0.084,0.016,0.126,0.021
				c0.115,0.02,0.23,0.037,0.348,0.053c0.039,0.006,0.078,0.014,0.118,0.018c0.009,0.002,0.019,0.002,0.026,0.004
				c0.028,0.004,0.057,0.005,0.084,0.008c0.043,0.004,0.085,0.008,0.127,0.012c0.047,0.004,0.096,0.011,0.143,0.014
				c0.045,0.004,0.09,0.007,0.137,0.01c0.027,0.002,0.059,0.003,0.088,0.006c0.021,0,0.043,0,0.064,0.002
				c0.039,0.001,0.078,0.005,0.119,0.006c0.066,0.001,0.133,0.004,0.201,0.004c0.035,0.002,0.068,0.002,0.104,0
				c0.005,0,0.01,0.002,0.016,0.002s0.01-0.002,0.014-0.002c0.033,0.002,0.066,0.002,0.101,0c0.072,0,0.14-0.003,0.21-0.004
				c0.04-0.001,0.08-0.005,0.121-0.006c0.018-0.002,0.037-0.002,0.055-0.002c0.029-0.003,0.057-0.003,0.084-0.006
				c0.053-0.003,0.104-0.008,0.156-0.01c0.045-0.006,0.091-0.01,0.137-0.014c0.038-0.004,0.076-0.008,0.115-0.012
				c0.025-0.002,0.052-0.004,0.077-0.008c0.021-0.002,0.042-0.004,0.063-0.008c0.032-0.004,0.064-0.01,0.098-0.014
				c0.124-0.018,0.248-0.035,0.37-0.058c0.036-0.006,0.067-0.012,0.103-0.018c0.156-0.03,0.311-0.062,0.465-0.099
				c0.006-0.002,0.013-0.003,0.02-0.004c0.367-0.09,0.727-0.199,1.077-0.332c0.003,0,0.003,0,0.005-0.002
				c0.01-0.002,0.02-0.008,0.029-0.01c0.139-0.053,0.275-0.109,0.409-0.168c0.003-0.002,0.005-0.002,0.009-0.004
				c0.018-0.008,0.035-0.018,0.055-0.024c0.122-0.056,0.242-0.11,0.363-0.171c0.007-0.004,0.016-0.008,0.023-0.012
				c0.047-0.023,0.094-0.049,0.141-0.072c0.082-0.043,0.164-0.088,0.245-0.133c0.015-0.01,0.032-0.018,0.048-0.026
				c0.034-0.021,0.07-0.04,0.106-0.062c0.007-0.006,0.015-0.011,0.024-0.016c0.069-0.041,0.139-0.084,0.207-0.127
				c0.02-0.014,0.042-0.025,0.063-0.037c0.021-0.016,0.041-0.027,0.063-0.041c0.014-0.008,0.026-0.016,0.038-0.023
				c0.016-0.011,0.03-0.021,0.047-0.033c0.043-0.029,0.087-0.059,0.13-0.088c0.023-0.018,0.048-0.033,0.071-0.049
				c0.051-0.037,0.104-0.072,0.155-0.11c0.013-0.011,0.026-0.021,0.039-0.03c0.017-0.012,0.033-0.023,0.047-0.037
				c0.027-0.018,0.055-0.039,0.08-0.061c0.072-0.056,0.146-0.111,0.218-0.17c0.026-0.023,0.055-0.045,0.081-0.068
				c0.026-0.021,0.047-0.045,0.073-0.064c0.106-0.092,0.212-0.188,0.315-0.283c0.045-0.043,0.09-0.085,0.135-0.129
				c0.107-0.104,0.209-0.211,0.311-0.318c0.02-0.021,0.043-0.043,0.063-0.066c0.003-0.004,0.011-0.008,0.015-0.014
				c0.081-0.09,0.162-0.184,0.238-0.277c0.023-0.026,0.046-0.053,0.068-0.08c0.061-0.074,0.12-0.15,0.179-0.228
				c0.015-0.019,0.028-0.036,0.043-0.056c0.019-0.025,0.037-0.049,0.056-0.074c0.005-0.006,0.011-0.014,0.016-0.021
				c0.045-0.059,0.086-0.117,0.127-0.178c0.014-0.018,0.023-0.035,0.035-0.053c0.036-0.049,0.069-0.098,0.104-0.148
				c0.003-0.007,0.009-0.013,0.014-0.02c0.029-0.045,0.057-0.09,0.085-0.135c0.012-0.019,0.024-0.037,0.035-0.057
				c0.037-0.061,0.075-0.119,0.11-0.182c0.011-0.014,0.02-0.027,0.027-0.041c0.02-0.035,0.041-0.072,0.061-0.107
				c0.006-0.01,0.012-0.021,0.017-0.031c0.047-0.081,0.091-0.164,0.136-0.246c0.004-0.01,0.009-0.02,0.014-0.027
				c0.005-0.01,0.01-0.02,0.016-0.029c0.014-0.027,0.026-0.053,0.04-0.08c0.005-0.008,0.009-0.018,0.013-0.027
				c0.04-0.08,0.08-0.16,0.116-0.241c0.002-0.001,0.002-0.003,0.003-0.003c0.023-0.055,0.049-0.109,0.072-0.162
				c0.006-0.012,0.011-0.023,0.017-0.035c0.047-0.109,0.093-0.221,0.135-0.332c0.011-0.027,0.022-0.053,0.032-0.08
				c0.004-0.006,0.005-0.012,0.006-0.018c0.045-0.115,0.083-0.229,0.123-0.346c0.007-0.025,0.018-0.051,0.025-0.075
				c0.001-0.005,0.002-0.008,0.005-0.011c0.003-0.012,0.005-0.023,0.009-0.033c0.026-0.082,0.049-0.164,0.072-0.246
				c0.009-0.031,0.02-0.063,0.028-0.095c0.007-0.026,0.015-0.052,0.021-0.077c0.001-0.002,0.003-0.006,0.003-0.008
				c0.021-0.086,0.042-0.17,0.062-0.256c0.004-0.012,0.008-0.025,0.01-0.037c0.013-0.051,0.025-0.102,0.034-0.154
				c0.002-0.004,0.003-0.01,0.003-0.016c0.014-0.063,0.025-0.125,0.037-0.188c0-0.008,0.004-0.018,0.006-0.024
				c0.014-0.081,0.029-0.161,0.041-0.241c0.002-0.004,0.002-0.005,0.002-0.008c0.007-0.043,0.012-0.084,0.019-0.127
				c0-0.006,0.002-0.012,0.002-0.018c0.017-0.109,0.032-0.221,0.044-0.333c0-0.003,0-0.007,0-0.013
				c0.002-0.012,0.003-0.023,0.004-0.037c0-0.008,0-0.018,0.004-0.025c0.012-0.141,0.023-0.279,0.03-0.422c0-0.001,0-0.002,0-0.004
				c0.005-0.092,0.005-0.186,0.007-0.277C47.176,41.556,47.179,41.49,47.179,41.423L47.179,41.423z M45.715,36.417
				c0.021,0.033,0.041,0.066,0.061,0.098c-0.049-0.078-0.101-0.156-0.15-0.234c0.012,0.018,0.023,0.033,0.034,0.051
				C45.678,36.36,45.697,36.39,45.715,36.417z M29.976,36.585c0.032-0.054,0.065-0.104,0.099-0.156
				c-0.01,0.016-0.018,0.031-0.027,0.047c-0.029,0.043-0.059,0.086-0.085,0.131C29.968,36.599,29.971,36.591,29.976,36.585z"/>
			<g>
				<path fill="#B5B4B4" d="M37.823,47.608v-1.546l0.89-0.073c0.115-0.021,0.194-0.037,0.287-0.059
					c0.174-0.043,0.342-0.094,0.502-0.152l0.936-0.472l0.476-0.36c0.058-0.049,0.108-0.096,0.161-0.145l0.073-0.07
					c0.046-0.043,0.099-0.098,0.161-0.166l0.994-1.68l0.207-0.951l0.027-0.521l-0.016-0.364l0.758-0.209l-0.767,0.097l-0.137-0.734
					c-0.038-0.143-0.093-0.307-0.154-0.467c-0.116-0.285-0.218-0.486-0.33-0.678l-0.567-0.855l0.658-0.428l0.155,0.232l0.063-0.031
					l-0.057-0.11l0.653-0.325l0.839,1.447l-0.041,0.021c0.008,0.022,0.017,0.042,0.025,0.063l0.039,0.102
					c0.086,0.215,0.158,0.434,0.215,0.65l0.2,1.268c0.009,0.145,0.009,0.336,0.009,0.336l-0.131,1.268l-0.074,0.318l-0.174-0.027
					l0.168,0.046l-0.168-0.03l0.162,0.048l-0.457,1.183l-0.529,0.859l-0.44,0.529c-0.081,0.088-0.147,0.155-0.216,0.223
					l-0.087,0.084c-0.077,0.072-0.15,0.137-0.226,0.199l-0.635,0.479l-1.229,0.619c-0.228,0.086-0.453,0.152-0.681,0.209
					c-0.124,0.029-0.228,0.051-0.33,0.07c-0.151,0.025-0.231,0.039-0.313,0.049L37.823,47.608z"/>
			</g>
		</g>
		<g>
			
				<rect x="36.89" y="18.096" transform="matrix(0.7068 0.7074 -0.7074 0.7068 36.9682 -16.5404)" fill="#2D3237" stroke="#B5B4B4" stroke-width="1.2" stroke-miterlimit="10" width="3.095" height="36.46"/>
		</g>
	</g>
	<polygon fill="#B5B4B4" points="32.105,18.241 25.856,19.333 29.603,8.46 21.25,23.148 27.5,22.057 23.753,34.021 	"/>
</g>
</svg>
