<?xml version="1.0" encoding="utf-8"?>
<!-- Generator: Adobe Illustrator 16.2.0, SVG Export Plug-In . SVG Version: 6.00 Build 0)  -->
<!DOCTYPE svg PUBLIC "-//W3C//DTD SVG 1.1//EN" "http://www.w3.org/Graphics/SVG/1.1/DTD/svg11.dtd">
<svg version="1.1" id="图层_1" xmlns="http://www.w3.org/2000/svg" xmlns:xlink="http://www.w3.org/1999/xlink" x="0px" y="0px"
	 width="55px" height="55px" viewBox="0 0 55 55" enable-background="new 0 0 55 55" xml:space="preserve">
<g>
	<g>
		<g>
			<g>
				<path fill="#B5B4B4" d="M50,0.5c2.481,0,4.5,2.019,4.5,4.5v45c0,2.481-2.019,4.5-4.5,4.5H5c-2.481,0-4.5-2.019-4.5-4.5V5
					c0-2.481,2.019-4.5,4.5-4.5H50 M50,0H5C2.25,0,0,2.25,0,5v45c0,2.75,2.25,5,5,5h45c2.75,0,5-2.25,5-5V5C55,2.25,52.75,0,50,0
					L50,0z"/>
			</g>
		</g>
		<g>
			<g>
				<path fill="#B5B4B4" d="M48.844,7.016v40.969H6.156V7.016H48.844 M49.844,6.016H5.156v42.969h44.688V6.016L49.844,6.016z"/>
			</g>
		</g>
		<g>
			<rect x="17.617" y="15.62" fill="#B5B4B4" width="2.578" height="7.734"/>
			
				<rect x="9.776" y="31.519" transform="matrix(0.866 -0.5001 0.5001 0.866 -16.212 10.2746)" fill="#B5B4B4" width="2.578" height="7.734"/>
			
				<rect x="25.459" y="31.519" transform="matrix(-0.866 -0.5001 0.5001 -0.866 32.2171 79.405)" fill="#B5B4B4" width="2.578" height="7.734"/>
		</g>
		<g>
			<rect x="33.499" y="10.742" fill="none" stroke="#B5B4B4" stroke-miterlimit="10" width="13.463" height="33.516"/>
			<line fill="none" stroke="#B5B4B4" stroke-width="2" stroke-miterlimit="10" x1="36.793" y1="15.388" x2="43.668" y2="15.388"/>
		</g>
	</g>
	<g>
		<g>
			<path fill="#2D3237" stroke="#B5B4B4" stroke-width="2.4" stroke-miterlimit="10" d="M47.179,41.422L47.179,41.422
				c0-0.016-0.002-0.033-0.002-0.049c0-0.139-0.004-0.276-0.008-0.413c-0.002-0.003-0.002-0.007-0.002-0.01
				c-0.008-0.124-0.018-0.246-0.027-0.369c-0.004-0.019-0.004-0.036-0.004-0.055l0,0c-0.004-0.025-0.006-0.052-0.008-0.076
				c0-0.001,0-0.004,0-0.007c-0.006-0.049-0.013-0.098-0.02-0.146c-0.014-0.11-0.026-0.221-0.044-0.331c0,0,0-0.001,0-0.002
				c-0.014-0.088-0.03-0.173-0.048-0.259c-0.001-0.008-0.002-0.015-0.003-0.022c-0.012-0.06-0.022-0.122-0.035-0.182
				c0-0.001,0-0.002,0-0.004c-0.015-0.063-0.03-0.126-0.044-0.19c-0.003-0.007-0.004-0.014-0.006-0.02
				c-0.02-0.08-0.037-0.161-0.059-0.24c0,0,0,0,0-0.001c-0.002-0.007-0.004-0.015-0.006-0.021c-0.09-0.336-0.199-0.665-0.324-0.986
				c-0.001-0.002-0.002-0.004-0.003-0.007c0,0,0-0.002-0.001-0.003c-0.184-0.466-0.403-0.914-0.656-1.34
				c0.008,0.012,0.016,0.024,0.024,0.038c0.009,0.016,0.02,0.031,0.028,0.047l-8.035-13.917L29.86,36.779
				c0.003-0.006,0.008-0.015,0.014-0.022c0.024-0.043,0.05-0.086,0.074-0.129c-0.021,0.035-0.039,0.071-0.061,0.106
				c-0.018,0.031-0.036,0.063-0.055,0.095c-0.004,0.007-0.007,0.014-0.012,0.021c-0.068,0.121-0.135,0.245-0.198,0.371
				c-0.009,0.013-0.015,0.028-0.023,0.042c-0.001,0.004-0.003,0.009-0.007,0.013c-0.383,0.767-0.662,1.593-0.822,2.463
				c-0.004,0.02-0.007,0.04-0.011,0.061c-0.024,0.14-0.046,0.28-0.064,0.424c-0.003,0.023-0.009,0.048-0.011,0.071
				c-0.002,0.019-0.006,0.037-0.006,0.056c-0.004,0.018-0.004,0.035-0.006,0.052c-0.006,0.06-0.012,0.12-0.018,0.18
				c-0.003,0.035-0.008,0.071-0.01,0.105c-0.004,0.05-0.008,0.097-0.011,0.146c-0.002,0.021-0.002,0.041-0.003,0.06
				c-0.002,0.04-0.004,0.081-0.006,0.119c0,0.031-0.003,0.062-0.004,0.092c-0.002,0.071-0.004,0.143-0.004,0.214
				c-0.002,0.025,0,0.051,0,0.075c0,0.011-0.002,0.021-0.002,0.03c0,0.011,0.002,0.02,0.002,0.031c0,0.03-0.002,0.062,0,0.093
				c0,0.07,0.002,0.14,0.004,0.21c0.001,0.036,0.004,0.073,0.004,0.109c0.002,0.021,0.004,0.041,0.004,0.06
				c0.002,0.019,0.002,0.037,0.003,0.056c0,0.01,0,0.021,0.002,0.03c0.003,0.051,0.007,0.103,0.012,0.153
				c0.003,0.037,0.007,0.074,0.012,0.11c0.003,0.049,0.007,0.099,0.012,0.147c0.003,0.023,0.005,0.048,0.009,0.072
				c0,0.019,0.003,0.036,0.004,0.054c0.004,0.02,0.01,0.038,0.011,0.058c0.136,1.064,0.452,2.071,0.915,2.991
				c0,0.001,0.002,0.003,0.003,0.005c0.002,0.007,0.008,0.016,0.012,0.021c0.067,0.133,0.138,0.266,0.212,0.394
				c0.003,0.007,0.006,0.013,0.01,0.02c0.01,0.019,0.021,0.038,0.033,0.058c0.002,0.004,0.004,0.006,0.006,0.01
				c0.055,0.095,0.112,0.188,0.172,0.28c0.012,0.022,0.025,0.043,0.039,0.063c0.009,0.016,0.019,0.03,0.029,0.046
				c0.008,0.013,0.016,0.023,0.025,0.037c0.045,0.068,0.092,0.135,0.137,0.201c0.023,0.033,0.045,0.067,0.068,0.1
				c0.012,0.019,0.025,0.036,0.039,0.056c0.012,0.014,0.024,0.029,0.035,0.044c0.03,0.043,0.063,0.083,0.094,0.124
				c0.034,0.045,0.069,0.091,0.104,0.135c0.02,0.025,0.039,0.051,0.06,0.076c0.012,0.016,0.025,0.029,0.038,0.044
				c0.014,0.018,0.029,0.034,0.043,0.051c0.041,0.051,0.084,0.103,0.127,0.152c0.012,0.014,0.021,0.026,0.033,0.039
				c0.024,0.025,0.048,0.054,0.069,0.078c0.06,0.064,0.118,0.127,0.177,0.19c0.018,0.018,0.035,0.037,0.052,0.054
				c0.034,0.035,0.067,0.07,0.101,0.104c0.049,0.049,0.1,0.097,0.148,0.144c0.016,0.016,0.032,0.031,0.048,0.046
				c0.05,0.047,0.099,0.095,0.151,0.142c0.043,0.039,0.087,0.078,0.133,0.116c0.006,0.005,0.012,0.011,0.02,0.017
				c0.054,0.047,0.107,0.092,0.164,0.138c0,0.003,0.004,0.004,0.006,0.007c0.014,0.011,0.027,0.021,0.041,0.033
				c0.039,0.032,0.078,0.063,0.118,0.095c0.049,0.037,0.098,0.073,0.146,0.111c0.023,0.017,0.045,0.033,0.068,0.051
				c0.015,0.013,0.029,0.023,0.045,0.035c0.033,0.024,0.066,0.048,0.1,0.071c0.036,0.024,0.073,0.049,0.107,0.072
				c0.047,0.034,0.095,0.066,0.144,0.1c0.014,0.009,0.026,0.019,0.04,0.027c0.031,0.02,0.061,0.04,0.092,0.059
				c0.02,0.012,0.037,0.023,0.057,0.034c0.08,0.05,0.159,0.1,0.241,0.147c0.003,0.002,0.005,0.003,0.009,0.005
				c0.035,0.021,0.068,0.041,0.104,0.062c0.01,0.005,0.019,0.009,0.029,0.014c0.12,0.07,0.242,0.136,0.369,0.199
				c0.012,0.006,0.023,0.013,0.035,0.02c0.002,0,0.003,0.001,0.006,0.002c0.621,0.311,1.282,0.555,1.973,0.721
				c0.011,0.002,0.021,0.006,0.033,0.008c0.146,0.035,0.296,0.065,0.447,0.095c0.041,0.007,0.084,0.015,0.125,0.021
				c0.116,0.02,0.231,0.038,0.348,0.053c0.039,0.005,0.078,0.014,0.119,0.018c0.009,0.003,0.019,0.003,0.026,0.004
				c0.028,0.003,0.056,0.005,0.084,0.007c0.042,0.006,0.085,0.009,0.126,0.013c0.048,0.005,0.096,0.011,0.143,0.014
				c0.046,0.003,0.09,0.007,0.137,0.01c0.028,0.002,0.059,0.003,0.088,0.006c0.021,0,0.043,0,0.064,0.002
				c0.039,0.001,0.079,0.004,0.119,0.005c0.067,0.002,0.133,0.006,0.201,0.006c0.035,0,0.069,0,0.104,0c0.005,0,0.009,0,0.015,0
				s0.01,0,0.014,0c0.034,0,0.067,0,0.102,0c0.072,0,0.14-0.004,0.209-0.006c0.041-0.001,0.081-0.004,0.121-0.006
				c0.019-0.001,0.037-0.001,0.056-0.001c0.028-0.003,0.056-0.003,0.084-0.005c0.053-0.004,0.104-0.008,0.155-0.012
				c0.046-0.004,0.092-0.009,0.137-0.014c0.039-0.003,0.077-0.006,0.115-0.01c0.025-0.003,0.053-0.005,0.078-0.009
				c0.02-0.001,0.041-0.005,0.063-0.007c0.032-0.005,0.064-0.011,0.097-0.016c0.125-0.016,0.249-0.035,0.371-0.057
				c0.035-0.006,0.067-0.012,0.103-0.019c0.155-0.028,0.311-0.062,0.464-0.099c0.006,0,0.014-0.002,0.02-0.004
				c0.367-0.088,0.727-0.199,1.078-0.33c0.003-0.001,0.003-0.002,0.005-0.003c0.01-0.003,0.019-0.007,0.028-0.011
				c0.139-0.053,0.275-0.107,0.41-0.166c0.003-0.003,0.004-0.004,0.008-0.005c0.019-0.007,0.036-0.017,0.055-0.024
				c0.123-0.055,0.243-0.111,0.363-0.171c0.008-0.005,0.017-0.008,0.024-0.011c0.046-0.025,0.093-0.05,0.14-0.074
				c0.082-0.043,0.165-0.087,0.246-0.132c0.015-0.01,0.031-0.018,0.047-0.026c0.035-0.021,0.07-0.04,0.107-0.062
				c0.007-0.005,0.015-0.011,0.023-0.016c0.07-0.042,0.139-0.084,0.207-0.127c0.021-0.014,0.043-0.025,0.063-0.038
				c0.021-0.014,0.042-0.025,0.063-0.039c0.014-0.009,0.027-0.018,0.039-0.025c0.016-0.011,0.029-0.021,0.047-0.032
				c0.043-0.029,0.086-0.059,0.129-0.089c0.023-0.017,0.049-0.032,0.072-0.049c0.051-0.037,0.104-0.071,0.154-0.109
				c0.014-0.011,0.027-0.021,0.04-0.031c0.017-0.012,0.032-0.023,0.047-0.035c0.026-0.02,0.054-0.041,0.079-0.062
				c0.072-0.056,0.146-0.111,0.219-0.169c0.026-0.023,0.055-0.047,0.081-0.069c0.026-0.021,0.047-0.044,0.073-0.065
				c0.105-0.092,0.211-0.186,0.314-0.283c0.045-0.042,0.09-0.084,0.135-0.129c0.107-0.103,0.209-0.209,0.311-0.317
				c0.021-0.022,0.044-0.043,0.064-0.065c0.003-0.005,0.01-0.01,0.015-0.015c0.081-0.091,0.161-0.184,0.238-0.277
				c0.023-0.026,0.046-0.053,0.067-0.079c0.061-0.075,0.121-0.152,0.18-0.229c0.015-0.02,0.028-0.037,0.043-0.057
				c0.019-0.023,0.037-0.047,0.056-0.072c0.005-0.007,0.011-0.015,0.015-0.022c0.046-0.059,0.086-0.118,0.128-0.179
				c0.013-0.017,0.023-0.034,0.035-0.052c0.036-0.05,0.069-0.099,0.103-0.148c0.004-0.007,0.01-0.013,0.014-0.02
				c0.029-0.044,0.057-0.089,0.086-0.135c0.012-0.019,0.023-0.038,0.035-0.058c0.037-0.06,0.075-0.119,0.11-0.18
				c0.011-0.014,0.019-0.029,0.026-0.043c0.021-0.035,0.041-0.07,0.061-0.106c0.006-0.011,0.012-0.021,0.018-0.031
				c0.047-0.082,0.09-0.164,0.136-0.247c0.003-0.009,0.009-0.018,0.013-0.026c0.006-0.01,0.011-0.021,0.016-0.029
				c0.014-0.027,0.027-0.054,0.041-0.08c0.004-0.009,0.008-0.019,0.012-0.027c0.041-0.08,0.08-0.16,0.117-0.241
				c0.002-0.002,0.002-0.003,0.003-0.004c0.023-0.054,0.049-0.107,0.072-0.161c0.005-0.012,0.011-0.023,0.017-0.034
				c0.047-0.11,0.092-0.222,0.135-0.334c0.01-0.026,0.022-0.053,0.032-0.079c0.003-0.007,0.005-0.012,0.006-0.018
				c0.044-0.114,0.083-0.229,0.122-0.346c0.008-0.024,0.018-0.05,0.025-0.075c0.002-0.005,0.002-0.008,0.006-0.012
				c0.002-0.01,0.005-0.021,0.009-0.033c0.026-0.08,0.048-0.162,0.071-0.244c0.01-0.032,0.02-0.064,0.029-0.096
				c0.007-0.026,0.014-0.052,0.021-0.077c0.001-0.003,0.003-0.005,0.003-0.009c0.021-0.084,0.041-0.17,0.062-0.255
				c0.003-0.013,0.007-0.024,0.009-0.038c0.014-0.051,0.026-0.101,0.035-0.152c0.002-0.006,0.003-0.012,0.003-0.017
				c0.014-0.063,0.025-0.125,0.037-0.188c0-0.008,0.003-0.017,0.005-0.024c0.014-0.08,0.03-0.161,0.042-0.24
				c0.002-0.004,0.002-0.006,0.002-0.009c0.007-0.043,0.012-0.085,0.019-0.127c0-0.007,0.002-0.012,0.002-0.018
				c0.016-0.11,0.031-0.222,0.043-0.333c0-0.004,0-0.007,0-0.012c0.002-0.013,0.004-0.025,0.004-0.039
				c0.001-0.008,0.001-0.017,0.004-0.025c0.012-0.139,0.023-0.278,0.031-0.421c0-0.001,0-0.003,0-0.004
				c0.005-0.092,0.005-0.185,0.006-0.276c0.002-0.066,0.006-0.133,0.006-0.199C47.179,41.424,47.179,41.424,47.179,41.422z
				 M45.715,36.417c0.021,0.033,0.04,0.065,0.061,0.098c-0.05-0.077-0.101-0.157-0.15-0.234c0.011,0.018,0.022,0.033,0.034,0.051
				C45.678,36.36,45.696,36.39,45.715,36.417z M29.976,36.584c0.032-0.053,0.065-0.104,0.098-0.155
				c-0.009,0.016-0.018,0.031-0.027,0.046c-0.028,0.045-0.058,0.087-0.084,0.132C29.968,36.6,29.971,36.591,29.976,36.584z"/>
			<g>
				<path fill="#B5B4B4" d="M37.823,47.609v-1.547l0.889-0.072c0.116-0.021,0.195-0.039,0.287-0.061
					c0.174-0.043,0.343-0.094,0.503-0.152l0.936-0.471l0.476-0.36c0.057-0.049,0.108-0.097,0.16-0.145l0.074-0.07
					c0.045-0.044,0.098-0.097,0.161-0.166l0.993-1.679l0.208-0.952l0.026-0.522l-0.016-0.363l0.759-0.209l-0.767,0.096l-0.137-0.732
					c-0.038-0.144-0.094-0.308-0.154-0.467c-0.117-0.285-0.219-0.488-0.33-0.678l-0.568-0.855l0.658-0.43l0.156,0.233l0.063-0.032
					l-0.056-0.109l0.653-0.325l0.839,1.447l-0.042,0.021c0.008,0.021,0.018,0.042,0.025,0.063l0.04,0.101
					c0.085,0.217,0.157,0.436,0.215,0.651l0.2,1.268c0.008,0.146,0.008,0.336,0.008,0.336l-0.13,1.268l-0.075,0.317l-0.174-0.025
					l0.168,0.045l-0.168-0.029l0.162,0.047l-0.456,1.183l-0.53,0.858l-0.439,0.53c-0.082,0.087-0.148,0.155-0.217,0.223
					l-0.086,0.084c-0.078,0.072-0.15,0.137-0.226,0.2l-0.636,0.479l-1.229,0.619c-0.227,0.084-0.452,0.152-0.68,0.207
					c-0.124,0.03-0.229,0.052-0.33,0.07c-0.151,0.026-0.232,0.039-0.314,0.05L37.823,47.609z"/>
			</g>
		</g>
		<g>
			
				<rect x="36.89" y="18.096" transform="matrix(0.7071 0.7071 -0.7071 0.7071 36.9444 -16.5394)" fill="#2D3237" stroke="#B5B4B4" stroke-width="1.2" stroke-miterlimit="10" width="3.094" height="36.46"/>
		</g>
	</g>
</g>
</svg>
