<?xml version="1.0" encoding="utf-8"?>
<!-- Generator: Adobe Illustrator 16.2.0, SVG Export Plug-In . SVG Version: 6.00 Build 0)  -->
<!DOCTYPE svg PUBLIC "-//W3C//DTD SVG 1.1//EN" "http://www.w3.org/Graphics/SVG/1.1/DTD/svg11.dtd">
<svg version="1.1" id="图层_1" xmlns="http://www.w3.org/2000/svg" xmlns:xlink="http://www.w3.org/1999/xlink" x="0px" y="0px"
	 width="55px" height="55px" viewBox="0 0 55 55" enable-background="new 0 0 55 55" xml:space="preserve">
<g>
	<g>
		<g>
			<g>
				<path fill="#B5B4B4" d="M50.558,0.5c2.481,0,4.5,2.019,4.5,4.5v45c0,2.481-2.019,4.5-4.5,4.5h-45c-2.481,0-4.5-2.019-4.5-4.5V5
					c0-2.481,2.019-4.5,4.5-4.5H50.558 M50.558,0h-45c-2.75,0-5,2.25-5,5v45c0,2.75,2.25,5,5,5h45c2.75,0,5-2.25,5-5V5
					C55.558,2.25,53.308,0,50.558,0L50.558,0z"/>
			</g>
		</g>
		<g>
			<path fill="#B5B4B4" d="M49.401,5.297v32.375H6.714V5.297H49.401 M50.401,4.297H5.714v34.375h44.688V4.297L50.401,4.297z"/>
		</g>
		<line fill="none" stroke="#B5B4B4" stroke-width="2" stroke-miterlimit="10" x1="14.616" y1="9.088" x2="40.397" y2="9.088"/>
	</g>
	<g>
		<g>
			<path fill="#2D3237" stroke="#B5B4B4" stroke-width="3" stroke-miterlimit="10" d="M38.984,38.515L38.984,38.515
				c0-0.021-0.002-0.042-0.002-0.062c0-0.174-0.005-0.345-0.012-0.516c-0.002-0.004-0.002-0.009-0.002-0.014
				c-0.008-0.154-0.021-0.307-0.033-0.46c-0.004-0.023-0.004-0.046-0.005-0.068v-0.001c-0.005-0.031-0.007-0.063-0.009-0.094
				c-0.002-0.003-0.002-0.006-0.002-0.01c-0.006-0.062-0.015-0.122-0.023-0.183c-0.016-0.138-0.033-0.276-0.056-0.414
				c0,0,0-0.002,0-0.003c-0.017-0.107-0.038-0.216-0.058-0.322c-0.002-0.011-0.004-0.02-0.006-0.029
				c-0.013-0.076-0.027-0.151-0.043-0.227c0-0.002,0-0.003,0-0.005c-0.019-0.08-0.039-0.159-0.056-0.238
				c-0.003-0.008-0.004-0.017-0.007-0.025c-0.023-0.101-0.047-0.2-0.072-0.3c0,0,0,0,0-0.001c-0.003-0.009-0.006-0.018-0.008-0.024
				c-0.113-0.422-0.248-0.832-0.406-1.233c0-0.003-0.002-0.006-0.004-0.008c0-0.002,0-0.004,0-0.005
				c-0.229-0.583-0.504-1.143-0.82-1.676c0.01,0.017,0.02,0.032,0.03,0.049c0.012,0.02,0.024,0.039,0.035,0.059L27.384,15.31
				L17.335,32.712c0.005-0.01,0.012-0.019,0.019-0.028c0.031-0.054,0.062-0.108,0.094-0.162c-0.027,0.044-0.05,0.089-0.077,0.133
				c-0.022,0.04-0.045,0.079-0.069,0.119c-0.003,0.01-0.008,0.018-0.013,0.027c-0.087,0.15-0.169,0.305-0.249,0.46
				c-0.01,0.019-0.019,0.037-0.028,0.056c-0.003,0.004-0.005,0.01-0.009,0.015c-0.479,0.958-0.829,1.991-1.028,3.078
				c-0.005,0.026-0.009,0.051-0.014,0.075c-0.03,0.175-0.057,0.353-0.081,0.529c-0.003,0.031-0.01,0.061-0.014,0.092
				c-0.002,0.022-0.007,0.047-0.008,0.069c-0.003,0.021-0.003,0.044-0.005,0.064c-0.009,0.074-0.015,0.149-0.023,0.225
				c-0.003,0.044-0.009,0.088-0.012,0.132c-0.005,0.061-0.009,0.121-0.013,0.182c-0.002,0.025-0.002,0.05-0.003,0.076
				c-0.002,0.049-0.005,0.098-0.007,0.148c-0.001,0.037-0.005,0.075-0.006,0.113c-0.002,0.089-0.006,0.179-0.006,0.268
				c-0.001,0.031,0,0.063,0,0.095c0,0.013-0.001,0.024-0.001,0.036c0,0.014,0.001,0.025,0.001,0.037c0,0.041-0.001,0.08,0,0.119
				c0.001,0.087,0.003,0.175,0.006,0.261c0.001,0.047,0.004,0.093,0.006,0.139c0.002,0.024,0.003,0.048,0.004,0.074
				c0.001,0.022,0.001,0.046,0.004,0.069c0,0.012,0,0.024,0.001,0.037c0.005,0.064,0.009,0.128,0.015,0.191
				c0.004,0.047,0.009,0.092,0.014,0.139c0.005,0.062,0.01,0.123,0.016,0.185c0.004,0.029,0.005,0.06,0.009,0.09
				c0.001,0.023,0.005,0.046,0.007,0.067c0.004,0.024,0.01,0.049,0.013,0.072c0.169,1.329,0.564,2.59,1.143,3.738
				c0.001,0.002,0.002,0.004,0.003,0.007c0.003,0.009,0.01,0.019,0.015,0.028c0.084,0.166,0.173,0.329,0.264,0.49
				c0.004,0.008,0.009,0.016,0.013,0.025c0.014,0.022,0.028,0.046,0.042,0.07c0.001,0.005,0.005,0.009,0.007,0.014
				c0.069,0.117,0.141,0.234,0.215,0.35c0.016,0.026,0.032,0.053,0.048,0.079c0.012,0.02,0.024,0.039,0.037,0.058
				c0.01,0.016,0.021,0.03,0.032,0.047c0.056,0.085,0.114,0.168,0.171,0.252c0.029,0.041,0.056,0.084,0.085,0.124
				c0.015,0.022,0.032,0.045,0.049,0.068c0.015,0.019,0.03,0.037,0.043,0.057c0.039,0.053,0.078,0.103,0.118,0.154
				c0.042,0.057,0.085,0.113,0.127,0.168c0.025,0.032,0.05,0.063,0.076,0.097c0.015,0.018,0.032,0.035,0.049,0.054
				c0.016,0.021,0.035,0.042,0.052,0.063c0.054,0.064,0.106,0.128,0.161,0.19c0.014,0.018,0.027,0.032,0.041,0.049
				c0.029,0.032,0.059,0.065,0.087,0.098c0.073,0.081,0.146,0.159,0.22,0.238c0.023,0.022,0.044,0.045,0.065,0.067
				c0.042,0.043,0.084,0.086,0.125,0.129c0.061,0.063,0.124,0.12,0.186,0.18c0.02,0.019,0.04,0.038,0.061,0.058
				c0.062,0.059,0.124,0.117,0.188,0.176c0.054,0.05,0.11,0.097,0.166,0.146c0.008,0.007,0.015,0.014,0.024,0.021
				c0.068,0.058,0.136,0.115,0.206,0.172c0.001,0.003,0.006,0.006,0.008,0.008c0.017,0.014,0.034,0.028,0.05,0.043
				c0.049,0.039,0.098,0.078,0.148,0.117c0.06,0.047,0.122,0.092,0.183,0.14c0.029,0.021,0.055,0.042,0.084,0.063
				c0.019,0.015,0.037,0.029,0.057,0.044c0.042,0.031,0.084,0.061,0.124,0.09c0.045,0.03,0.091,0.061,0.134,0.091
				c0.059,0.042,0.119,0.083,0.18,0.124c0.017,0.011,0.034,0.023,0.05,0.034c0.039,0.024,0.076,0.05,0.114,0.073
				c0.023,0.016,0.047,0.028,0.071,0.043c0.101,0.063,0.2,0.124,0.302,0.184c0.003,0.003,0.006,0.004,0.01,0.006
				c0.043,0.027,0.086,0.052,0.131,0.077c0.012,0.007,0.022,0.012,0.035,0.019c0.151,0.087,0.304,0.168,0.461,0.248
				c0.015,0.008,0.029,0.016,0.044,0.023c0.003,0.002,0.005,0.002,0.009,0.003c0.775,0.39,1.601,0.694,2.465,0.901
				c0.013,0.003,0.027,0.007,0.042,0.01c0.183,0.044,0.369,0.083,0.557,0.118c0.053,0.01,0.105,0.019,0.159,0.027
				c0.144,0.024,0.288,0.047,0.433,0.066c0.049,0.007,0.098,0.016,0.148,0.022c0.012,0.002,0.023,0.002,0.034,0.003
				c0.035,0.004,0.07,0.007,0.104,0.01c0.053,0.007,0.106,0.011,0.159,0.016c0.059,0.005,0.119,0.013,0.179,0.017
				c0.056,0.005,0.112,0.009,0.169,0.013c0.037,0.003,0.074,0.004,0.111,0.006c0.027,0.001,0.054,0.003,0.081,0.005
				c0.048,0,0.099,0.004,0.148,0.005c0.085,0.003,0.167,0.006,0.252,0.007c0.044,0.002,0.086,0.002,0.129,0
				c0.006,0,0.012,0.002,0.019,0.002s0.013-0.002,0.019-0.002c0.042,0.002,0.084,0.002,0.125,0c0.089-0.001,0.175-0.004,0.262-0.007
				c0.05-0.001,0.101-0.005,0.151-0.007c0.023,0,0.045-0.002,0.069-0.003c0.035-0.002,0.07-0.002,0.106-0.005
				c0.064-0.005,0.129-0.01,0.193-0.015c0.058-0.006,0.113-0.011,0.17-0.017c0.049-0.004,0.098-0.008,0.146-0.012
				c0.03-0.005,0.064-0.007,0.096-0.012c0.026-0.002,0.053-0.006,0.079-0.009c0.041-0.006,0.082-0.014,0.123-0.019
				c0.155-0.021,0.311-0.045,0.463-0.071c0.044-0.007,0.085-0.015,0.128-0.022c0.194-0.037,0.39-0.078,0.581-0.124
				c0.006-0.001,0.016-0.003,0.023-0.005c0.461-0.111,0.91-0.249,1.348-0.414c0.004,0,0.004-0.002,0.007-0.002
				c0.013-0.004,0.023-0.01,0.035-0.015c0.173-0.065,0.344-0.135,0.512-0.208c0.003-0.002,0.007-0.004,0.011-0.005
				c0.023-0.01,0.045-0.021,0.068-0.031c0.152-0.068,0.304-0.139,0.453-0.212c0.01-0.007,0.021-0.011,0.031-0.016
				c0.058-0.03,0.116-0.061,0.176-0.091c0.102-0.055,0.204-0.108,0.305-0.166c0.021-0.012,0.041-0.021,0.061-0.033
				c0.043-0.025,0.088-0.05,0.133-0.077c0.01-0.006,0.02-0.013,0.031-0.018c0.086-0.054,0.174-0.106,0.259-0.159
				c0.025-0.018,0.054-0.032,0.078-0.049c0.026-0.016,0.052-0.033,0.078-0.05c0.017-0.01,0.032-0.02,0.048-0.03
				c0.02-0.013,0.037-0.025,0.059-0.04c0.053-0.036,0.107-0.072,0.162-0.11c0.028-0.021,0.061-0.041,0.089-0.062
				c0.063-0.046,0.13-0.09,0.193-0.137c0.017-0.014,0.033-0.026,0.05-0.038c0.021-0.016,0.041-0.03,0.059-0.046
				c0.034-0.024,0.067-0.05,0.1-0.076c0.09-0.069,0.183-0.14,0.271-0.212c0.035-0.029,0.069-0.058,0.103-0.086
				c0.032-0.026,0.06-0.055,0.091-0.081c0.133-0.115,0.266-0.233,0.395-0.354c0.057-0.053,0.112-0.104,0.168-0.161
				c0.134-0.13,0.262-0.262,0.389-0.397c0.025-0.026,0.055-0.053,0.08-0.082c0.004-0.005,0.013-0.011,0.018-0.018
				c0.102-0.112,0.201-0.229,0.299-0.346c0.029-0.034,0.057-0.067,0.084-0.101c0.076-0.093,0.151-0.189,0.225-0.285
				c0.018-0.023,0.035-0.045,0.053-0.07c0.025-0.03,0.047-0.061,0.07-0.091c0.006-0.009,0.014-0.019,0.02-0.027
				c0.056-0.073,0.107-0.148,0.16-0.224c0.015-0.021,0.028-0.043,0.043-0.064c0.044-0.063,0.086-0.124,0.128-0.187
				c0.005-0.008,0.012-0.015,0.017-0.024c0.037-0.056,0.072-0.111,0.107-0.168c0.016-0.023,0.03-0.047,0.045-0.072
				c0.046-0.074,0.093-0.148,0.139-0.226c0.012-0.018,0.021-0.035,0.032-0.054c0.025-0.043,0.05-0.087,0.075-0.131
				c0.008-0.014,0.015-0.027,0.021-0.04c0.059-0.101,0.114-0.204,0.17-0.31c0.004-0.011,0.01-0.021,0.016-0.032
				c0.008-0.013,0.014-0.025,0.021-0.037c0.016-0.033,0.033-0.066,0.049-0.1c0.006-0.011,0.011-0.023,0.016-0.034
				c0.051-0.1,0.1-0.2,0.146-0.303c0.002-0.001,0.002-0.002,0.004-0.004c0.029-0.067,0.061-0.135,0.091-0.201
				c0.006-0.015,0.013-0.029,0.02-0.045c0.059-0.136,0.116-0.275,0.169-0.415c0.014-0.033,0.027-0.066,0.041-0.1
				c0.002-0.007,0.005-0.016,0.008-0.021c0.054-0.144,0.103-0.288,0.151-0.434c0.01-0.031,0.021-0.063,0.032-0.093
				c0.002-0.006,0.003-0.011,0.006-0.015c0.004-0.014,0.008-0.029,0.012-0.041c0.032-0.102,0.061-0.204,0.09-0.307
				c0.012-0.04,0.025-0.08,0.035-0.12c0.01-0.032,0.018-0.063,0.026-0.095c0.002-0.004,0.003-0.008,0.003-0.012
				c0.027-0.106,0.053-0.212,0.078-0.319c0.004-0.015,0.008-0.031,0.012-0.047c0.015-0.063,0.031-0.127,0.043-0.191
				c0.002-0.007,0.004-0.015,0.004-0.021c0.017-0.078,0.031-0.156,0.046-0.233c0.001-0.011,0.005-0.021,0.006-0.031
				c0.019-0.101,0.038-0.201,0.054-0.301c0.001-0.005,0.001-0.007,0.001-0.011c0.009-0.053,0.015-0.106,0.024-0.159
				c0-0.007,0-0.014,0.002-0.021c0.02-0.139,0.039-0.277,0.053-0.416c0-0.006,0.002-0.01,0.002-0.016
				c0.002-0.016,0.004-0.032,0.004-0.048c0.002-0.011,0.002-0.021,0.005-0.031c0.015-0.175,0.03-0.35,0.038-0.526
				c0-0.002,0-0.004,0-0.006c0.008-0.115,0.008-0.231,0.009-0.348c0.002-0.083,0.007-0.164,0.007-0.247
				C38.984,38.517,38.984,38.517,38.984,38.515z M37.154,32.259c0.025,0.04,0.051,0.081,0.075,0.121
				c-0.062-0.097-0.125-0.196-0.187-0.292c0.013,0.021,0.027,0.041,0.041,0.064C37.108,32.188,37.131,32.223,37.154,32.259z
				 M17.48,32.467c0.04-0.066,0.082-0.129,0.123-0.193c-0.011,0.019-0.022,0.038-0.034,0.057c-0.035,0.057-0.072,0.109-0.106,0.165
				C17.47,32.486,17.475,32.476,17.48,32.467z"/>
			<g>
				<path fill="#B5B4B4" d="M27.29,46.25v-1.936l1.112-0.092c0.145-0.025,0.243-0.046,0.358-0.074
					c0.217-0.053,0.428-0.115,0.629-0.189l1.169-0.589l0.595-0.45c0.07-0.061,0.137-0.119,0.201-0.181l0.092-0.087
					c0.057-0.056,0.122-0.122,0.202-0.209l1.241-2.099l0.26-1.189l0.033-0.653l-0.02-0.454l0.947-0.261l-0.959,0.119l-0.17-0.916
					c-0.047-0.18-0.115-0.384-0.193-0.584c-0.146-0.355-0.271-0.609-0.412-0.847l-0.709-1.07l0.822-0.536l0.194,0.292l0.078-0.039
					l-0.068-0.138l0.815-0.407l1.049,1.81l-0.053,0.026c0.012,0.026,0.022,0.054,0.032,0.079l0.051,0.126
					c0.105,0.27,0.196,0.543,0.269,0.813l0.25,1.584c0.01,0.182,0.01,0.42,0.01,0.42l-0.162,1.586l-0.095,0.396l-0.218-0.033
					l0.211,0.058l-0.209-0.037l0.203,0.059l-0.572,1.479L33.611,43.1l-0.551,0.663c-0.102,0.108-0.184,0.193-0.27,0.277
					l-0.108,0.105c-0.097,0.091-0.188,0.17-0.281,0.25l-0.794,0.598l-1.535,0.774c-0.285,0.104-0.566,0.189-0.852,0.259
					c-0.154,0.037-0.285,0.064-0.413,0.089c-0.188,0.032-0.29,0.048-0.392,0.062L27.29,46.25z"/>
			</g>
		</g>
		<g>
			
				<rect x="26.124" y="9.357" transform="matrix(0.7071 0.7071 -0.7071 0.7071 30.9475 -10.4248)" fill="#B5B4B4" stroke="#2D3237" stroke-width="1.5" stroke-miterlimit="10" width="3.867" height="45.575"/>
		</g>
	</g>
</g>
</svg>
