<?xml version="1.0" encoding="utf-8"?>
<!-- Generator: Adobe Illustrator 16.2.0, SVG Export Plug-In . SVG Version: 6.00 Build 0)  -->
<!DOCTYPE svg PUBLIC "-//W3C//DTD SVG 1.1//EN" "http://www.w3.org/Graphics/SVG/1.1/DTD/svg11.dtd">
<svg version="1.1" id="图层_1" xmlns="http://www.w3.org/2000/svg" xmlns:xlink="http://www.w3.org/1999/xlink" x="0px" y="0px"
	 width="55px" height="55px" viewBox="0 0 55 55" enable-background="new 0 0 55 55" xml:space="preserve">
<g>
	<g>
		<g>
			<path fill="#B5B4B4" d="M50,0.5c2.481,0,4.5,2.019,4.5,4.5v45c0,2.481-2.019,4.5-4.5,4.5H5c-2.481,0-4.5-2.019-4.5-4.5V5
				c0-2.481,2.019-4.5,4.5-4.5H50 M50,0H5C2.25,0,0,2.25,0,5v45c0,2.75,2.25,5,5,5h45c2.75,0,5-2.25,5-5V5C55,2.25,52.75,0,50,0
				L50,0z"/>
		</g>
	</g>
	<g>
		<rect x="5.586" y="4.726" fill="none" stroke="#B5B4B4" stroke-miterlimit="10" width="13.463" height="33.517"/>
		<line fill="none" stroke="#B5B4B4" stroke-width="2" stroke-miterlimit="10" x1="8.88" y1="9.372" x2="15.755" y2="9.372"/>
		<rect x="20.769" y="4.726" fill="none" stroke="#B5B4B4" stroke-miterlimit="10" width="13.463" height="33.517"/>
		<line fill="none" stroke="#B5B4B4" stroke-width="2" stroke-miterlimit="10" x1="24.063" y1="9.372" x2="30.938" y2="9.372"/>
		<rect x="35.951" y="4.726" fill="none" stroke="#B5B4B4" stroke-miterlimit="10" width="13.463" height="33.517"/>
		<line fill="none" stroke="#B5B4B4" stroke-width="2" stroke-miterlimit="10" x1="39.245" y1="9.372" x2="46.12" y2="9.372"/>
	</g>
	<g>
		<g>
			<path fill="#2D3237" stroke="#B5B4B4" stroke-width="3" stroke-miterlimit="10" d="M39.058,38.515L39.058,38.515
				c0-0.021-0.001-0.042-0.001-0.062c-0.002-0.173-0.006-0.346-0.012-0.516c-0.002-0.005-0.002-0.01-0.002-0.014
				c-0.008-0.154-0.021-0.307-0.033-0.461c-0.004-0.022-0.005-0.045-0.006-0.067v-0.001c-0.004-0.031-0.006-0.063-0.01-0.095
				c0-0.002,0-0.006,0-0.009c-0.007-0.062-0.016-0.121-0.024-0.183c-0.017-0.139-0.032-0.277-0.056-0.414c0-0.001,0-0.003,0-0.003
				c-0.016-0.108-0.037-0.217-0.058-0.324c-0.002-0.009-0.003-0.018-0.005-0.027c-0.014-0.076-0.027-0.15-0.044-0.228
				c0-0.001,0-0.002,0-0.005c-0.019-0.079-0.038-0.158-0.056-0.236c-0.003-0.01-0.004-0.018-0.006-0.027
				c-0.023-0.1-0.047-0.199-0.074-0.299c0,0,0,0,0-0.001c-0.002-0.009-0.004-0.018-0.007-0.024
				c-0.112-0.422-0.249-0.833-0.405-1.232c-0.001-0.004-0.002-0.007-0.004-0.01c0-0.002,0-0.002-0.002-0.004
				c-0.229-0.582-0.503-1.144-0.819-1.676c0.011,0.016,0.021,0.032,0.03,0.048c0.012,0.021,0.024,0.039,0.035,0.06L27.458,15.309
				L17.409,32.711c0.005-0.01,0.012-0.018,0.019-0.028c0.031-0.053,0.062-0.107,0.094-0.161c-0.027,0.044-0.05,0.089-0.077,0.133
				c-0.022,0.039-0.045,0.079-0.069,0.119c-0.003,0.009-0.008,0.017-0.014,0.026c-0.087,0.15-0.169,0.306-0.249,0.46
				c-0.01,0.019-0.018,0.038-0.028,0.057c-0.003,0.004-0.005,0.01-0.008,0.015c-0.479,0.958-0.829,1.991-1.028,3.078
				c-0.005,0.025-0.009,0.05-0.014,0.075c-0.03,0.175-0.057,0.352-0.081,0.53c-0.003,0.029-0.01,0.06-0.013,0.091
				c-0.003,0.021-0.007,0.046-0.009,0.069c-0.003,0.021-0.003,0.043-0.005,0.064c-0.009,0.074-0.015,0.149-0.023,0.222
				c-0.003,0.047-0.008,0.09-0.012,0.135c-0.005,0.061-0.009,0.121-0.014,0.182c-0.001,0.025-0.001,0.05-0.003,0.076
				c-0.003,0.048-0.005,0.098-0.007,0.147c-0.002,0.038-0.005,0.076-0.006,0.114c-0.002,0.089-0.006,0.178-0.006,0.268
				c-0.002,0.031,0,0.063,0,0.094c0,0.014-0.002,0.025-0.002,0.038s0.002,0.024,0.002,0.036c0,0.04-0.002,0.08,0,0.119
				c0,0.087,0.003,0.175,0.006,0.261c0.001,0.046,0.004,0.093,0.006,0.138c0.001,0.025,0.003,0.049,0.004,0.073
				c0.001,0.024,0.001,0.048,0.004,0.069c0,0.014,0,0.027,0.001,0.039c0.005,0.063,0.009,0.128,0.015,0.191
				c0.004,0.047,0.009,0.092,0.014,0.139c0.005,0.061,0.01,0.123,0.016,0.184c0.004,0.03,0.005,0.061,0.009,0.091
				c0.002,0.022,0.005,0.045,0.007,0.067c0.004,0.024,0.01,0.049,0.014,0.072c0.169,1.33,0.564,2.589,1.143,3.738
				c0,0.001,0.001,0.004,0.003,0.008c0.003,0.007,0.01,0.018,0.015,0.026c0.084,0.166,0.173,0.33,0.265,0.491
				c0.004,0.007,0.009,0.016,0.013,0.024c0.013,0.024,0.027,0.047,0.042,0.071c0.001,0.005,0.005,0.009,0.006,0.013
				c0.07,0.118,0.141,0.234,0.215,0.35c0.016,0.027,0.032,0.054,0.049,0.08c0.012,0.02,0.023,0.04,0.037,0.058
				c0.01,0.016,0.021,0.03,0.032,0.046c0.055,0.087,0.114,0.169,0.171,0.252c0.029,0.041,0.055,0.083,0.085,0.124
				c0.015,0.022,0.032,0.047,0.049,0.068c0.015,0.02,0.03,0.038,0.043,0.058c0.039,0.054,0.078,0.103,0.118,0.153
				c0.042,0.058,0.085,0.113,0.127,0.169c0.025,0.032,0.05,0.063,0.076,0.096c0.015,0.019,0.032,0.036,0.048,0.055
				c0.016,0.021,0.035,0.042,0.052,0.063c0.054,0.063,0.105,0.128,0.16,0.19c0.014,0.017,0.028,0.032,0.041,0.049
				c0.029,0.032,0.059,0.064,0.087,0.098c0.073,0.081,0.146,0.158,0.22,0.237c0.023,0.022,0.044,0.045,0.065,0.068
				c0.042,0.043,0.084,0.087,0.125,0.129c0.061,0.062,0.124,0.12,0.186,0.18c0.021,0.019,0.041,0.038,0.061,0.058
				c0.062,0.058,0.124,0.117,0.188,0.177c0.055,0.048,0.11,0.096,0.166,0.144c0.009,0.007,0.015,0.015,0.024,0.022
				c0.068,0.058,0.136,0.115,0.206,0.172c0.002,0.003,0.006,0.005,0.008,0.008c0.017,0.015,0.034,0.028,0.051,0.043
				c0.048,0.039,0.098,0.078,0.147,0.118c0.061,0.046,0.122,0.091,0.183,0.138c0.028,0.021,0.055,0.042,0.084,0.063
				c0.018,0.015,0.037,0.029,0.057,0.044c0.042,0.031,0.083,0.061,0.124,0.09c0.045,0.03,0.091,0.06,0.134,0.092
				c0.059,0.04,0.119,0.082,0.18,0.123c0.017,0.011,0.034,0.023,0.05,0.034c0.039,0.024,0.076,0.05,0.114,0.073
				c0.023,0.014,0.047,0.028,0.07,0.042c0.101,0.063,0.2,0.126,0.302,0.186c0.003,0.001,0.006,0.002,0.01,0.005
				c0.044,0.026,0.086,0.052,0.131,0.077c0.012,0.007,0.021,0.012,0.035,0.019c0.151,0.088,0.304,0.168,0.461,0.247
				c0.015,0.009,0.028,0.016,0.043,0.024c0.003,0.002,0.005,0.002,0.009,0.004c0.775,0.388,1.602,0.691,2.465,0.9
				c0.014,0.003,0.028,0.007,0.042,0.01c0.183,0.044,0.369,0.082,0.557,0.117c0.053,0.01,0.106,0.02,0.159,0.028
				c0.144,0.024,0.288,0.047,0.433,0.065c0.05,0.006,0.098,0.017,0.148,0.022c0.012,0.002,0.023,0.002,0.034,0.005
				c0.035,0.003,0.071,0.006,0.105,0.009c0.053,0.006,0.106,0.011,0.159,0.016c0.059,0.005,0.119,0.013,0.179,0.017
				c0.055,0.004,0.112,0.009,0.168,0.013c0.037,0.003,0.074,0.003,0.111,0.006c0.027,0.001,0.054,0.002,0.081,0.003
				c0.049,0.002,0.099,0.006,0.148,0.007c0.085,0.003,0.167,0.005,0.253,0.006c0.043,0.002,0.085,0.002,0.129,0
				c0.006,0,0.012,0.002,0.019,0.002c0.007,0,0.013-0.002,0.019-0.002c0.042,0.002,0.084,0.002,0.126,0
				c0.089-0.001,0.174-0.003,0.262-0.006c0.05-0.001,0.101-0.005,0.151-0.007c0.023-0.001,0.045-0.002,0.068-0.003
				c0.035-0.003,0.07-0.003,0.105-0.005c0.066-0.005,0.13-0.01,0.195-0.015c0.057-0.005,0.113-0.011,0.17-0.016
				c0.049-0.005,0.097-0.01,0.145-0.014c0.031-0.004,0.064-0.006,0.096-0.011c0.026-0.003,0.053-0.006,0.08-0.01
				c0.041-0.006,0.081-0.013,0.122-0.019c0.155-0.02,0.311-0.044,0.463-0.07c0.044-0.008,0.085-0.016,0.128-0.023
				c0.195-0.036,0.39-0.078,0.581-0.123c0.007-0.001,0.017-0.003,0.023-0.005c0.461-0.111,0.909-0.249,1.348-0.414
				c0.003-0.001,0.005-0.002,0.007-0.002c0.013-0.004,0.023-0.009,0.035-0.015c0.173-0.065,0.344-0.135,0.512-0.208
				c0.004-0.003,0.007-0.003,0.01-0.005c0.023-0.011,0.046-0.021,0.069-0.031c0.153-0.068,0.304-0.139,0.453-0.213
				c0.011-0.006,0.021-0.01,0.031-0.015c0.058-0.029,0.116-0.062,0.175-0.091c0.104-0.055,0.205-0.109,0.307-0.166
				c0.02-0.011,0.039-0.021,0.061-0.033c0.043-0.025,0.088-0.051,0.132-0.077c0.011-0.006,0.021-0.013,0.031-0.019
				c0.087-0.053,0.174-0.105,0.259-0.159c0.025-0.017,0.053-0.031,0.078-0.049c0.026-0.016,0.052-0.032,0.078-0.049
				c0.018-0.011,0.032-0.021,0.048-0.03c0.02-0.014,0.038-0.024,0.058-0.04c0.055-0.036,0.109-0.073,0.163-0.11
				c0.028-0.021,0.061-0.041,0.089-0.062c0.064-0.046,0.129-0.091,0.193-0.137c0.017-0.014,0.033-0.026,0.051-0.039
				c0.02-0.016,0.04-0.03,0.059-0.045c0.033-0.024,0.066-0.05,0.099-0.076c0.091-0.068,0.183-0.14,0.272-0.212
				c0.034-0.029,0.068-0.058,0.102-0.086c0.032-0.027,0.059-0.056,0.091-0.081c0.134-0.115,0.266-0.233,0.395-0.354
				c0.056-0.053,0.112-0.106,0.168-0.162c0.134-0.129,0.262-0.262,0.39-0.397c0.025-0.026,0.054-0.054,0.078-0.082
				c0.006-0.006,0.014-0.012,0.02-0.018c0.102-0.113,0.201-0.229,0.299-0.346c0.027-0.034,0.057-0.067,0.084-0.101
				c0.076-0.093,0.15-0.189,0.225-0.285c0.018-0.023,0.035-0.047,0.053-0.07c0.023-0.03,0.046-0.061,0.069-0.091
				c0.006-0.01,0.014-0.019,0.021-0.027c0.055-0.073,0.106-0.148,0.159-0.224c0.015-0.021,0.028-0.044,0.044-0.064
				c0.043-0.063,0.086-0.124,0.127-0.186c0.006-0.01,0.012-0.018,0.018-0.024c0.037-0.057,0.07-0.113,0.107-0.17
				c0.015-0.022,0.029-0.047,0.044-0.071c0.046-0.074,0.093-0.148,0.139-0.226c0.012-0.018,0.021-0.035,0.032-0.053
				c0.025-0.044,0.051-0.088,0.076-0.133c0.008-0.014,0.014-0.026,0.021-0.039c0.06-0.103,0.114-0.205,0.17-0.309
				c0.005-0.012,0.011-0.023,0.017-0.033c0.007-0.012,0.014-0.024,0.02-0.037c0.018-0.033,0.034-0.066,0.051-0.101
				c0.006-0.011,0.01-0.021,0.016-0.033c0.05-0.101,0.099-0.201,0.146-0.302c0.002-0.001,0.002-0.003,0.003-0.006
				c0.031-0.066,0.063-0.134,0.092-0.201c0.006-0.013,0.013-0.028,0.02-0.044c0.059-0.137,0.115-0.276,0.17-0.415
				c0.012-0.034,0.027-0.067,0.04-0.1c0.003-0.008,0.005-0.016,0.007-0.021c0.055-0.144,0.104-0.287,0.152-0.433
				c0.01-0.031,0.021-0.063,0.032-0.094c0.001-0.005,0.003-0.01,0.007-0.014c0.003-0.015,0.006-0.029,0.012-0.041
				c0.031-0.102,0.061-0.205,0.09-0.307c0.011-0.04,0.023-0.081,0.035-0.121c0.009-0.031,0.018-0.063,0.025-0.095
				c0.002-0.003,0.004-0.007,0.004-0.011c0.027-0.106,0.052-0.213,0.077-0.318c0.004-0.016,0.009-0.031,0.012-0.047
				c0.015-0.064,0.032-0.129,0.044-0.192c0.002-0.007,0.003-0.014,0.004-0.021c0.016-0.078,0.03-0.156,0.045-0.234
				c0.001-0.01,0.004-0.021,0.006-0.03c0.019-0.1,0.039-0.201,0.055-0.302c0-0.004,0-0.006,0-0.01
				c0.01-0.053,0.016-0.106,0.024-0.159c0-0.008,0.001-0.014,0.002-0.021c0.021-0.139,0.039-0.277,0.054-0.416
				c0-0.006,0-0.01,0-0.016c0.004-0.016,0.005-0.031,0.006-0.048c0-0.012,0-0.022,0.004-0.032c0.016-0.175,0.03-0.349,0.039-0.526
				c0-0.001,0-0.003,0-0.004c0.006-0.117,0.006-0.232,0.008-0.349c0.002-0.083,0.007-0.164,0.007-0.247
				C39.058,38.516,39.058,38.516,39.058,38.515z M37.229,32.258c0.025,0.041,0.051,0.082,0.074,0.122
				c-0.061-0.098-0.125-0.196-0.188-0.292c0.014,0.021,0.029,0.042,0.043,0.063C37.182,32.188,37.205,32.224,37.229,32.258z
				 M17.553,32.467c0.041-0.066,0.083-0.129,0.123-0.193c-0.011,0.019-0.022,0.038-0.034,0.057
				c-0.035,0.057-0.072,0.109-0.105,0.165C17.543,32.484,17.548,32.475,17.553,32.467z"/>
			<g>
				<path fill="#B5B4B4" d="M27.363,46.249v-1.934l1.111-0.093c0.145-0.026,0.244-0.046,0.359-0.074
					c0.217-0.053,0.428-0.116,0.628-0.189l1.169-0.588l0.594-0.451c0.072-0.061,0.137-0.12,0.203-0.181l0.09-0.088
					c0.058-0.056,0.123-0.121,0.203-0.208l1.24-2.1l0.261-1.188l0.034-0.653l-0.021-0.454l0.948-0.261l-0.959,0.119l-0.171-0.916
					c-0.047-0.18-0.116-0.384-0.192-0.584c-0.146-0.356-0.272-0.61-0.414-0.848l-0.709-1.068l0.824-0.537l0.193,0.292l0.078-0.038
					l-0.068-0.139l0.815-0.407l1.049,1.81l-0.052,0.026c0.011,0.026,0.021,0.053,0.031,0.078l0.051,0.126
					c0.105,0.27,0.196,0.544,0.269,0.814l0.25,1.584c0.009,0.181,0.011,0.42,0.011,0.42l-0.164,1.586L34.932,40.5l-0.217-0.031
					l0.211,0.058l-0.21-0.038l0.202,0.059l-0.57,1.479L33.686,43.1l-0.551,0.663c-0.102,0.108-0.186,0.193-0.271,0.277l-0.108,0.104
					c-0.096,0.092-0.188,0.171-0.281,0.25l-0.794,0.599l-1.536,0.773c-0.283,0.105-0.564,0.19-0.851,0.26
					c-0.154,0.037-0.284,0.064-0.413,0.089c-0.188,0.032-0.289,0.048-0.391,0.062L27.363,46.249z"/>
			</g>
		</g>
		<g>
			
				<rect x="26.198" y="9.356" transform="matrix(0.7072 0.707 -0.707 0.7072 30.961 -10.4773)" fill="#B5B4B4" stroke="#2D3237" stroke-width="1.5" stroke-miterlimit="10" width="3.866" height="45.575"/>
		</g>
	</g>
</g>
</svg>
