<?xml version="1.0" encoding="utf-8"?>
<!-- Generator: Adobe Illustrator 16.2.0, SVG Export Plug-In . SVG Version: 6.00 Build 0)  -->
<!DOCTYPE svg PUBLIC "-//W3C//DTD SVG 1.1//EN" "http://www.w3.org/Graphics/SVG/1.1/DTD/svg11.dtd">
<svg version="1.1" id="图层_1" xmlns="http://www.w3.org/2000/svg" xmlns:xlink="http://www.w3.org/1999/xlink" x="0px" y="0px"
	 width="55px" height="55px" viewBox="0 0 55 55" enable-background="new 0 0 55 55" xml:space="preserve">
<g>
	<g>
		<g>
			<path fill="#B5B4B4" d="M50,0.5c2.481,0,4.5,2.019,4.5,4.5v45c0,2.481-2.019,4.5-4.5,4.5H5c-2.481,0-4.5-2.019-4.5-4.5V5
				c0-2.481,2.019-4.5,4.5-4.5H50 M50,0H5C2.25,0,0,2.25,0,5v45c0,2.75,2.25,5,5,5h45c2.75,0,5-2.25,5-5V5C55,2.25,52.75,0,50,0
				L50,0z"/>
		</g>
	</g>
	<g>
		<g>
			<path fill="#B5B4B4" d="M48.844,7.016v40.969H6.156V7.016H48.844 M49.844,6.016H5.156v42.969h44.688V6.016L49.844,6.016z"/>
		</g>
	</g>
	<g>
		<g>
			<rect x="16.888" y="17.566" fill="#B5B4B4" width="2.318" height="6.961"/>
			
				<rect x="9.83" y="31.874" transform="matrix(0.8658 -0.5003 0.5003 0.8658 -16.2138 10.2408)" fill="#B5B4B4" width="2.319" height="6.962"/>
			
				<rect x="23.943" y="31.874" transform="matrix(-0.8661 -0.4999 0.4999 -0.8661 29.1695 78.5239)" fill="#B5B4B4" width="2.321" height="6.962"/>
		</g>
	</g>
	<g>
		<g>
			<path fill="#2D3237" stroke="#B5B4B4" stroke-width="2.4" stroke-miterlimit="10" d="M47.179,41.424v-0.002
				c0-0.016-0.002-0.033-0.002-0.049c0-0.139-0.004-0.275-0.008-0.412c-0.002-0.004-0.002-0.008-0.002-0.011
				c-0.008-0.124-0.018-0.246-0.027-0.368c-0.004-0.018-0.004-0.036-0.004-0.055v-0.001c-0.004-0.025-0.006-0.05-0.008-0.075
				c0-0.002,0-0.004,0-0.008c-0.006-0.049-0.013-0.098-0.02-0.146c-0.014-0.109-0.026-0.221-0.044-0.33c0-0.001,0-0.002,0-0.002
				c-0.014-0.088-0.03-0.174-0.048-0.26c-0.001-0.008-0.002-0.016-0.003-0.021c-0.012-0.061-0.022-0.122-0.035-0.182
				c0-0.001,0-0.003,0-0.004c-0.015-0.064-0.03-0.127-0.044-0.191c-0.003-0.006-0.004-0.014-0.006-0.02
				c-0.02-0.08-0.037-0.16-0.059-0.24c0,0,0,0,0-0.002c-0.002-0.006-0.004-0.013-0.006-0.02c-0.09-0.338-0.199-0.666-0.324-0.986
				c-0.001-0.002-0.002-0.004-0.003-0.006c0,0,0-0.003-0.001-0.004c-0.184-0.467-0.403-0.914-0.656-1.34
				c0.008,0.012,0.016,0.025,0.024,0.039c0.009,0.016,0.02,0.031,0.028,0.047l-8.035-13.917L29.86,36.779
				c0.003-0.006,0.008-0.014,0.014-0.021c0.024-0.043,0.05-0.086,0.074-0.13c-0.021,0.036-0.039,0.072-0.061,0.106
				c-0.018,0.031-0.036,0.063-0.055,0.096c-0.004,0.007-0.007,0.014-0.012,0.021c-0.068,0.12-0.135,0.245-0.198,0.37
				c-0.009,0.014-0.015,0.029-0.023,0.043c-0.001,0.004-0.003,0.008-0.007,0.013c-0.383,0.767-0.662,1.593-0.822,2.462
				c-0.004,0.02-0.007,0.041-0.011,0.061c-0.024,0.14-0.046,0.281-0.064,0.424c-0.003,0.023-0.009,0.047-0.011,0.072
				c-0.002,0.018-0.006,0.037-0.006,0.056c-0.004,0.018-0.004,0.035-0.006,0.052c-0.006,0.059-0.012,0.119-0.018,0.18
				c-0.003,0.035-0.008,0.07-0.01,0.105c-0.004,0.049-0.008,0.097-0.011,0.146c-0.002,0.021-0.002,0.04-0.003,0.06
				c-0.002,0.039-0.004,0.08-0.006,0.119c0,0.031-0.003,0.061-0.004,0.092c-0.002,0.07-0.004,0.143-0.004,0.213
				c-0.002,0.025,0,0.052,0,0.076c0,0.01-0.002,0.02-0.002,0.029c0,0.011,0.002,0.02,0.002,0.03c0,0.032-0.002,0.063,0,0.095
				c0,0.07,0.002,0.139,0.004,0.209c0.001,0.035,0.004,0.074,0.004,0.109c0.002,0.021,0.004,0.039,0.004,0.061
				c0.002,0.018,0.002,0.037,0.003,0.055c0,0.011,0,0.021,0.002,0.03c0.003,0.052,0.007,0.103,0.012,0.154
				c0.003,0.036,0.007,0.073,0.012,0.11c0.003,0.049,0.007,0.098,0.012,0.146c0.003,0.023,0.005,0.049,0.009,0.073
				c0,0.018,0.003,0.035,0.004,0.054c0.004,0.02,0.01,0.037,0.011,0.057c0.136,1.064,0.452,2.072,0.915,2.992
				c0,0.001,0.002,0.002,0.003,0.005c0.002,0.007,0.008,0.015,0.012,0.021c0.067,0.133,0.138,0.266,0.212,0.394
				c0.003,0.007,0.006,0.013,0.01,0.02c0.01,0.019,0.021,0.038,0.033,0.058c0.002,0.005,0.004,0.006,0.006,0.01
				c0.055,0.096,0.112,0.188,0.172,0.281c0.012,0.02,0.025,0.043,0.039,0.063c0.009,0.015,0.019,0.03,0.029,0.046
				c0.008,0.012,0.016,0.023,0.025,0.035c0.045,0.07,0.092,0.137,0.137,0.202c0.023,0.034,0.045,0.067,0.068,0.101
				c0.012,0.019,0.025,0.036,0.039,0.055c0.012,0.014,0.024,0.03,0.035,0.045c0.03,0.043,0.063,0.082,0.094,0.123
				c0.034,0.045,0.069,0.092,0.104,0.135c0.02,0.025,0.039,0.051,0.06,0.077c0.012,0.015,0.025,0.028,0.038,0.044
				c0.014,0.018,0.029,0.033,0.043,0.051c0.041,0.051,0.084,0.102,0.127,0.152c0.012,0.013,0.021,0.025,0.033,0.039
				c0.024,0.025,0.048,0.051,0.069,0.078c0.06,0.064,0.118,0.127,0.177,0.189c0.018,0.018,0.035,0.036,0.052,0.055
				c0.034,0.035,0.067,0.069,0.101,0.104c0.049,0.049,0.1,0.096,0.148,0.143c0.016,0.016,0.032,0.031,0.048,0.047
				c0.05,0.047,0.099,0.094,0.151,0.141c0.043,0.04,0.087,0.078,0.133,0.116c0.006,0.005,0.012,0.013,0.02,0.017
				c0.054,0.047,0.107,0.092,0.164,0.139c0,0.002,0.004,0.004,0.006,0.006c0.014,0.012,0.027,0.021,0.041,0.033
				c0.039,0.032,0.078,0.064,0.118,0.094c0.049,0.039,0.098,0.074,0.146,0.113c0.023,0.016,0.045,0.033,0.068,0.049
				c0.015,0.012,0.029,0.024,0.045,0.036c0.033,0.024,0.066,0.048,0.1,0.071c0.036,0.025,0.073,0.049,0.107,0.072
				c0.047,0.034,0.095,0.066,0.144,0.1c0.014,0.01,0.026,0.02,0.04,0.028c0.031,0.019,0.061,0.04,0.092,0.058
				c0.02,0.012,0.037,0.023,0.057,0.034c0.08,0.05,0.159,0.101,0.241,0.147c0.003,0.002,0.005,0.004,0.009,0.006
				c0.035,0.021,0.068,0.041,0.104,0.061c0.01,0.006,0.019,0.01,0.029,0.014c0.12,0.07,0.242,0.137,0.369,0.199
				c0.012,0.006,0.023,0.013,0.035,0.02c0.002,0,0.003,0.001,0.006,0.002c0.621,0.311,1.281,0.555,1.973,0.721
				c0.011,0.004,0.021,0.006,0.033,0.008c0.146,0.035,0.296,0.066,0.447,0.095c0.041,0.007,0.084,0.015,0.125,0.022
				c0.116,0.019,0.231,0.037,0.348,0.052c0.039,0.005,0.078,0.014,0.119,0.019c0.009,0.002,0.019,0.002,0.026,0.004
				c0.028,0.002,0.056,0.004,0.084,0.006c0.042,0.006,0.085,0.01,0.126,0.014c0.048,0.004,0.096,0.01,0.143,0.014
				c0.046,0.002,0.09,0.007,0.137,0.01c0.028,0.002,0.059,0.002,0.088,0.004c0.021,0.002,0.043,0.002,0.064,0.004
				c0.039,0,0.079,0.004,0.119,0.005c0.067,0.002,0.133,0.003,0.201,0.005c0.035,0,0.069,0,0.104,0c0.005,0,0.009,0,0.015,0
				s0.01,0,0.014,0c0.034,0,0.067,0,0.102,0c0.072-0.002,0.14-0.003,0.209-0.005c0.041-0.001,0.081-0.005,0.121-0.007
				c0.019,0,0.037,0,0.056-0.002c0.028-0.002,0.056-0.002,0.084-0.004c0.053-0.003,0.104-0.008,0.155-0.012
				c0.046-0.004,0.092-0.009,0.137-0.012c0.039-0.004,0.077-0.008,0.115-0.012c0.025-0.004,0.053-0.004,0.078-0.008
				c0.02-0.002,0.041-0.006,0.063-0.008c0.032-0.004,0.064-0.011,0.097-0.016c0.125-0.016,0.249-0.034,0.371-0.057
				c0.035-0.006,0.067-0.012,0.103-0.018c0.155-0.029,0.311-0.063,0.464-0.098c0.006-0.002,0.014-0.004,0.02-0.006
				c0.367-0.088,0.727-0.199,1.078-0.33c0.003-0.001,0.003-0.002,0.005-0.002c0.01-0.004,0.019-0.008,0.028-0.011
				c0.139-0.054,0.275-0.108,0.41-0.167c0.003-0.002,0.004-0.004,0.008-0.004c0.019-0.008,0.036-0.018,0.055-0.025
				c0.123-0.055,0.243-0.111,0.363-0.171c0.008-0.004,0.017-0.007,0.024-0.011c0.046-0.025,0.093-0.049,0.14-0.074
				c0.082-0.043,0.165-0.086,0.246-0.133c0.015-0.008,0.031-0.016,0.047-0.025c0.035-0.02,0.07-0.04,0.107-0.061
				c0.007-0.006,0.015-0.011,0.023-0.016c0.07-0.041,0.139-0.084,0.207-0.127c0.021-0.014,0.043-0.026,0.063-0.039
				c0.021-0.014,0.042-0.025,0.063-0.039c0.014-0.009,0.027-0.018,0.039-0.024c0.016-0.011,0.029-0.021,0.047-0.032
				c0.043-0.029,0.086-0.059,0.129-0.09c0.023-0.016,0.049-0.031,0.072-0.048c0.051-0.037,0.104-0.072,0.154-0.11
				c0.014-0.01,0.027-0.021,0.04-0.031c0.017-0.012,0.032-0.022,0.047-0.035c0.026-0.02,0.054-0.039,0.079-0.061
				c0.072-0.057,0.146-0.111,0.219-0.17c0.026-0.023,0.055-0.047,0.081-0.068s0.047-0.045,0.073-0.066
				c0.105-0.092,0.211-0.186,0.314-0.283c0.045-0.041,0.09-0.084,0.135-0.129c0.107-0.103,0.209-0.209,0.311-0.317
				c0.021-0.022,0.044-0.042,0.064-0.065c0.003-0.004,0.01-0.01,0.015-0.014c0.081-0.092,0.161-0.184,0.238-0.277
				c0.023-0.027,0.046-0.053,0.067-0.08c0.061-0.074,0.121-0.152,0.18-0.229c0.015-0.02,0.028-0.037,0.043-0.057
				c0.019-0.023,0.037-0.047,0.056-0.072c0.005-0.007,0.011-0.015,0.015-0.021c0.046-0.059,0.086-0.119,0.128-0.18
				c0.013-0.016,0.023-0.033,0.035-0.051c0.036-0.05,0.069-0.1,0.103-0.148c0.004-0.008,0.01-0.014,0.014-0.02
				c0.029-0.045,0.057-0.09,0.086-0.136c0.012-0.019,0.023-0.038,0.035-0.058c0.037-0.059,0.075-0.118,0.11-0.18
				c0.011-0.014,0.019-0.029,0.026-0.043c0.021-0.035,0.041-0.07,0.061-0.105c0.006-0.012,0.012-0.021,0.018-0.032
				c0.047-0.081,0.09-0.163,0.136-0.247c0.003-0.009,0.009-0.018,0.013-0.025c0.006-0.011,0.011-0.021,0.016-0.031
				c0.014-0.025,0.027-0.053,0.041-0.078c0.004-0.01,0.008-0.02,0.012-0.029c0.041-0.078,0.08-0.158,0.117-0.24
				c0.002-0.002,0.002-0.004,0.003-0.004c0.023-0.053,0.049-0.107,0.072-0.161c0.005-0.012,0.011-0.023,0.017-0.036
				c0.047-0.108,0.092-0.221,0.135-0.331c0.01-0.026,0.022-0.054,0.032-0.079c0.003-0.008,0.005-0.012,0.006-0.02
				c0.044-0.113,0.083-0.229,0.122-0.346c0.008-0.023,0.018-0.049,0.025-0.074c0.002-0.004,0.002-0.008,0.006-0.012
				c0.002-0.01,0.005-0.021,0.009-0.033c0.026-0.08,0.048-0.162,0.071-0.245c0.01-0.03,0.02-0.063,0.029-0.095
				c0.007-0.025,0.014-0.051,0.021-0.076c0.001-0.004,0.003-0.006,0.003-0.009c0.021-0.085,0.041-0.17,0.062-0.255
				c0.003-0.014,0.007-0.025,0.009-0.039c0.014-0.051,0.026-0.101,0.035-0.152c0.002-0.005,0.003-0.012,0.003-0.016
				c0.014-0.063,0.025-0.125,0.037-0.188c0-0.007,0.003-0.017,0.005-0.024c0.014-0.08,0.03-0.16,0.042-0.24
				c0.002-0.004,0.002-0.005,0.002-0.01c0.007-0.041,0.012-0.084,0.019-0.125c0-0.008,0.002-0.013,0.002-0.019
				c0.016-0.11,0.031-0.222,0.043-0.333c0-0.004,0-0.007,0-0.012c0.002-0.013,0.004-0.025,0.004-0.037
				c0.001-0.01,0.001-0.018,0.004-0.027c0.012-0.139,0.023-0.277,0.031-0.42c0-0.002,0-0.004,0-0.004
				c0.005-0.092,0.005-0.186,0.006-0.277C47.175,41.557,47.179,41.49,47.179,41.424L47.179,41.424z M45.715,36.418
				c0.021,0.032,0.04,0.064,0.061,0.097c-0.05-0.077-0.101-0.157-0.15-0.233c0.011,0.017,0.022,0.033,0.034,0.051
				C45.678,36.36,45.696,36.391,45.715,36.418z M29.976,36.585c0.032-0.053,0.065-0.104,0.098-0.155
				c-0.009,0.015-0.018,0.031-0.027,0.045c-0.028,0.045-0.058,0.088-0.084,0.132C29.968,36.6,29.971,36.592,29.976,36.585z"/>
			<g>
				<path fill="#B5B4B4" d="M37.823,47.609v-1.547l0.889-0.072c0.116-0.021,0.195-0.038,0.287-0.061
					c0.174-0.043,0.343-0.094,0.503-0.152l0.936-0.471l0.476-0.359c0.057-0.049,0.108-0.096,0.16-0.145l0.074-0.071
					c0.045-0.044,0.098-0.097,0.161-0.166l0.993-1.679l0.208-0.952l0.026-0.522l-0.016-0.362l0.759-0.21l-0.767,0.096l-0.137-0.732
					c-0.038-0.144-0.094-0.307-0.154-0.467c-0.117-0.285-0.219-0.487-0.33-0.678l-0.568-0.855l0.658-0.43l0.156,0.233l0.063-0.03
					l-0.056-0.111l0.653-0.324l0.839,1.445l-0.042,0.021c0.008,0.021,0.018,0.043,0.025,0.064l0.04,0.1
					c0.085,0.217,0.157,0.436,0.215,0.652l0.2,1.268c0.008,0.145,0.008,0.335,0.008,0.335l-0.13,1.269l-0.075,0.316l-0.174-0.025
					l0.168,0.045l-0.168-0.029l0.162,0.048l-0.456,1.182l-0.53,0.858l-0.439,0.531c-0.082,0.086-0.148,0.154-0.217,0.223
					l-0.086,0.083c-0.078,0.073-0.15,0.138-0.226,0.2l-0.636,0.479l-1.229,0.619c-0.227,0.084-0.452,0.152-0.68,0.208
					c-0.124,0.028-0.229,0.051-0.33,0.071c-0.151,0.025-0.232,0.037-0.314,0.049L37.823,47.609z"/>
			</g>
		</g>
		<g>
			
				<rect x="36.89" y="18.096" transform="matrix(0.7073 0.7069 -0.7069 0.7073 36.9326 -16.539)" fill="#2D3237" stroke="#B5B4B4" stroke-width="1.2" stroke-miterlimit="10" width="3.094" height="36.46"/>
		</g>
	</g>
</g>
</svg>
