<?xml version="1.0" encoding="utf-8"?>
<!-- Generator: Adobe Illustrator 16.2.0, SVG Export Plug-In . SVG Version: 6.00 Build 0)  -->
<!DOCTYPE svg PUBLIC "-//W3C//DTD SVG 1.1//EN" "http://www.w3.org/Graphics/SVG/1.1/DTD/svg11.dtd">
<svg version="1.1" id="图层_1" xmlns="http://www.w3.org/2000/svg" xmlns:xlink="http://www.w3.org/1999/xlink" x="0px" y="0px"
	 width="55px" height="55px" viewBox="0 0 55 55" enable-background="new 0 0 55 55" xml:space="preserve">
<g>
	<g>
		<g>
			<path fill="#B5B4B4" d="M50,0.5c2.481,0,4.5,2.019,4.5,4.5v45c0,2.481-2.019,4.5-4.5,4.5H5c-2.481,0-4.5-2.019-4.5-4.5V5
				c0-2.481,2.019-4.5,4.5-4.5H50 M50,0H5C2.25,0,0,2.25,0,5v45c0,2.75,2.25,5,5,5h45c2.75,0,5-2.25,5-5V5C55,2.25,52.75,0,50,0
				L50,0z"/>
		</g>
	</g>
	<g>
		<g>
			<path fill="#B5B4B4" d="M48.844,7.016v40.969H6.156V7.016H48.844 M49.844,6.016H5.156v42.969h44.688V6.016L49.844,6.016z"/>
		</g>
	</g>
	<g>
		<rect x="17.188" y="26.354" fill="#B5B4B4" width="1.719" height="5.156"/>
		
			<rect x="11.96" y="36.951" transform="matrix(0.8659 -0.5003 0.5003 0.8659 -18.057 11.716)" fill="#B5B4B4" width="1.718" height="5.157"/>
		
			<rect x="22.415" y="36.951" transform="matrix(-0.866 -0.5001 0.5001 -0.866 23.6631 85.4008)" fill="#B5B4B4" width="1.719" height="5.157"/>
	</g>
	<g>
		<path fill="#B5B4B4" d="M12.443,14.459v1.282c-0.381-0.473-0.957-0.78-1.611-0.78c-1.148,0-2.078,0.929-2.078,2.076
			s0.93,2.077,2.078,2.077c0.654,0,1.23-0.309,1.611-0.781v1.283h1.719v-5.157H12.443z"/>
		<path fill="#B5B4B4" d="M23.651,14.459v1.282c0.381-0.473,0.957-0.78,1.611-0.78c1.147,0,2.077,0.929,2.077,2.076
			s-0.93,2.077-2.077,2.077c-0.654,0-1.23-0.309-1.611-0.781v1.283h-1.72v-5.157H23.651z"/>
	</g>
	<g>
		<g>
			<path fill="#2D3237" stroke="#B5B4B4" stroke-width="2.4" stroke-miterlimit="10" d="M47.179,41.423L47.179,41.423
				c0-0.018-0.002-0.034-0.002-0.051c0-0.138-0.004-0.273-0.008-0.411c-0.002-0.004-0.002-0.008-0.002-0.011
				c-0.007-0.124-0.018-0.246-0.027-0.369c-0.003-0.018-0.003-0.035-0.004-0.054v-0.001c-0.004-0.025-0.006-0.051-0.008-0.075
				c0-0.002,0-0.005,0-0.008c-0.006-0.049-0.012-0.097-0.02-0.146c-0.013-0.111-0.026-0.221-0.044-0.331c0-0.001,0-0.002,0-0.003
				c-0.014-0.087-0.03-0.173-0.047-0.259c-0.002-0.008-0.003-0.016-0.003-0.021c-0.012-0.062-0.023-0.122-0.035-0.183
				c0-0.001,0-0.002,0-0.004c-0.016-0.063-0.031-0.127-0.045-0.19c-0.003-0.007-0.004-0.014-0.006-0.021
				c-0.019-0.08-0.037-0.16-0.059-0.239c0,0,0,0,0-0.001c-0.002-0.007-0.004-0.014-0.006-0.021c-0.09-0.337-0.198-0.665-0.324-0.986
				c-0.001-0.002-0.002-0.004-0.002-0.006c0-0.001,0-0.003-0.002-0.004c-0.184-0.466-0.403-0.913-0.656-1.341
				c0.008,0.014,0.016,0.025,0.025,0.041c0.009,0.015,0.019,0.029,0.027,0.045l-8.034-13.917L29.86,36.78
				c0.003-0.008,0.008-0.016,0.014-0.023c0.025-0.043,0.05-0.086,0.075-0.129c-0.021,0.035-0.04,0.072-0.062,0.106
				c-0.018,0.032-0.036,0.063-0.055,0.095c-0.003,0.008-0.006,0.014-0.012,0.021c-0.068,0.12-0.135,0.244-0.197,0.369
				c-0.009,0.015-0.016,0.029-0.023,0.044c-0.002,0.004-0.004,0.009-0.008,0.013c-0.383,0.766-0.662,1.593-0.822,2.462
				c-0.003,0.02-0.006,0.04-0.011,0.061c-0.024,0.14-0.046,0.282-0.064,0.424c-0.003,0.024-0.009,0.048-0.011,0.073
				c-0.002,0.017-0.006,0.035-0.006,0.054c-0.004,0.018-0.004,0.035-0.006,0.053c-0.006,0.06-0.012,0.119-0.018,0.179
				c-0.003,0.036-0.007,0.071-0.01,0.105c-0.004,0.049-0.008,0.098-0.011,0.146c-0.001,0.02-0.001,0.04-0.003,0.06
				c-0.002,0.04-0.004,0.08-0.006,0.118c0,0.031-0.003,0.062-0.004,0.093c-0.002,0.07-0.004,0.143-0.004,0.213
				c-0.002,0.025,0,0.051,0,0.076c0,0.01-0.002,0.021-0.002,0.03s0.002,0.019,0.002,0.029c0,0.031-0.002,0.063,0,0.094
				c0,0.07,0.002,0.14,0.004,0.21c0.001,0.036,0.004,0.073,0.004,0.109c0.002,0.021,0.004,0.04,0.004,0.06
				c0.002,0.019,0.002,0.037,0.004,0.056c0,0.011,0,0.021,0.001,0.03c0.003,0.051,0.007,0.103,0.012,0.154
				c0.003,0.036,0.007,0.072,0.012,0.109c0.003,0.05,0.008,0.099,0.012,0.147c0.003,0.024,0.005,0.049,0.009,0.073
				c0,0.018,0.003,0.035,0.005,0.053c0.003,0.021,0.009,0.039,0.01,0.058c0.136,1.064,0.452,2.071,0.915,2.991
				c0.001,0.002,0.002,0.003,0.004,0.005c0.001,0.007,0.007,0.016,0.012,0.022c0.066,0.132,0.137,0.264,0.211,0.393
				c0.004,0.007,0.007,0.014,0.01,0.02c0.01,0.019,0.021,0.038,0.033,0.058c0.002,0.005,0.004,0.007,0.006,0.01
				c0.055,0.095,0.112,0.188,0.172,0.28c0.013,0.021,0.025,0.043,0.039,0.064c0.009,0.014,0.02,0.029,0.029,0.045
				c0.008,0.013,0.017,0.024,0.025,0.037c0.045,0.068,0.092,0.135,0.137,0.201c0.023,0.035,0.045,0.067,0.069,0.102
				c0.012,0.017,0.024,0.034,0.038,0.053c0.012,0.016,0.025,0.031,0.035,0.046c0.031,0.042,0.063,0.083,0.094,0.123
				c0.034,0.046,0.069,0.093,0.104,0.135c0.02,0.025,0.04,0.051,0.061,0.077c0.012,0.014,0.024,0.029,0.038,0.044
				c0.013,0.017,0.028,0.033,0.042,0.05c0.042,0.051,0.084,0.102,0.127,0.152c0.012,0.014,0.022,0.026,0.034,0.039
				c0.023,0.025,0.047,0.053,0.069,0.078c0.059,0.066,0.117,0.127,0.176,0.19c0.019,0.019,0.035,0.036,0.052,0.054
				c0.034,0.035,0.067,0.07,0.101,0.104c0.049,0.049,0.1,0.097,0.148,0.144c0.016,0.016,0.032,0.031,0.049,0.046
				c0.05,0.048,0.099,0.096,0.15,0.142c0.043,0.039,0.088,0.077,0.133,0.116c0.006,0.006,0.012,0.012,0.02,0.017
				c0.055,0.047,0.107,0.092,0.164,0.138c0.001,0.003,0.004,0.005,0.007,0.007c0.013,0.011,0.026,0.022,0.04,0.034
				c0.039,0.031,0.078,0.063,0.119,0.092c0.048,0.04,0.097,0.075,0.146,0.113c0.023,0.017,0.044,0.034,0.067,0.051
				c0.015,0.012,0.029,0.023,0.045,0.035c0.033,0.024,0.067,0.048,0.1,0.072c0.036,0.023,0.073,0.049,0.107,0.072
				c0.047,0.033,0.096,0.065,0.144,0.099c0.014,0.009,0.026,0.019,0.04,0.028c0.031,0.019,0.061,0.039,0.092,0.059
				c0.02,0.011,0.038,0.022,0.057,0.033c0.08,0.05,0.159,0.1,0.241,0.147c0.003,0.002,0.005,0.003,0.009,0.005
				c0.035,0.021,0.068,0.041,0.104,0.062c0.01,0.006,0.02,0.009,0.029,0.015c0.121,0.069,0.243,0.135,0.369,0.198
				c0.012,0.006,0.023,0.013,0.035,0.019c0.002,0.001,0.003,0.002,0.006,0.003c0.621,0.312,1.282,0.555,1.973,0.721
				c0.012,0.003,0.021,0.006,0.033,0.008c0.146,0.035,0.296,0.066,0.447,0.095c0.042,0.007,0.084,0.015,0.125,0.022
				c0.117,0.019,0.231,0.036,0.348,0.052c0.039,0.005,0.078,0.014,0.119,0.018c0.009,0.002,0.02,0.003,0.026,0.004
				c0.028,0.003,0.056,0.006,0.084,0.008c0.043,0.004,0.085,0.008,0.127,0.012c0.047,0.005,0.096,0.011,0.143,0.014
				c0.046,0.004,0.09,0.008,0.136,0.011c0.029,0.001,0.059,0.002,0.088,0.005c0.021,0,0.043,0.001,0.064,0.002
				c0.039,0.001,0.08,0.005,0.119,0.005c0.068,0.003,0.133,0.005,0.202,0.006c0.035,0,0.069,0,0.104,0c0.004,0,0.008,0,0.014,0
				s0.01,0,0.014,0c0.034,0,0.068,0,0.102,0c0.072-0.001,0.141-0.003,0.209-0.006c0.041,0,0.081-0.004,0.121-0.006
				c0.019,0,0.037-0.001,0.056-0.001c0.028-0.003,0.056-0.003,0.084-0.005c0.053-0.003,0.104-0.008,0.156-0.012
				c0.045-0.005,0.091-0.009,0.136-0.013c0.039-0.004,0.077-0.008,0.115-0.011c0.025-0.003,0.053-0.005,0.078-0.008
				c0.02-0.002,0.041-0.005,0.063-0.008c0.032-0.005,0.064-0.011,0.097-0.016c0.125-0.016,0.249-0.034,0.371-0.056
				c0.035-0.007,0.068-0.013,0.104-0.018c0.154-0.03,0.311-0.063,0.463-0.1c0.006,0,0.014-0.003,0.02-0.005
				c0.368-0.088,0.727-0.198,1.078-0.329c0.004-0.002,0.004-0.003,0.005-0.004c0.011-0.003,0.02-0.007,0.028-0.01
				c0.139-0.053,0.275-0.108,0.41-0.168c0.003-0.002,0.005-0.003,0.008-0.004c0.019-0.008,0.036-0.017,0.056-0.024
				c0.122-0.055,0.243-0.111,0.362-0.171c0.008-0.004,0.018-0.007,0.024-0.012c0.046-0.023,0.093-0.049,0.14-0.072
				c0.083-0.043,0.165-0.088,0.246-0.133c0.015-0.01,0.031-0.018,0.047-0.026c0.035-0.021,0.07-0.04,0.107-0.062
				c0.008-0.005,0.015-0.01,0.023-0.014c0.07-0.043,0.139-0.086,0.208-0.129c0.021-0.014,0.042-0.025,0.062-0.038
				c0.022-0.014,0.043-0.026,0.063-0.04c0.013-0.008,0.026-0.016,0.038-0.023c0.016-0.011,0.029-0.021,0.047-0.033
				c0.043-0.028,0.086-0.058,0.13-0.088c0.022-0.016,0.048-0.032,0.071-0.049c0.051-0.037,0.104-0.072,0.154-0.11
				c0.014-0.011,0.027-0.021,0.041-0.031c0.016-0.012,0.031-0.023,0.047-0.035c0.026-0.02,0.053-0.04,0.078-0.061
				c0.072-0.057,0.146-0.112,0.219-0.171c0.026-0.022,0.055-0.046,0.081-0.067s0.047-0.045,0.073-0.066
				c0.105-0.093,0.211-0.186,0.315-0.283c0.044-0.042,0.089-0.084,0.134-0.128c0.107-0.104,0.209-0.21,0.311-0.318
				c0.021-0.022,0.044-0.043,0.064-0.066c0.003-0.004,0.01-0.009,0.015-0.014c0.081-0.091,0.161-0.182,0.238-0.276
				c0.024-0.027,0.046-0.054,0.067-0.08c0.061-0.075,0.121-0.152,0.18-0.229c0.016-0.02,0.028-0.037,0.043-0.056
				c0.02-0.023,0.037-0.049,0.057-0.072c0.004-0.008,0.01-0.016,0.015-0.022c0.045-0.06,0.085-0.119,0.128-0.18
				c0.012-0.017,0.023-0.034,0.035-0.05c0.035-0.051,0.068-0.1,0.102-0.15c0.004-0.007,0.01-0.013,0.014-0.02
				c0.029-0.043,0.057-0.09,0.086-0.135c0.012-0.019,0.023-0.038,0.035-0.057c0.037-0.061,0.075-0.119,0.11-0.181
				c0.011-0.015,0.019-0.028,0.027-0.042c0.021-0.035,0.04-0.071,0.06-0.106c0.006-0.012,0.012-0.021,0.018-0.032
				c0.047-0.081,0.09-0.164,0.136-0.246c0.003-0.01,0.009-0.019,0.014-0.027c0.005-0.01,0.01-0.02,0.015-0.029
				c0.014-0.027,0.027-0.053,0.041-0.08c0.004-0.008,0.008-0.018,0.012-0.027c0.041-0.079,0.08-0.16,0.117-0.241
				c0.002-0.002,0.002-0.003,0.004-0.004c0.023-0.054,0.048-0.107,0.071-0.161c0.005-0.012,0.011-0.023,0.017-0.035
				c0.047-0.109,0.093-0.221,0.135-0.332c0.01-0.027,0.022-0.054,0.033-0.08c0.002-0.007,0.004-0.012,0.006-0.018
				c0.043-0.113,0.082-0.23,0.121-0.346c0.008-0.024,0.018-0.05,0.025-0.075c0.002-0.004,0.002-0.008,0.006-0.011
				c0.002-0.011,0.005-0.023,0.01-0.033c0.025-0.08,0.047-0.163,0.07-0.244c0.01-0.033,0.021-0.065,0.029-0.097
				c0.008-0.026,0.014-0.052,0.021-0.076c0.001-0.004,0.003-0.007,0.003-0.01c0.021-0.084,0.041-0.17,0.062-0.255
				c0.003-0.013,0.007-0.025,0.009-0.037c0.014-0.051,0.027-0.102,0.035-0.153c0.002-0.005,0.004-0.011,0.004-0.017
				c0.013-0.063,0.024-0.125,0.036-0.188c0-0.008,0.003-0.017,0.005-0.024c0.015-0.08,0.03-0.16,0.042-0.241
				c0.002-0.003,0.002-0.005,0.002-0.008c0.007-0.043,0.012-0.085,0.019-0.127c0-0.006,0.002-0.012,0.002-0.018
				c0.017-0.11,0.031-0.221,0.043-0.333c0-0.004,0-0.007,0-0.012c0.002-0.013,0.004-0.024,0.004-0.038
				c0.002-0.009,0.002-0.018,0.004-0.026c0.013-0.139,0.024-0.278,0.031-0.421c0-0.001,0-0.003,0-0.003
				c0.005-0.093,0.005-0.186,0.006-0.278C47.175,41.556,47.179,41.49,47.179,41.423C47.179,41.424,47.179,41.424,47.179,41.423z
				 M45.715,36.417c0.021,0.033,0.04,0.066,0.061,0.098c-0.05-0.078-0.101-0.157-0.15-0.234c0.011,0.018,0.022,0.035,0.034,0.053
				C45.679,36.36,45.696,36.39,45.715,36.417z M29.976,36.584c0.032-0.052,0.066-0.104,0.098-0.155
				c-0.008,0.016-0.018,0.031-0.027,0.047c-0.027,0.044-0.057,0.086-0.084,0.131C29.968,36.6,29.971,36.592,29.976,36.584z"/>
			<g>
				<path fill="#B5B4B4" d="M37.823,47.609v-1.546l0.889-0.074c0.116-0.021,0.195-0.037,0.287-0.059
					c0.174-0.044,0.343-0.095,0.503-0.153l0.937-0.471l0.475-0.36c0.057-0.049,0.109-0.096,0.161-0.145l0.073-0.069
					c0.046-0.045,0.098-0.098,0.162-0.167l0.992-1.68l0.208-0.951l0.026-0.521l-0.016-0.364l0.759-0.209l-0.767,0.097l-0.137-0.733
					c-0.038-0.144-0.094-0.308-0.154-0.468c-0.117-0.284-0.218-0.486-0.33-0.677l-0.567-0.856l0.657-0.429l0.156,0.233l0.063-0.031
					l-0.055-0.11l0.652-0.325l0.84,1.447l-0.043,0.021c0.009,0.022,0.018,0.043,0.025,0.063l0.041,0.102
					c0.084,0.215,0.157,0.435,0.215,0.65l0.199,1.268c0.008,0.145,0.008,0.336,0.008,0.336l-0.129,1.268l-0.075,0.318l-0.175-0.026
					l0.169,0.046l-0.168-0.03l0.162,0.047l-0.457,1.183l-0.53,0.858l-0.439,0.53c-0.082,0.088-0.148,0.155-0.217,0.223l-0.086,0.084
					c-0.078,0.072-0.15,0.137-0.225,0.2l-0.637,0.478l-1.229,0.62c-0.227,0.084-0.451,0.152-0.68,0.208
					c-0.123,0.029-0.228,0.051-0.33,0.07c-0.151,0.025-0.232,0.038-0.314,0.049L37.823,47.609z"/>
			</g>
		</g>
		<g>
			
				<rect x="36.89" y="18.097" transform="matrix(0.7069 0.7073 -0.7073 0.7069 36.9567 -16.5399)" fill="#2D3237" stroke="#B5B4B4" stroke-width="1.2" stroke-miterlimit="10" width="3.094" height="36.46"/>
		</g>
	</g>
</g>
</svg>
