<?xml version="1.0" encoding="utf-8"?>
<!-- Generator: Adobe Illustrator 16.2.0, SVG Export Plug-In . SVG Version: 6.00 Build 0)  -->
<!DOCTYPE svg PUBLIC "-//W3C//DTD SVG 1.1//EN" "http://www.w3.org/Graphics/SVG/1.1/DTD/svg11.dtd">
<svg version="1.1" id="图层_1" xmlns="http://www.w3.org/2000/svg" xmlns:xlink="http://www.w3.org/1999/xlink" x="0px" y="0px"
	 width="55px" height="55px" viewBox="0 0 55 55" enable-background="new 0 0 55 55" xml:space="preserve">
<g>
	<g>
		<g>
			<path fill="#B5B4B4" d="M50,0.5c2.481,0,4.5,2.019,4.5,4.5v45c0,2.481-2.019,4.5-4.5,4.5H5c-2.481,0-4.5-2.019-4.5-4.5V5
				c0-2.481,2.019-4.5,4.5-4.5H50 M50,0H5C2.25,0,0,2.25,0,5v45c0,2.75,2.25,5,5,5h45c2.75,0,5-2.25,5-5V5C55,2.25,52.75,0,50,0
				L50,0z"/>
		</g>
	</g>
	<g>
		<rect x="5.586" y="4.726" fill="none" stroke="#B5B4B4" stroke-miterlimit="10" width="9.668" height="33.517"/>
		<line fill="none" stroke="#B5B4B4" stroke-width="2" stroke-miterlimit="10" x1="7.842" y1="9.372" x2="12.998" y2="9.372"/>
		<rect x="16.973" y="4.726" fill="none" stroke="#B5B4B4" stroke-miterlimit="10" width="9.668" height="33.517"/>
		<line fill="none" stroke="#B5B4B4" stroke-width="2" stroke-miterlimit="10" x1="19.229" y1="9.372" x2="24.385" y2="9.372"/>
		<rect x="28.359" y="4.726" fill="none" stroke="#B5B4B4" stroke-miterlimit="10" width="9.668" height="33.517"/>
		<line fill="none" stroke="#B5B4B4" stroke-width="2" stroke-miterlimit="10" x1="30.615" y1="9.372" x2="35.771" y2="9.372"/>
		<rect x="39.746" y="4.726" fill="none" stroke="#B5B4B4" stroke-miterlimit="10" width="9.668" height="33.517"/>
		<line fill="none" stroke="#B5B4B4" stroke-width="2" stroke-miterlimit="10" x1="42.002" y1="9.372" x2="47.158" y2="9.372"/>
	</g>
	<g>
		<g>
			<path fill="#2D3237" stroke="#B5B4B4" stroke-width="3" stroke-miterlimit="10" d="M40.718,38.515L40.718,38.515
				c0-0.021-0.002-0.042-0.002-0.062c0-0.173-0.004-0.345-0.012-0.516c-0.002-0.005-0.002-0.009-0.002-0.014
				c-0.007-0.154-0.021-0.307-0.033-0.46c-0.003-0.023-0.004-0.046-0.005-0.068l0,0c-0.004-0.032-0.007-0.063-0.009-0.096
				c-0.001-0.002-0.001-0.005-0.001-0.009c-0.007-0.062-0.015-0.121-0.024-0.183c-0.016-0.138-0.033-0.276-0.056-0.414
				c0-0.001,0-0.002,0-0.003c-0.016-0.108-0.038-0.217-0.058-0.322c-0.002-0.011-0.004-0.02-0.005-0.029
				c-0.014-0.075-0.028-0.15-0.044-0.227c0-0.001,0-0.003,0-0.005c-0.019-0.08-0.039-0.159-0.055-0.237
				c-0.004-0.009-0.005-0.018-0.008-0.026c-0.023-0.101-0.047-0.2-0.072-0.299c0,0,0,0,0-0.002
				c-0.003-0.009-0.006-0.018-0.008-0.024c-0.112-0.422-0.248-0.832-0.405-1.232c-0.001-0.004-0.003-0.007-0.005-0.01
				c0-0.001,0-0.002,0-0.004c-0.229-0.582-0.504-1.143-0.82-1.676c0.01,0.016,0.021,0.032,0.03,0.049
				c0.012,0.02,0.024,0.039,0.035,0.059L29.118,15.309L19.069,32.711c0.005-0.008,0.012-0.018,0.019-0.028
				c0.031-0.053,0.062-0.107,0.094-0.161c-0.027,0.044-0.05,0.089-0.077,0.133c-0.022,0.039-0.045,0.079-0.069,0.119
				c-0.003,0.009-0.008,0.018-0.014,0.026c-0.087,0.151-0.169,0.306-0.249,0.461c-0.01,0.019-0.018,0.037-0.028,0.056
				c-0.003,0.004-0.005,0.01-0.008,0.015c-0.479,0.958-0.829,1.991-1.028,3.078c-0.005,0.025-0.009,0.05-0.014,0.075
				c-0.03,0.175-0.057,0.352-0.081,0.53c-0.003,0.03-0.01,0.06-0.013,0.091c-0.003,0.022-0.007,0.046-0.009,0.069
				c-0.003,0.021-0.003,0.043-0.005,0.065c-0.009,0.073-0.015,0.148-0.023,0.223c-0.003,0.045-0.008,0.09-0.012,0.133
				c-0.005,0.061-0.009,0.121-0.014,0.182c-0.001,0.025-0.001,0.05-0.003,0.076c-0.003,0.048-0.005,0.098-0.007,0.147
				c-0.002,0.038-0.005,0.076-0.006,0.115c-0.002,0.088-0.006,0.177-0.006,0.267c-0.002,0.031,0,0.063,0,0.094
				c0,0.014-0.002,0.025-0.002,0.038s0.002,0.024,0.002,0.036c0,0.041-0.002,0.08,0,0.119c0,0.087,0.003,0.175,0.006,0.262
				c0.001,0.045,0.004,0.092,0.006,0.139c0.001,0.023,0.003,0.047,0.004,0.072c0.001,0.023,0.001,0.047,0.004,0.07
				c0,0.012,0,0.025,0.001,0.037c0.005,0.064,0.009,0.128,0.015,0.191c0.004,0.047,0.009,0.092,0.014,0.139
				c0.005,0.062,0.01,0.123,0.016,0.184c0.004,0.03,0.005,0.061,0.009,0.092c0.002,0.022,0.005,0.044,0.007,0.066
				c0.004,0.024,0.01,0.049,0.014,0.072c0.169,1.33,0.564,2.589,1.143,3.738c0,0.002,0.001,0.004,0.003,0.008
				c0.003,0.008,0.01,0.018,0.015,0.026c0.084,0.166,0.173,0.33,0.265,0.491c0.004,0.009,0.009,0.016,0.013,0.024
				c0.013,0.024,0.027,0.047,0.042,0.071c0.001,0.005,0.005,0.009,0.006,0.013c0.07,0.118,0.141,0.235,0.215,0.351
				c0.016,0.026,0.032,0.053,0.049,0.079c0.012,0.02,0.023,0.04,0.037,0.058c0.01,0.016,0.021,0.03,0.032,0.046
				c0.055,0.087,0.114,0.169,0.171,0.252c0.029,0.042,0.055,0.085,0.085,0.124c0.015,0.023,0.032,0.047,0.049,0.068
				c0.015,0.02,0.03,0.038,0.043,0.058c0.039,0.054,0.078,0.103,0.118,0.155c0.042,0.056,0.085,0.113,0.127,0.167
				c0.025,0.032,0.05,0.063,0.076,0.096c0.015,0.019,0.032,0.036,0.048,0.055c0.016,0.021,0.035,0.042,0.052,0.063
				c0.054,0.063,0.105,0.128,0.16,0.19c0.014,0.018,0.028,0.032,0.041,0.049c0.029,0.032,0.059,0.065,0.087,0.098
				c0.073,0.081,0.146,0.159,0.22,0.238c0.023,0.022,0.044,0.045,0.065,0.067c0.042,0.043,0.084,0.087,0.125,0.129
				c0.061,0.062,0.124,0.12,0.186,0.18c0.021,0.02,0.041,0.038,0.061,0.058c0.062,0.059,0.124,0.117,0.188,0.177
				c0.055,0.049,0.11,0.096,0.166,0.144c0.009,0.008,0.015,0.015,0.024,0.022c0.068,0.058,0.136,0.115,0.206,0.172
				c0.002,0.003,0.006,0.006,0.008,0.008c0.017,0.015,0.034,0.028,0.051,0.043c0.048,0.039,0.098,0.078,0.147,0.118
				c0.061,0.046,0.122,0.091,0.183,0.14c0.028,0.02,0.055,0.041,0.084,0.062c0.018,0.016,0.037,0.029,0.057,0.044
				c0.042,0.031,0.083,0.061,0.124,0.091c0.045,0.029,0.091,0.06,0.134,0.091c0.059,0.041,0.119,0.082,0.18,0.123
				c0.017,0.012,0.034,0.023,0.05,0.034c0.039,0.024,0.076,0.05,0.114,0.073c0.023,0.016,0.047,0.028,0.07,0.043
				c0.101,0.063,0.2,0.125,0.302,0.185c0.003,0.002,0.006,0.003,0.01,0.005c0.044,0.027,0.086,0.053,0.131,0.077
				c0.012,0.007,0.021,0.012,0.035,0.019c0.151,0.088,0.304,0.168,0.461,0.248c0.015,0.008,0.028,0.016,0.043,0.023
				c0.003,0.002,0.005,0.002,0.009,0.004c0.775,0.389,1.602,0.692,2.465,0.9c0.014,0.003,0.028,0.007,0.042,0.01
				c0.183,0.044,0.369,0.083,0.557,0.119c0.053,0.008,0.106,0.018,0.159,0.026c0.144,0.024,0.288,0.047,0.433,0.066
				c0.05,0.007,0.098,0.016,0.148,0.021c0.012,0.002,0.023,0.003,0.033,0.005c0.035,0.003,0.071,0.006,0.105,0.009
				c0.053,0.006,0.105,0.011,0.158,0.016c0.059,0.005,0.119,0.013,0.18,0.017c0.055,0.006,0.111,0.01,0.168,0.013
				c0.037,0.003,0.074,0.003,0.111,0.006c0.026,0.001,0.053,0.002,0.08,0.004c0.049,0.001,0.1,0.005,0.148,0.006
				c0.085,0.003,0.167,0.006,0.253,0.007c0.044,0.001,0.085,0.001,0.129,0c0.007,0,0.013,0.001,0.019,0.001
				c0.007,0,0.013-0.001,0.019-0.001c0.042,0.001,0.084,0.001,0.126,0c0.089-0.001,0.174-0.004,0.262-0.007
				c0.051-0.001,0.101-0.005,0.151-0.007c0.023-0.001,0.045-0.002,0.068-0.003c0.036-0.002,0.071-0.003,0.106-0.005
				c0.064-0.004,0.129-0.01,0.194-0.015c0.058-0.005,0.113-0.011,0.169-0.016c0.049-0.005,0.098-0.01,0.146-0.014
				c0.031-0.004,0.065-0.006,0.096-0.011c0.026-0.002,0.054-0.006,0.08-0.01c0.041-0.005,0.081-0.013,0.122-0.018
				c0.155-0.021,0.311-0.045,0.463-0.071c0.045-0.008,0.086-0.015,0.128-0.023c0.194-0.036,0.39-0.077,0.581-0.123
				c0.007-0.001,0.016-0.003,0.023-0.005c0.461-0.111,0.91-0.249,1.348-0.414c0.004,0,0.004-0.002,0.007-0.002
				c0.013-0.004,0.023-0.009,0.035-0.015c0.173-0.065,0.345-0.135,0.513-0.208c0.003-0.002,0.006-0.003,0.01-0.005
				c0.023-0.009,0.045-0.021,0.068-0.031c0.152-0.068,0.304-0.139,0.453-0.213c0.01-0.006,0.021-0.01,0.031-0.015
				c0.059-0.029,0.117-0.061,0.176-0.091c0.102-0.055,0.205-0.109,0.305-0.166c0.021-0.011,0.041-0.021,0.061-0.033
				c0.044-0.024,0.088-0.05,0.133-0.077c0.01-0.005,0.02-0.013,0.031-0.019c0.086-0.053,0.174-0.105,0.26-0.158
				c0.024-0.018,0.053-0.032,0.078-0.049s0.051-0.033,0.077-0.05c0.017-0.01,0.032-0.02,0.048-0.03
				c0.02-0.013,0.038-0.024,0.059-0.04c0.053-0.035,0.107-0.073,0.162-0.11c0.029-0.021,0.061-0.04,0.09-0.062
				c0.063-0.046,0.129-0.089,0.192-0.137c0.017-0.014,0.034-0.026,0.05-0.039c0.021-0.015,0.041-0.029,0.059-0.045
				c0.034-0.024,0.068-0.05,0.1-0.076c0.091-0.068,0.184-0.14,0.271-0.212c0.035-0.029,0.069-0.058,0.104-0.086
				c0.031-0.026,0.059-0.054,0.09-0.081c0.134-0.115,0.266-0.233,0.395-0.354c0.057-0.053,0.113-0.106,0.168-0.162
				c0.135-0.129,0.262-0.262,0.39-0.397c0.024-0.026,0.054-0.054,0.079-0.082c0.004-0.005,0.014-0.012,0.018-0.018
				c0.102-0.113,0.201-0.229,0.299-0.346c0.029-0.034,0.058-0.067,0.084-0.101c0.076-0.092,0.151-0.189,0.225-0.285
				c0.018-0.023,0.035-0.046,0.054-0.07c0.024-0.03,0.046-0.061,0.069-0.091c0.006-0.009,0.014-0.019,0.02-0.027
				c0.057-0.073,0.107-0.148,0.16-0.224c0.016-0.021,0.028-0.043,0.043-0.064c0.045-0.063,0.086-0.124,0.129-0.186
				c0.004-0.009,0.012-0.017,0.016-0.024c0.037-0.057,0.072-0.112,0.107-0.17c0.016-0.022,0.031-0.046,0.045-0.071
				c0.047-0.074,0.094-0.148,0.139-0.226c0.012-0.018,0.021-0.035,0.033-0.053c0.024-0.044,0.05-0.088,0.074-0.132
				c0.008-0.014,0.016-0.027,0.021-0.04c0.059-0.102,0.114-0.205,0.17-0.309c0.005-0.012,0.011-0.022,0.017-0.033
				c0.007-0.012,0.013-0.024,0.021-0.037c0.017-0.033,0.033-0.066,0.049-0.101c0.006-0.01,0.012-0.021,0.016-0.033
				c0.051-0.1,0.1-0.2,0.146-0.302c0.002-0.001,0.002-0.003,0.004-0.005c0.029-0.067,0.061-0.135,0.092-0.202
				c0.006-0.013,0.012-0.028,0.019-0.044c0.059-0.137,0.116-0.275,0.169-0.415c0.014-0.033,0.028-0.066,0.041-0.1
				c0.002-0.008,0.005-0.016,0.008-0.021c0.055-0.144,0.104-0.287,0.151-0.433c0.011-0.031,0.022-0.063,0.032-0.094
				c0.002-0.005,0.003-0.01,0.006-0.014c0.004-0.014,0.008-0.029,0.012-0.041c0.033-0.102,0.061-0.204,0.09-0.307
				c0.012-0.04,0.025-0.08,0.036-0.12c0.009-0.032,0.018-0.063,0.026-0.096c0.001-0.003,0.003-0.007,0.003-0.011
				c0.026-0.106,0.052-0.213,0.077-0.318c0.004-0.016,0.008-0.031,0.012-0.047c0.016-0.064,0.031-0.128,0.043-0.192
				c0.002-0.007,0.004-0.014,0.005-0.021c0.016-0.078,0.03-0.156,0.046-0.234c0-0.01,0.004-0.021,0.006-0.03
				c0.018-0.1,0.038-0.201,0.053-0.302c0.001-0.004,0.001-0.006,0.001-0.01c0.009-0.053,0.015-0.106,0.024-0.159
				c0-0.007,0.001-0.014,0.002-0.021c0.02-0.139,0.039-0.277,0.054-0.416c0-0.006,0.001-0.01,0.001-0.016
				c0.002-0.016,0.004-0.031,0.005-0.048c0.001-0.011,0.001-0.021,0.004-0.032c0.015-0.175,0.03-0.349,0.038-0.526
				c0-0.001,0-0.003,0-0.004c0.008-0.116,0.008-0.232,0.01-0.348c0.001-0.083,0.006-0.165,0.006-0.248
				C40.718,38.517,40.718,38.517,40.718,38.515z M38.888,32.259c0.025,0.04,0.051,0.081,0.075,0.121
				c-0.062-0.098-0.125-0.196-0.187-0.292c0.014,0.021,0.028,0.042,0.041,0.063C38.843,32.188,38.864,32.224,38.888,32.259z
				 M19.213,32.467c0.041-0.066,0.083-0.129,0.123-0.193c-0.011,0.019-0.022,0.038-0.034,0.057
				c-0.035,0.057-0.072,0.109-0.105,0.165C19.203,32.486,19.208,32.476,19.213,32.467z"/>
			<g>
				<path fill="#B5B4B4" d="M29.023,46.249v-1.934l1.112-0.093c0.144-0.025,0.242-0.046,0.357-0.074
					c0.218-0.053,0.428-0.116,0.629-0.189l1.169-0.588l0.595-0.451c0.07-0.061,0.137-0.12,0.201-0.181l0.092-0.088
					c0.057-0.055,0.122-0.121,0.203-0.208l1.24-2.1l0.26-1.188l0.033-0.653l-0.02-0.454l0.948-0.261l-0.96,0.119l-0.17-0.916
					c-0.047-0.18-0.115-0.383-0.193-0.584c-0.146-0.356-0.271-0.608-0.412-0.848l-0.709-1.068l0.822-0.537l0.194,0.292l0.078-0.038
					l-0.067-0.139l0.814-0.407l1.049,1.81l-0.052,0.026c0.011,0.026,0.021,0.053,0.032,0.079l0.05,0.127
					c0.106,0.27,0.196,0.542,0.269,0.813l0.25,1.584c0.01,0.182,0.01,0.42,0.01,0.42l-0.162,1.586l-0.094,0.396l-0.218-0.032
					l0.21,0.058l-0.209-0.036l0.203,0.058l-0.572,1.479L35.345,43.1l-0.551,0.663c-0.102,0.108-0.184,0.193-0.27,0.277l-0.108,0.105
					c-0.097,0.091-0.187,0.17-0.281,0.25l-0.794,0.598l-1.535,0.773c-0.285,0.105-0.566,0.19-0.852,0.26
					c-0.154,0.037-0.284,0.064-0.412,0.089c-0.188,0.032-0.29,0.048-0.392,0.062L29.023,46.249z"/>
			</g>
		</g>
		<g>
			
				<rect x="27.858" y="9.357" transform="matrix(0.7071 0.7071 -0.7071 0.7071 31.4552 -11.6505)" fill="#B5B4B4" stroke="#2D3237" stroke-width="1.5" stroke-miterlimit="10" width="3.867" height="45.575"/>
		</g>
	</g>
</g>
</svg>
