<?xml version="1.0" encoding="utf-8"?>
<!-- Generator: Adobe Illustrator 16.2.0, SVG Export Plug-In . SVG Version: 6.00 Build 0)  -->
<!DOCTYPE svg PUBLIC "-//W3C//DTD SVG 1.1//EN" "http://www.w3.org/Graphics/SVG/1.1/DTD/svg11.dtd">
<svg version="1.1" id="图层_1" xmlns="http://www.w3.org/2000/svg" xmlns:xlink="http://www.w3.org/1999/xlink" x="0px" y="0px"
	 width="55px" height="55px" viewBox="0 0 55 55" enable-background="new 0 0 55 55" xml:space="preserve">
<g>
	<g>
		<g>
			<path fill="#B5B4B4" d="M50,0.5c2.481,0,4.5,2.019,4.5,4.5v45c0,2.481-2.019,4.5-4.5,4.5H5c-2.481,0-4.5-2.019-4.5-4.5V5
				c0-2.481,2.019-4.5,4.5-4.5H50 M50,0H5C2.25,0,0,2.25,0,5v45c0,2.75,2.25,5,5,5h45c2.75,0,5-2.25,5-5V5C55,2.25,52.75,0,50,0
				L50,0z"/>
		</g>
	</g>
	<g>
		<g>
			<path fill="#B5B4B4" d="M48.844,7.016v40.969H6.156V7.016H48.844 M49.844,6.016H5.156v42.969h44.688V6.016L49.844,6.016z"/>
		</g>
	</g>
	<g>
		<rect x="17.188" y="26.354" fill="#B5B4B4" width="1.719" height="5.156"/>
		
			<rect x="11.959" y="36.952" transform="matrix(0.866 -0.5001 0.5001 0.866 -18.0494 11.707)" fill="#B5B4B4" width="1.719" height="5.156"/>
		
			<rect x="22.414" y="36.952" transform="matrix(-0.866 -0.5001 0.5001 -0.866 23.661 85.4012)" fill="#B5B4B4" width="1.719" height="5.156"/>
	</g>
	<g>
		<path fill="#B5B4B4" d="M12.443,14.459v1.283c-0.381-0.474-0.959-0.781-1.611-0.781c-1.148,0-2.078,0.929-2.078,2.076
			s0.93,2.077,2.078,2.077c0.652,0,1.23-0.309,1.611-0.781v1.283h1.719v-5.157H12.443z"/>
		<path fill="#B5B4B4" d="M23.65,14.459v1.283c0.381-0.474,0.957-0.781,1.611-0.781c1.148,0,2.078,0.929,2.078,2.076
			s-0.93,2.077-2.078,2.077c-0.654,0-1.23-0.309-1.611-0.781v1.283h-1.719v-5.157H23.65z"/>
	</g>
	<g>
		<g>
			<path fill="#2D3237" stroke="#B5B4B4" stroke-width="2.4" stroke-miterlimit="10" d="M47.178,41.423L47.178,41.423
				c0-0.018-0.002-0.034-0.002-0.051c0-0.138-0.004-0.273-0.008-0.411c-0.002-0.004-0.002-0.008-0.002-0.011
				c-0.006-0.123-0.018-0.246-0.027-0.369c-0.002-0.018-0.002-0.035-0.004-0.054v-0.001c-0.004-0.025-0.006-0.051-0.008-0.075
				c0-0.002,0-0.005,0-0.008c-0.006-0.049-0.012-0.097-0.02-0.146c-0.012-0.111-0.025-0.221-0.043-0.331c0-0.001,0-0.002,0-0.002
				c-0.014-0.088-0.031-0.174-0.047-0.26c-0.002-0.008-0.004-0.015-0.004-0.021c-0.012-0.062-0.023-0.122-0.035-0.183
				c0-0.001,0-0.002,0-0.004c-0.016-0.063-0.031-0.127-0.045-0.19c-0.002-0.007-0.004-0.013-0.006-0.021
				c-0.018-0.08-0.037-0.159-0.059-0.239c0,0,0,0,0-0.001c-0.002-0.007-0.004-0.014-0.006-0.021
				c-0.09-0.337-0.197-0.665-0.324-0.985c0-0.003-0.002-0.005-0.002-0.007c0-0.001,0-0.003-0.002-0.004
				c-0.184-0.466-0.402-0.913-0.656-1.341c0.008,0.014,0.016,0.025,0.025,0.041c0.01,0.015,0.02,0.029,0.027,0.045l-8.033-13.916
				L29.859,36.78c0.004-0.008,0.008-0.016,0.014-0.022c0.025-0.044,0.051-0.087,0.076-0.13c-0.021,0.035-0.041,0.072-0.063,0.106
				c-0.018,0.032-0.035,0.063-0.055,0.095c-0.002,0.008-0.006,0.015-0.012,0.021c-0.068,0.121-0.135,0.244-0.197,0.369
				c-0.008,0.015-0.016,0.029-0.023,0.044c-0.002,0.004-0.004,0.009-0.008,0.013c-0.383,0.767-0.662,1.593-0.822,2.462
				c-0.002,0.021-0.006,0.04-0.01,0.061c-0.025,0.14-0.047,0.282-0.064,0.424c-0.004,0.024-0.01,0.048-0.012,0.073
				c-0.002,0.018-0.006,0.035-0.006,0.055c-0.004,0.018-0.004,0.035-0.006,0.052c-0.006,0.06-0.012,0.119-0.018,0.179
				c-0.002,0.036-0.006,0.071-0.01,0.105c-0.004,0.049-0.008,0.098-0.01,0.146c-0.002,0.02-0.002,0.04-0.004,0.061
				c-0.002,0.039-0.004,0.079-0.006,0.118c0,0.031-0.002,0.061-0.004,0.092c-0.002,0.07-0.004,0.143-0.004,0.213
				c-0.002,0.025,0,0.052,0,0.076c0,0.01-0.002,0.021-0.002,0.03s0.002,0.019,0.002,0.029c0,0.031-0.002,0.063,0,0.094
				c0,0.07,0.002,0.141,0.004,0.21c0.002,0.036,0.004,0.073,0.004,0.11c0.002,0.02,0.004,0.039,0.004,0.059
				c0.002,0.02,0.002,0.037,0.004,0.056c0,0.011,0,0.021,0.002,0.03c0.002,0.051,0.006,0.103,0.012,0.154
				c0.002,0.036,0.006,0.072,0.012,0.109c0.002,0.05,0.008,0.1,0.012,0.147c0.002,0.024,0.004,0.049,0.008,0.073
				c0,0.018,0.004,0.035,0.006,0.053c0.002,0.021,0.008,0.039,0.01,0.059c0.135,1.063,0.451,2.07,0.914,2.99
				c0.002,0.002,0.002,0.003,0.004,0.006c0.002,0.006,0.008,0.015,0.012,0.021c0.066,0.133,0.137,0.264,0.211,0.393
				c0.004,0.007,0.008,0.014,0.01,0.02c0.01,0.02,0.021,0.038,0.033,0.059c0.002,0.004,0.004,0.006,0.006,0.009
				c0.055,0.095,0.113,0.188,0.172,0.28c0.014,0.021,0.025,0.043,0.039,0.064c0.01,0.014,0.02,0.029,0.029,0.046
				c0.008,0.012,0.018,0.023,0.025,0.036c0.045,0.068,0.092,0.135,0.137,0.201c0.023,0.035,0.045,0.067,0.07,0.102
				c0.012,0.017,0.023,0.034,0.037,0.053c0.012,0.016,0.025,0.031,0.035,0.046c0.031,0.043,0.063,0.083,0.094,0.124
				c0.035,0.045,0.07,0.092,0.104,0.134c0.02,0.025,0.041,0.051,0.061,0.077c0.012,0.014,0.025,0.029,0.039,0.044
				c0.012,0.017,0.027,0.033,0.041,0.05c0.043,0.051,0.084,0.104,0.127,0.152c0.012,0.014,0.023,0.026,0.035,0.039
				c0.023,0.025,0.047,0.053,0.068,0.078c0.059,0.066,0.117,0.127,0.176,0.19c0.02,0.019,0.035,0.036,0.053,0.055
				c0.033,0.034,0.066,0.069,0.1,0.103c0.049,0.049,0.1,0.097,0.148,0.144c0.016,0.016,0.033,0.031,0.049,0.046
				c0.051,0.048,0.1,0.096,0.15,0.142c0.043,0.039,0.088,0.077,0.133,0.116c0.006,0.006,0.012,0.012,0.02,0.017
				c0.055,0.047,0.107,0.093,0.164,0.138c0.002,0.003,0.004,0.005,0.008,0.007c0.012,0.011,0.025,0.022,0.039,0.034
				c0.039,0.031,0.078,0.063,0.119,0.094c0.049,0.038,0.098,0.074,0.146,0.111c0.023,0.018,0.043,0.034,0.066,0.051
				c0.016,0.012,0.029,0.023,0.045,0.035c0.033,0.024,0.068,0.048,0.1,0.072c0.037,0.023,0.074,0.049,0.107,0.072
				c0.047,0.033,0.096,0.066,0.145,0.099c0.014,0.009,0.025,0.019,0.039,0.028c0.031,0.019,0.061,0.039,0.092,0.059
				c0.02,0.011,0.039,0.022,0.057,0.033c0.08,0.051,0.16,0.1,0.242,0.147c0.002,0.002,0.004,0.003,0.008,0.006
				c0.035,0.021,0.068,0.04,0.104,0.061c0.01,0.006,0.02,0.009,0.029,0.015c0.121,0.069,0.244,0.135,0.369,0.199
				c0.012,0.006,0.023,0.012,0.035,0.018c0.002,0.001,0.004,0.002,0.006,0.003c0.621,0.312,1.283,0.555,1.973,0.721
				c0.012,0.003,0.021,0.006,0.033,0.008c0.146,0.035,0.297,0.066,0.447,0.095c0.043,0.007,0.084,0.016,0.125,0.022
				c0.117,0.019,0.232,0.036,0.348,0.052c0.039,0.006,0.078,0.014,0.119,0.018c0.01,0.002,0.02,0.003,0.027,0.004
				c0.027,0.004,0.055,0.006,0.084,0.008c0.043,0.004,0.084,0.008,0.127,0.013c0.047,0.004,0.096,0.01,0.143,0.013
				c0.045,0.004,0.09,0.008,0.135,0.011c0.029,0.001,0.059,0.002,0.088,0.005c0.021,0,0.043,0.001,0.064,0.002
				c0.039,0.001,0.08,0.005,0.119,0.006c0.068,0.002,0.133,0.004,0.203,0.005c0.035,0.001,0.068,0.001,0.104,0
				c0.004,0,0.008,0.001,0.014,0.001s0.01-0.001,0.014-0.001c0.035,0.001,0.068,0.001,0.102,0c0.072-0.001,0.141-0.003,0.209-0.005
				c0.041-0.001,0.082-0.005,0.121-0.007c0.02,0,0.037-0.001,0.057-0.001c0.027-0.003,0.055-0.003,0.084-0.005
				c0.053-0.003,0.104-0.008,0.156-0.011c0.045-0.006,0.09-0.01,0.135-0.014c0.039-0.004,0.078-0.008,0.115-0.011
				c0.025-0.003,0.053-0.005,0.078-0.008c0.02-0.002,0.041-0.005,0.064-0.008c0.031-0.005,0.064-0.011,0.096-0.015
				c0.125-0.017,0.25-0.035,0.371-0.057c0.035-0.007,0.068-0.013,0.104-0.018c0.154-0.03,0.311-0.063,0.463-0.1
				c0.006,0,0.014-0.003,0.02-0.005c0.369-0.088,0.727-0.198,1.078-0.329c0.004-0.002,0.004-0.002,0.006-0.004
				c0.01-0.003,0.02-0.007,0.027-0.01c0.139-0.053,0.275-0.108,0.41-0.168c0.004-0.002,0.006-0.002,0.008-0.003
				c0.02-0.009,0.037-0.018,0.057-0.025c0.121-0.055,0.242-0.11,0.361-0.171c0.008-0.004,0.018-0.007,0.025-0.012
				c0.045-0.023,0.092-0.049,0.139-0.072c0.084-0.043,0.166-0.088,0.246-0.133c0.016-0.01,0.031-0.018,0.047-0.026
				c0.035-0.021,0.07-0.04,0.107-0.061c0.008-0.006,0.016-0.011,0.023-0.015c0.07-0.043,0.139-0.086,0.209-0.129
				c0.02-0.014,0.041-0.025,0.061-0.038c0.023-0.014,0.043-0.026,0.064-0.04c0.012-0.008,0.025-0.016,0.037-0.023
				c0.016-0.011,0.029-0.021,0.047-0.033c0.043-0.028,0.086-0.058,0.131-0.088c0.021-0.016,0.047-0.032,0.07-0.049
				c0.051-0.037,0.104-0.072,0.154-0.11c0.014-0.01,0.027-0.021,0.041-0.03c0.016-0.012,0.031-0.023,0.047-0.036
				c0.027-0.02,0.053-0.04,0.078-0.061c0.072-0.057,0.146-0.112,0.219-0.171c0.027-0.022,0.055-0.045,0.082-0.067
				c0.025-0.021,0.047-0.045,0.072-0.065c0.105-0.092,0.211-0.187,0.316-0.283c0.043-0.043,0.088-0.085,0.133-0.129
				c0.107-0.104,0.209-0.21,0.311-0.318c0.021-0.021,0.045-0.043,0.064-0.065c0.004-0.005,0.01-0.009,0.016-0.015
				c0.08-0.09,0.16-0.182,0.238-0.276c0.023-0.027,0.045-0.054,0.066-0.08c0.061-0.075,0.121-0.151,0.18-0.229
				c0.016-0.019,0.029-0.036,0.043-0.056c0.02-0.023,0.037-0.049,0.057-0.072c0.004-0.008,0.01-0.016,0.016-0.022
				c0.045-0.06,0.084-0.118,0.127-0.179c0.012-0.018,0.023-0.035,0.035-0.051c0.035-0.051,0.068-0.1,0.102-0.15
				c0.004-0.007,0.01-0.013,0.014-0.02c0.029-0.043,0.057-0.09,0.086-0.135c0.012-0.019,0.023-0.037,0.035-0.057
				c0.037-0.061,0.076-0.119,0.111-0.181c0.01-0.015,0.018-0.028,0.027-0.042c0.02-0.035,0.039-0.071,0.059-0.106
				c0.006-0.011,0.012-0.021,0.018-0.032c0.047-0.081,0.09-0.164,0.137-0.246c0.002-0.01,0.008-0.019,0.014-0.027
				c0.004-0.01,0.01-0.02,0.014-0.029c0.014-0.027,0.027-0.053,0.041-0.08c0.004-0.008,0.008-0.018,0.012-0.027
				c0.041-0.079,0.08-0.16,0.117-0.241c0.002-0.001,0.002-0.003,0.004-0.004c0.023-0.054,0.049-0.107,0.072-0.161
				c0.004-0.012,0.01-0.023,0.016-0.035c0.047-0.109,0.094-0.221,0.135-0.332c0.01-0.027,0.023-0.053,0.033-0.08
				c0.002-0.006,0.004-0.012,0.006-0.018c0.043-0.113,0.082-0.23,0.121-0.346c0.008-0.024,0.018-0.05,0.025-0.075
				c0.002-0.004,0.002-0.008,0.006-0.011c0.002-0.011,0.006-0.023,0.01-0.033c0.025-0.08,0.047-0.163,0.07-0.244
				c0.01-0.033,0.021-0.064,0.029-0.097c0.008-0.026,0.014-0.052,0.021-0.076c0-0.003,0.002-0.007,0.002-0.009
				c0.021-0.085,0.041-0.17,0.063-0.256c0.002-0.012,0.006-0.025,0.008-0.037c0.014-0.051,0.027-0.102,0.035-0.153
				c0.002-0.005,0.004-0.011,0.004-0.017c0.014-0.063,0.025-0.125,0.037-0.188c0-0.008,0.002-0.017,0.004-0.024
				c0.016-0.08,0.031-0.16,0.043-0.241c0.002-0.003,0.002-0.005,0.002-0.008c0.006-0.043,0.012-0.084,0.018-0.127
				c0-0.006,0.002-0.012,0.002-0.018c0.018-0.109,0.031-0.221,0.043-0.333c0-0.003,0-0.007,0-0.012
				c0.002-0.013,0.004-0.024,0.004-0.038c0.002-0.008,0.002-0.018,0.004-0.025c0.014-0.14,0.025-0.279,0.031-0.422
				c0-0.001,0-0.002,0-0.002c0.006-0.094,0.006-0.187,0.006-0.279C47.174,41.556,47.178,41.49,47.178,41.423
				C47.178,41.424,47.178,41.424,47.178,41.423z M45.715,36.417c0.02,0.033,0.039,0.066,0.061,0.098
				c-0.051-0.078-0.102-0.156-0.15-0.234c0.01,0.018,0.021,0.035,0.033,0.053C45.678,36.36,45.695,36.39,45.715,36.417z
				 M29.975,36.585c0.033-0.053,0.066-0.104,0.098-0.156c-0.008,0.016-0.018,0.031-0.027,0.047
				c-0.027,0.044-0.057,0.086-0.084,0.131C29.967,36.6,29.971,36.592,29.975,36.585z"/>
			<g>
				<path fill="#B5B4B4" d="M37.822,47.609v-1.546l0.889-0.074c0.117-0.021,0.195-0.037,0.287-0.059
					c0.174-0.043,0.344-0.094,0.504-0.152l0.936-0.472l0.475-0.36c0.057-0.049,0.109-0.096,0.162-0.145l0.072-0.069
					c0.047-0.044,0.098-0.098,0.162-0.167l0.992-1.68l0.209-0.951l0.025-0.521l-0.016-0.364l0.76-0.209l-0.768,0.097l-0.137-0.733
					c-0.037-0.144-0.094-0.308-0.154-0.468c-0.117-0.284-0.217-0.486-0.33-0.677l-0.566-0.856l0.656-0.428l0.156,0.232l0.063-0.031
					l-0.055-0.11l0.652-0.325l0.84,1.447l-0.043,0.021c0.01,0.022,0.018,0.043,0.025,0.063l0.041,0.102
					c0.084,0.215,0.158,0.435,0.215,0.65l0.199,1.268c0.008,0.145,0.008,0.336,0.008,0.336l-0.129,1.268l-0.074,0.318l-0.176-0.026
					l0.17,0.046l-0.168-0.029l0.162,0.046l-0.457,1.183l-0.531,0.859l-0.439,0.529c-0.082,0.088-0.148,0.155-0.217,0.224
					l-0.086,0.083c-0.078,0.072-0.15,0.137-0.225,0.2l-0.637,0.478l-1.229,0.62c-0.227,0.084-0.451,0.152-0.68,0.208
					c-0.123,0.029-0.227,0.051-0.33,0.07c-0.15,0.025-0.232,0.039-0.314,0.049L37.822,47.609z"/>
			</g>
		</g>
		<g>
			
				<rect x="36.89" y="18.097" transform="matrix(0.7069 0.7073 -0.7073 0.7069 36.9567 -16.5399)" fill="#2D3237" stroke="#B5B4B4" stroke-width="1.2" stroke-miterlimit="10" width="3.094" height="36.46"/>
		</g>
	</g>
	<g>
		<rect x="34.301" y="14.193" fill="#B5B4B4" width="8.594" height="3.438"/>
		<rect x="35.16" y="15.913" fill="#2D3237" width="6.875" height="0.858"/>
	</g>
</g>
</svg>
