<?xml version="1.0" encoding="utf-8"?>
<!-- Generator: Adobe Illustrator 16.2.0, SVG Export Plug-In . SVG Version: 6.00 Build 0)  -->
<!DOCTYPE svg PUBLIC "-//W3C//DTD SVG 1.1//EN" "http://www.w3.org/Graphics/SVG/1.1/DTD/svg11.dtd">
<svg version="1.1" id="图层_1" xmlns="http://www.w3.org/2000/svg" xmlns:xlink="http://www.w3.org/1999/xlink" x="0px" y="0px"
	 width="55px" height="55px" viewBox="0 0 55 55" enable-background="new 0 0 55 55" xml:space="preserve">
<g>
	<g>
		<g>
			<path fill="#B5B4B4" d="M54.5,0.44v53.997h-54V0.44H54.5 M55-0.06H0v54.997h55V-0.06L55-0.06z"/>
		</g>
	</g>
	<g>
		<g>
			<path fill="#B5B4B4" d="M54.5,0.44v53.997h-25V0.44H54.5 M55-0.06H29v54.997h26V-0.06L55-0.06z"/>
		</g>
	</g>
	<g opacity="0.6">
		<polygon fill="#B5B4B4" points="17.43,30.114 14.367,30.114 14.367,55.06 17.067,54.943 		"/>
		<g>
			<g>
				<path fill="#B5B4B4" d="M5.337,23.27c-0.133,0-0.261-0.025-0.381-0.076c-0.614-0.258-0.839-1.069-0.513-1.847l4.249-10.109
					c0.316-0.753,1.085-1.177,1.678-0.926c0.614,0.257,0.839,1.068,0.512,1.846L6.633,22.267C6.381,22.867,5.86,23.27,5.337,23.27z
					 M9.997,11.196c-0.094,0-0.297,0.122-0.42,0.412L5.328,21.718c-0.134,0.319-0.052,0.569-0.001,0.592h0.01
					c0.083,0,0.288-0.122,0.411-0.414l4.249-10.109c0.134-0.317,0.052-0.569,0.001-0.59H9.997z"/>
			</g>
			<g>
				<path fill="#B5B4B4" d="M17.698,30.959h-5.235c-0.784,0-1.422-0.639-1.422-1.422v-7.991c0-0.232-0.052-0.396-0.092-0.473
					c-0.476-0.083-0.81-0.651-0.81-1.412v-7.989c0-0.824,0.392-1.422,0.931-1.422h8.027c0.542,0,0.937,0.598,0.937,1.422v7.989
					c0,0.764-0.338,1.334-0.82,1.414c-0.04,0.075-0.093,0.238-0.093,0.471v7.991C19.12,30.32,18.482,30.959,17.698,30.959z
					 M11.19,20.135c0.476,0.082,0.81,0.65,0.81,1.411v7.991C12,29.791,12.208,30,12.463,30h5.235c0.255,0,0.462-0.209,0.462-0.463
					v-7.991c0-0.763,0.338-1.333,0.82-1.413c0.04-0.074,0.093-0.238,0.093-0.472v-7.989c0-0.224-0.049-0.384-0.088-0.462h-7.8
					c-0.039,0.079-0.087,0.239-0.087,0.462v7.989C11.099,19.894,11.151,20.059,11.19,20.135z"/>
			</g>
		</g>
		<g>
			<polygon fill="#B5B4B4" points="14.229,25.5 13.739,25.289 15.726,20.652 12.851,20.652 15.531,14.908 16.015,15.134 
				13.688,20.119 16.535,20.119 			"/>
		</g>
	</g>
	<path fill="#B5B4B4" d="M33.331,8.835v18h18v-18H33.331z M49.485,22.652h-3.174v1.502h-1.211v1.988h-5.539v-1.988h-1.211v-1.502
		h-3.174v-9.346h14.309V22.652z"/>
	<g>
		<rect x="33.331" y="45.367" fill="#B5B4B4" width="18" height="0.459"/>
	</g>
	<circle fill="#B5B4B4" cx="42.331" cy="45.597" r="3.094"/>
</g>
</svg>
