<?xml version="1.0" encoding="utf-8"?>
<!-- Generator: Adobe Illustrator 16.2.0, SVG Export Plug-In . SVG Version: 6.00 Build 0)  -->
<!DOCTYPE svg PUBLIC "-//W3C//DTD SVG 1.1//EN" "http://www.w3.org/Graphics/SVG/1.1/DTD/svg11.dtd">
<svg version="1.1" id="图层_1" xmlns="http://www.w3.org/2000/svg" xmlns:xlink="http://www.w3.org/1999/xlink" x="0px" y="0px"
	 width="55px" height="55px" viewBox="0 0 55 55" enable-background="new 0 0 55 55" xml:space="preserve">
<g>
	<g>
		<g>
			<path fill="#B5B4B4" d="M49.999,0.5c2.481,0,4.5,2.019,4.5,4.5v44.997c0,2.481-2.019,4.5-4.5,4.5H5.001
				c-2.481,0-4.5-2.019-4.5-4.5V5c0-2.481,2.019-4.5,4.5-4.5H49.999 M49.999,0H5.001c-2.75,0-5,2.25-5,5v44.997c0,2.75,2.25,5,5,5
				h44.998c2.75,0,5-2.25,5-5V5C54.999,2.25,52.749,0,49.999,0L49.999,0z"/>
		</g>
	</g>
	<g>
		<g>
			<path fill="#B5B4B4" d="M49.343,0.502V54.5H5.657V0.502H49.343 M49.843,0.002H5.157V55h44.686V0.002L49.843,0.002z"/>
		</g>
	</g>
	<g>
		<line fill="none" stroke="#B5B4B4" stroke-width="2.3152" stroke-miterlimit="10" x1="27.5" y1="12.746" x2="27.5" y2="43.683"/>
		
			<line fill="none" stroke="#B5B4B4" stroke-width="2.3152" stroke-miterlimit="10" x1="16.562" y1="17.276" x2="38.438" y2="39.152"/>
		
			<line fill="none" stroke="#B5B4B4" stroke-width="2.3152" stroke-miterlimit="10" x1="12.032" y1="28.215" x2="42.968" y2="28.215"/>
		
			<line fill="none" stroke="#B5B4B4" stroke-width="2.3152" stroke-miterlimit="10" x1="16.562" y1="39.152" x2="38.438" y2="17.277"/>
		<circle fill="#2D3237" stroke="#B5B4B4" stroke-width="2.25" stroke-miterlimit="10" cx="27.5" cy="28.215" r="9.238"/>
	</g>
</g>
</svg>
