<?xml version="1.0" standalone="no"?><!DOCTYPE svg PUBLIC "-//W3C//DTD SVG 1.1//EN" "http://www.w3.org/Graphics/SVG/1.1/DTD/svg11.dtd"><svg t="1533281566416" class="icon" style="" viewBox="0 0 1024 1024" version="1.1" xmlns="http://www.w3.org/2000/svg" p-id="3554" xmlns:xlink="http://www.w3.org/1999/xlink" width="16" height="16"><defs><style type="text/css"></style></defs><path d="M700.681448 460.05501c-26.48517 33.2211-58.632268 69.129031-96.649282 107.110772C456.862193 714.334538 274.675846 841.199416 214.754289 829.48026c-15.864343 14.486263-31.605839 22.140508-36.527033 17.19742-4.92241-4.924843 2.731834-20.665123 17.198636-36.511221-11.721588-59.941018 115.140857-242.14561 262.309613-389.29004 38.004851-38.004851 73.878725-70.127622 107.091311-96.672392L700.681448 460.05501 700.681448 460.05501zM776.921032 342.139747c6.059661-13.36969 10.50771-25.709164 13.357527-36.96977l46.250223-46.24779c12.951279-12.975605 12.951279-34.037245 0-47.01285l-23.518588-23.513723c-12.97074-12.975605-34.056706-12.975605-47.027445 0l-46.234411 46.272116c-32.662813 8.210099-74.767849 30.169376-123.790044 65.823098l128.413242 128.415674c16.519935-22.678117 30.188837-43.944097 40.776824-63.409937 15.540805 37.643607-20.188329 117.535773-106.519645 190.651871-4.660903 3.94328-5.238651 10.937068-1.294155 15.622297 3.967606 4.660903 10.977206 5.241084 15.664868 1.273478C770.567024 490.425077 816.099623 389.129487 776.921032 342.139747L776.921032 342.139747zM776.921032 342.139747" p-id="3555" fill="#cdcdcd"></path><path d="M149.977218 856.149093l677.485182 0 0 24.326218-677.485182 0 0-24.326218Z" p-id="3556" fill="#cdcdcd"></path></svg>