<?xml version="1.0" standalone="no"?><!DOCTYPE svg PUBLIC "-//W3C//DTD SVG 1.1//EN" "http://www.w3.org/Graphics/SVG/1.1/DTD/svg11.dtd"><svg t="1531394389830" class="icon" style="" viewBox="0 0 1024 1024" version="1.1" xmlns="http://www.w3.org/2000/svg" p-id="1404" xmlns:xlink="http://www.w3.org/1999/xlink" width="16" height="16"><defs><style type="text/css"></style></defs><path d="M266.096962 953.614953c-64.660672-39.197744-113.379257-67.065442-160.00825-98.117668-11.587919-7.67275-23.068392-25.470091-23.174815-38.777165-1.616824-152.548348-1.042749-305.09772-1.042749-466.205001 18.579147 7.408737 31.627325 10.697643 42.691311 17.378809 107.407242 64.920592 213.869972 131.305535 321.931107 195.031928 32.302707 19.046798 44.98454 41.958624 43.106774 79.326696-2.90005 57.827033-0.782829 115.913986-0.782829 184.384427-75.049277-43.992957-142.685723-83.658352-222.720547-130.630153C266.096962 784.779663 266.096962 861.395622 266.096962 953.614953z" p-id="1405" fill="#dbdbdb"></path><path d="M685.408957 167.280888c-59.623959 36.426631-110.169145 67.321268-160.79108 98.113575-72.90852 44.36237-145.164171 89.818655-219.379453 131.884726-15.654538 8.816806-42.792619 12.889565-57.455573 5.323239-52.897767-27.400047-102.760408-60.750619-161.685449-96.65741 27.715225-17.430998 49.426713-31.626301 71.708182-44.934398C260.722558 199.639876 364.37222 139.462309 466.502271 76.783781c28.629038-17.588587 51.145867-19.259646 79.144548 0.523933C587.970764 107.261932 632.802832 133.722584 685.408957 167.280888z" p-id="1406" fill="#dbdbdb"></path><path d="M941.738973 584.53092C794.225291 486.259756 658.664849 395.972427 515.821537 300.833603c63.174831-38.830377 119.151727-74.891687 177.181375-107.300818 10.256598-5.739724 31.626301-0.208754 43.528376 7.148817 60.331064 37.260625 119.90488 75.883271 178.013323 116.483968 12.709463 8.873088 25.444509 27.659967 25.991977 42.38125C943.225837 430.049546 941.738973 500.714979 941.738973 584.53092z" p-id="1407" fill="#dbdbdb"></path><path d="M917.237953 599.612407C786.10638 679.619602 661.223115 755.919359 527.146467 837.752132c0-84.182284-1.723248-157.974941 0.733711-231.667314 1.226944-36.009122 182.140317-141.485385 210.81745-123.740232C797.201066 518.563486 853.876879 557.76123 917.237953 599.612407z" p-id="1408" fill="#dbdbdb"></path><path d="M753.387187 960.971501c0-78.647221-0.753153-145.033187 0.807389-211.419154 0.264013-10.596336 8.484232-24.997324 17.436114-30.792307 52.840462-33.975812 106.956987-65.862034 170.236196-104.270808 0 77.917604 1.358951 144.403854-1.199315 210.737632-0.49528 12.839423-13.751189 29.068036-25.626657 36.84414C866.559736 893.804752 816.354288 922.822646 753.387187 960.971501z" p-id="1409" fill="#dbdbdb"></path></svg>