<?xml version="1.0" standalone="no"?><!DOCTYPE svg PUBLIC "-//W3C//DTD SVG 1.1//EN" "http://www.w3.org/Graphics/SVG/1.1/DTD/svg11.dtd"><svg t="1533281518532" class="icon" style="" viewBox="0 0 1024 1024" version="1.1" xmlns="http://www.w3.org/2000/svg" p-id="2221" xmlns:xlink="http://www.w3.org/1999/xlink" width="16" height="16"><defs><style type="text/css"></style></defs><path d="M929.627121 886.069581 728.151433 684.637896c-1.215688-1.215688-2.734274-1.723248-4.080945-2.690272 51.689243-61.410652 82.923618-140.556223 82.923618-227.094158 0-194.968483-158.084435-353.040638-353.120456-353.040638-194.992019 0-353.09692 158.072155-353.09692 353.040638 0 194.987926 158.104901 353.040638 353.120456 353.040638 86.389556 0 165.42768-31.091112 226.777957-82.568531 0.971118 1.346671 1.503237 2.889817 2.713808 4.105504l201.479781 201.427592c12.351306 12.379958 32.406061 12.379958 44.757367 0C941.98252 918.483828 941.98252 898.449539 929.627121 886.069581L929.627121 886.069581zM453.898209 741.695403c-158.373007 0-286.741653-128.416741-286.741653-286.841937 0-158.429289 128.368646-286.84603 286.741653-286.84603 158.368914 0 286.741653 128.416741 286.741653 286.84603C740.638839 613.278661 612.246657 741.695403 453.898209 741.695403L453.898209 741.695403zM453.898209 741.695403" p-id="2222" fill="#ffc034"></path></svg>