<?xml version="1.0" standalone="no"?><!DOCTYPE svg PUBLIC "-//W3C//DTD SVG 1.1//EN" "http://www.w3.org/Graphics/SVG/1.1/DTD/svg11.dtd"><svg t="1531384230764" class="icon" style="" viewBox="0 0 1024 1024" version="1.1" xmlns="http://www.w3.org/2000/svg" p-id="2340" xmlns:xlink="http://www.w3.org/1999/xlink" width="16" height="16"><defs><style type="text/css"></style></defs><path d="M701.269691 673.472602c1.041726 2.379187 2.517333 4.613064 4.468778 6.565533l17.990746 17.990746c7.635911 7.635911 19.49603 8.368598 28.010961 2.310625L952.466804 901.066133c5.677303 5.677303 5.677303 14.882965 0 20.560268l-30.841426 30.841426c-5.677303 5.677303-14.882965 5.677303-20.561291 0L700.339506 751.741199c6.057973-8.515954 5.325285-20.376073-2.310625-28.011984l-17.990746-17.990746c-1.952468-1.952468-4.186346-3.428076-6.565533-4.469801-142.699026 128.258129-362.464265 123.756605-499.741815-13.520945-141.941779-141.941779-141.941779-372.07618 0-514.016937 141.941779-141.942803 372.075157-141.942803 514.01796 0C825.026296 311.00936 829.526797 530.773576 701.269691 673.472602zM225.13248 225.13248c-113.553219 113.553219-113.553219 297.66033 0 411.213549 113.554242 113.554242 297.661354 113.554242 411.214573 0 113.553219-113.553219 113.553219-297.66033 0-411.213549C522.79281 111.578238 338.685699 111.578238 225.13248 225.13248z" p-id="2341" fill="#dbdbdb"></path></svg>