<?xml version="1.0" standalone="no"?><!DOCTYPE svg PUBLIC "-//W3C//DTD SVG 1.1//EN" "http://www.w3.org/Graphics/SVG/1.1/DTD/svg11.dtd"><svg t="1533282506818" class="icon" style="" viewBox="0 0 1064 1024" version="1.1" xmlns="http://www.w3.org/2000/svg" p-id="11882" xmlns:xlink="http://www.w3.org/1999/xlink" width="16.625" height="16"><defs><style type="text/css"></style></defs><path d="M1025.290551 973.635647 1025.290551 1021.118306 0 1021.118306 0 973.635647C0 798.149872 393.710765 835.711181 393.710765 664.894078 393.710765 649.35797 394.223439 634.113863 394.00396 615.953085 375.182592 595.457969 332.267386 542.724301 315.203505 470.735269 297.774387 462.712761 283.345896 445.426314 274.119503 421.28369 261.302745 387.294807 260.351122 340.396146 285.324536 309.981349 285.25082 309.397346 285.178778 309.033598 285.105057 308.449595 280.491028 265.854196 268.041177 152.656352 336.516183 78.479817 375.99013 35.739254 435.089632 2.042364 512.060562 2.8e-05 589.029813 2.042364 648.130997 35.73925 687.604941 78.479817 756.079951 152.656352 743.6301 265.854196 738.94235 308.449595 738.868634 309.033598 738.796591 309.397346 738.649155 309.981349 763.622569 340.396146 762.670946 387.294807 749.854188 421.28369 740.699837 445.426314 726.053545 462.711091 708.622753 470.735269 691.558869 542.650884 648.350472 595.457969 629.5291 615.953085 629.309625 634.042112 629.09015 651.181722 629.09015 666.717834 629.088473 834.32626 1025.290551 796.764952 1025.290551 973.635647L1025.290551 973.635647 1025.290551 973.635647Z" p-id="11883" fill="#dbdbdb"></path></svg>